ISO-10303-21;
HEADER;
FILE_DESCRIPTION (( 'STEP AP214' ),
    '1' );
FILE_NAME ('Battery clip.STEP',
    '2026-06-11T16:00:03',
    ( '' ),
    ( '' ),
    'SwSTEP 2.0',
    'SolidWorks 2024',
    '' );
FILE_SCHEMA (( 'AUTOMOTIVE_DESIGN' ));
ENDSEC;

DATA;
#1 = FACE_OUTER_BOUND ( 'NONE', #186, .T. ) ;
#2 =( GEOMETRIC_REPRESENTATION_CONTEXT ( 3 ) GLOBAL_UNCERTAINTY_ASSIGNED_CONTEXT ( ( #368 ) ) GLOBAL_UNIT_ASSIGNED_CONTEXT ( ( #109, #197, #55 ) ) REPRESENTATION_CONTEXT ( 'NONE', 'WORKASPACE' ) );
#3 = APPLICATION_CONTEXT ( 'automotive_design' ) ;
#4 = ORIENTED_EDGE ( 'NONE', *, *, #251, .F. ) ;
#5 = VERTEX_POINT ( 'NONE', #309 ) ;
#6 = DIRECTION ( 'NONE',  ( -0.8660254037844399289, 0.4999999999999978351, 0.000000000000000000 ) ) ;
#7 = ORIENTED_EDGE ( 'NONE', *, *, #28, .F. ) ;
#8 = AXIS2_PLACEMENT_3D ( 'NONE', #130, #317, #18 ) ;
#9 = UNCERTAINTY_MEASURE_WITH_UNIT (LENGTH_MEASURE( 1.000000000000000082E-05 ), #151, 'distance_accuracy_value', 'NONE');
#10 = DIRECTION ( 'NONE',  ( 0.000000000000000000, -0.000000000000000000, -1.000000000000000000 ) ) ;
#11 = CARTESIAN_POINT ( 'NONE',  ( -6.505213034912998994E-16, -1.126735949052871098E-15, 0.000000000000000000 ) ) ;
#12 = EDGE_CURVE ( 'NONE', #247, #272, #99, .T. ) ;
#13 = CARTESIAN_POINT ( 'NONE',  ( 1.285901893050434702E-16, -3.899999999999999911, 0.000000000000000000 ) ) ;
#14 = FACE_OUTER_BOUND ( 'NONE', #267, .T. ) ;
#15 = AXIS2_PLACEMENT_3D ( 'NONE', #202, #319, #81 ) ;
#16 = DIRECTION ( 'NONE',  ( 1.000000000000000000, 0.000000000000000000, 0.000000000000000000 ) ) ;
#17 = APPLICATION_PROTOCOL_DEFINITION ( 'draft international standard', 'automotive_design', 1998, #3 ) ;
#18 = DIRECTION ( 'NONE',  ( 1.000000000000000000, 0.000000000000000000, 0.000000000000000000 ) ) ;
#19 = EDGE_CURVE ( 'NONE', #35, #29, #65, .T. ) ;
#20 = FACE_OUTER_BOUND ( 'NONE', #389, .T. ) ;
#21 =( NAMED_UNIT ( * ) SI_UNIT ( $, .STERADIAN. ) SOLID_ANGLE_UNIT ( ) );
#22 = CARTESIAN_POINT ( 'NONE',  ( -17.50000000000000000, 0.000000000000000000, 10.00000000000000000 ) ) ;
#23 = DIRECTION ( 'NONE',  ( 1.000000000000000000, 1.734723475976807094E-16, 0.000000000000000000 ) ) ;
#24 = CARTESIAN_POINT ( 'NONE',  ( 0.000000000000000000, 0.000000000000000000, 10.00000000000000000 ) ) ;
#25 = AXIS2_PLACEMENT_3D ( 'NONE', #318, #259, #170 ) ;
#26 = AXIS2_PLACEMENT_3D ( 'NONE', #24, #369, #101 ) ;
#27 = ORIENTED_EDGE ( 'NONE', *, *, #39, .F. ) ;
#28 = EDGE_CURVE ( 'NONE', #62, #299, #98, .T. ) ;
#29 = VERTEX_POINT ( 'NONE', #188 ) ;
#30 = SURFACE_SIDE_STYLE ('',( #316 ) ) ;
#31 = VERTEX_POINT ( 'NONE', #218 ) ;
#32 = DIRECTION ( 'NONE',  ( 1.000000000000000000, 0.000000000000000000, 0.000000000000000000 ) ) ;
#33 = VECTOR ( 'NONE', #69, 1000.000000000000000 ) ;
#34 = ORIENTED_EDGE ( 'NONE', *, *, #19, .F. ) ;
#35 = VERTEX_POINT ( 'NONE', #305 ) ;
#36 = DIRECTION ( 'NONE',  ( 1.000000000000000000, 0.000000000000000000, 0.000000000000000000 ) ) ;
#37 = PLANE ( 'NONE',  #148 ) ;
#38 = ORIENTED_EDGE ( 'NONE', *, *, #343, .F. ) ;
#39 = EDGE_CURVE ( 'NONE', #191, #97, #45, .T. ) ;
#40 = VECTOR ( 'NONE', #277, 1000.000000000000000 ) ;
#41 = FACE_OUTER_BOUND ( 'NONE', #337, .T. ) ;
#42 = CARTESIAN_POINT ( 'NONE',  ( -4.416729559300642372, 2.549999999999987388, 0.000000000000000000 ) ) ;
#43 = FACE_OUTER_BOUND ( 'NONE', #320, .T. ) ;
#44 = CARTESIAN_POINT ( 'NONE',  ( 0.000000000000000000, 0.000000000000000000, 0.000000000000000000 ) ) ;
#45 = CIRCLE ( 'NONE', #210, 3.899999999999999911 ) ;
#46 = FACE_OUTER_BOUND ( 'NONE', #326, .T. ) ;
#47 = AXIS2_PLACEMENT_3D ( 'NONE', #294, #255, #6 ) ;
#48 = LINE ( 'NONE', #80, #329 ) ;
#49 = CARTESIAN_POINT ( 'NONE',  ( 0.000000000000000000, -3.899999999999999911, 0.000000000000000000 ) ) ;
#50 = CARTESIAN_POINT ( 'NONE',  ( 8.847089727481708293E-16, -5.099999999999996092, 10.00000000000000000 ) ) ;
#51 =( NAMED_UNIT ( * ) PLANE_ANGLE_UNIT ( ) SI_UNIT ( $, .RADIAN. ) );
#52 = LINE ( 'NONE', #190, #248 ) ;
#53 = ORIENTED_EDGE ( 'NONE', *, *, #54, .F. ) ;
#54 = EDGE_CURVE ( 'NONE', #391, #62, #361, .T. ) ;
#55 =( NAMED_UNIT ( * ) SI_UNIT ( $, .STERADIAN. ) SOLID_ANGLE_UNIT ( ) );
#56 = VECTOR ( 'NONE', #108, 1000.000000000000000 ) ;
#57 = VERTEX_POINT ( 'NONE', #132 ) ;
#58 = ORIENTED_EDGE ( 'NONE', *, *, #348, .T. ) ;
#59 = ADVANCED_FACE ( 'NONE', ( #333 ), #370, .F. ) ;
#60 = ORIENTED_EDGE ( 'NONE', *, *, #268, .T. ) ;
#61 = ADVANCED_FACE ( 'NONE', ( #1 ), #126, .T. ) ;
#62 = VERTEX_POINT ( 'NONE', #64 ) ;
#63 = DIRECTION ( 'NONE',  ( -1.000000000000000000, 0.000000000000000000, 0.000000000000000000 ) ) ;
#64 = CARTESIAN_POINT ( 'NONE',  ( 3.842640687119284859, -3.499999999999999556, 10.00000000000000000 ) ) ;
#65 = CIRCLE ( 'NONE', #383, 0.4000000000000001887 ) ;
#66 = CARTESIAN_POINT ( 'NONE',  ( 4.242640687119284770, -3.499999999999999556, 0.000000000000000000 ) ) ;
#67 = PRODUCT_DEFINITION_SHAPE ( 'NONE', 'NONE',  #71 ) ;
#68 =( GEOMETRIC_REPRESENTATION_CONTEXT ( 3 ) GLOBAL_UNCERTAINTY_ASSIGNED_CONTEXT ( ( #9 ) ) GLOBAL_UNIT_ASSIGNED_CONTEXT ( ( #151, #51, #21 ) ) REPRESENTATION_CONTEXT ( 'NONE', 'WORKASPACE' ) );
#69 = DIRECTION ( 'NONE',  ( -0.000000000000000000, -0.000000000000000000, -1.000000000000000000 ) ) ;
#70 = PRODUCT ( 'Battery clip', 'Battery clip', '', ( #378 ) ) ;
#71 = PRODUCT_DEFINITION ( 'UNKNOWN', '', #180, #359 ) ;
#72 = CARTESIAN_POINT ( 'NONE',  ( 4.242640687119283882, -3.899999999999999467, 10.00000000000000000 ) ) ;
#73 = ORIENTED_EDGE ( 'NONE', *, *, #209, .T. ) ;
#74 = DIRECTION ( 'NONE',  ( -0.000000000000000000, 0.000000000000000000, 1.000000000000000000 ) ) ;
#75 = AXIS2_PLACEMENT_3D ( 'NONE', #141, #227, #345 ) ;
#76 = DIRECTION ( 'NONE',  ( -0.000000000000000000, -0.000000000000000000, -1.000000000000000000 ) ) ;
#77 = CARTESIAN_POINT ( 'NONE',  ( 0.000000000000000000, 0.000000000000000000, 0.000000000000000000 ) ) ;
#78 = CARTESIAN_POINT ( 'NONE',  ( 1.285901893050434702E-16, -3.899999999999999911, 10.00000000000000000 ) ) ;
#79 = CYLINDRICAL_SURFACE ( 'NONE', #26, 5.099999999999998757 ) ;
#80 = CARTESIAN_POINT ( 'NONE',  ( -17.50000000000000000, -3.899999999999999911, 10.00000000000000000 ) ) ;
#81 = DIRECTION ( 'NONE',  ( 1.000000000000000000, 0.000000000000000000, 0.000000000000000000 ) ) ;
#82 = VECTOR ( 'NONE', #283, 1000.000000000000227 ) ;
#83 = LINE ( 'NONE', #149, #139 ) ;
#84 = CARTESIAN_POINT ( 'NONE',  ( 17.50000000000000000, 0.000000000000000000, 0.000000000000000000 ) ) ;
#85 = VERTEX_POINT ( 'NONE', #187 ) ;
#86 = CARTESIAN_POINT ( 'NONE',  ( 0.000000000000000000, -3.899999999999999911, 10.00000000000000000 ) ) ;
#87 = ORIENTED_EDGE ( 'NONE', *, *, #39, .T. ) ;
#88 = VECTOR ( 'NONE', #321, 1000.000000000000000 ) ;
#89 = VERTEX_POINT ( 'NONE', #127 ) ;
#90 = EDGE_CURVE ( 'NONE', #274, #272, #226, .T. ) ;
#91 = VERTEX_POINT ( 'NONE', #42 ) ;
#92 = ORIENTED_EDGE ( 'NONE', *, *, #331, .F. ) ;
#93 = DIRECTION ( 'NONE',  ( -0.000000000000000000, 0.000000000000000000, 1.000000000000000000 ) ) ;
#94 = ADVANCED_FACE ( 'NONE', ( #20 ), #135, .F. ) ;
#95 = DIRECTION ( 'NONE',  ( -1.000000000000000000, -4.579744746014227105E-16, 0.000000000000000000 ) ) ;
#96 = EDGE_CURVE ( 'NONE', #85, #89, #48, .T. ) ;
#97 = VERTEX_POINT ( 'NONE', #137 ) ;
#98 = CIRCLE ( 'NONE', #146, 0.4000000000000001887 ) ;
#99 = LINE ( 'NONE', #393, #33 ) ;
#100 = EDGE_CURVE ( 'NONE', #266, #57, #200, .T. ) ;
#101 = DIRECTION ( 'NONE',  ( -1.000000000000000000, 0.000000000000000000, 0.000000000000000000 ) ) ;
#102 = ORIENTED_EDGE ( 'NONE', *, *, #331, .T. ) ;
#103 = DIRECTION ( 'NONE',  ( 0.8660254037844399289, -0.4999999999999978351, 0.000000000000000000 ) ) ;
#104 = CARTESIAN_POINT ( 'NONE',  ( -3.377499074759315878, 1.949999999999990630, 10.00000000000000000 ) ) ;
#105 = VECTOR ( 'NONE', #373, 1000.000000000000000 ) ;
#106 = PLANE ( 'NONE',  #25 ) ;
#107 = LINE ( 'NONE', #382, #231 ) ;
#108 = DIRECTION ( 'NONE',  ( 0.000000000000000000, 1.000000000000000000, -0.000000000000000000 ) ) ;
#109 =( LENGTH_UNIT ( ) NAMED_UNIT ( * ) SI_UNIT ( .MILLI., .METRE. ) );
#110 = DIRECTION ( 'NONE',  ( -0.000000000000000000, -0.000000000000000000, -1.000000000000000000 ) ) ;
#111 = DIRECTION ( 'NONE',  ( -1.734723475976807094E-16, 1.000000000000000000, 0.000000000000000000 ) ) ;
#112 = CARTESIAN_POINT ( 'NONE',  ( -17.50000000000000000, -5.099999999999999645, 10.00000000000000000 ) ) ;
#113 = ADVANCED_FACE ( 'NONE', ( #14 ), #344, .T. ) ;
#114 = ORIENTED_EDGE ( 'NONE', *, *, #348, .F. ) ;
#115 = DIRECTION ( 'NONE',  ( -0.000000000000000000, -0.000000000000000000, -1.000000000000000000 ) ) ;
#116 = EDGE_CURVE ( 'NONE', #85, #266, #315, .T. ) ;
#117 = ORIENTED_EDGE ( 'NONE', *, *, #100, .F. ) ;
#118 = DIRECTION ( 'NONE',  ( 1.000000000000000000, 0.000000000000000000, 0.000000000000000000 ) ) ;
#119 = ORIENTED_EDGE ( 'NONE', *, *, #90, .T. ) ;
#120 = AXIS2_PLACEMENT_3D ( 'NONE', #313, #10, #351 ) ;
#121 = ORIENTED_EDGE ( 'NONE', *, *, #377, .F. ) ;
#122 = EDGE_LOOP ( 'NONE', ( #119, #386, #238, #181 ) ) ;
#123 = DIRECTION ( 'NONE',  ( 0.000000000000000000, -0.000000000000000000, -1.000000000000000000 ) ) ;
#124 = AXIS2_PLACEMENT_3D ( 'NONE', #169, #76, #195 ) ;
#125 = VECTOR ( 'NONE', #290, 1000.000000000000000 ) ;
#126 = PLANE ( 'NONE',  #367 ) ;
#127 = CARTESIAN_POINT ( 'NONE',  ( -17.50000000000000000, -3.899999999999999911, 0.000000000000000000 ) ) ;
#128 = ORIENTED_EDGE ( 'NONE', *, *, #360, .T. ) ;
#129 = ADVANCED_FACE ( 'NONE', ( #254 ), #173, .F. ) ;
#130 = CARTESIAN_POINT ( 'NONE',  ( 0.000000000000000000, 0.000000000000000000, 0.000000000000000000 ) ) ;
#131 = VECTOR ( 'NONE', #103, 1000.000000000000227 ) ;
#132 = CARTESIAN_POINT ( 'NONE',  ( -17.50000000000000000, -5.099999999999999645, 0.000000000000000000 ) ) ;
#133 = DIRECTION ( 'NONE',  ( 1.000000000000000000, 0.000000000000000000, 0.000000000000000000 ) ) ;
#134 = CARTESIAN_POINT ( 'NONE',  ( -6.505213034912998994E-16, -1.126735949052871098E-15, 10.00000000000000000 ) ) ;
#135 = PLANE ( 'NONE',  #138 ) ;
#136 = EDGE_CURVE ( 'NONE', #31, #274, #230, .T. ) ;
#137 = CARTESIAN_POINT ( 'NONE',  ( 1.285901893050434702E-16, -3.899999999999999911, 10.00000000000000000 ) ) ;
#138 = AXIS2_PLACEMENT_3D ( 'NONE', #77, #289, #16 ) ;
#139 = VECTOR ( 'NONE', #330, 1000.000000000000000 ) ;
#140 = FACE_OUTER_BOUND ( 'NONE', #189, .T. ) ;
#141 = CARTESIAN_POINT ( 'NONE',  ( 0.000000000000000000, 0.000000000000000000, 10.00000000000000000 ) ) ;
#142 = CARTESIAN_POINT ( 'NONE',  ( 17.50000000000000000, -5.099999999999992539, 10.00000000000000000 ) ) ;
#143 = ADVANCED_FACE ( 'NONE', ( #43 ), #106, .T. ) ;
#144 = DIRECTION ( 'NONE',  ( 0.000000000000000000, -1.000000000000000000, 0.000000000000000000 ) ) ;
#145 = DIRECTION ( 'NONE',  ( -0.000000000000000000, -0.000000000000000000, -1.000000000000000000 ) ) ;
#146 = AXIS2_PLACEMENT_3D ( 'NONE', #362, #161, #365 ) ;
#147 = APPLICATION_PROTOCOL_DEFINITION ( 'draft international standard', 'automotive_design', 1998, #279 ) ;
#148 = AXIS2_PLACEMENT_3D ( 'NONE', #22, #171, #203 ) ;
#149 = CARTESIAN_POINT ( 'NONE',  ( 3.842640687119284859, -3.499999999999999556, 10.00000000000000000 ) ) ;
#150 = ORIENTED_EDGE ( 'NONE', *, *, #96, .T. ) ;
#151 =( LENGTH_UNIT ( ) NAMED_UNIT ( * ) SI_UNIT ( .MILLI., .METRE. ) );
#152 = ORIENTED_EDGE ( 'NONE', *, *, #222, .T. ) ;
#153 = EDGE_LOOP ( 'NONE', ( #237, #325, #58, #121 ) ) ;
#154 = ORIENTED_EDGE ( 'NONE', *, *, #54, .T. ) ;
#155 = ORIENTED_EDGE ( 'NONE', *, *, #236, .F. ) ;
#156 = ADVANCED_FACE ( 'NONE', ( #41 ), #380, .F. ) ;
#157 = DIRECTION ( 'NONE',  ( 0.000000000000000000, 0.000000000000000000, 1.000000000000000000 ) ) ;
#158 = CLOSED_SHELL ( 'NONE', ( #213, #129, #335, #322, #160, #143, #293, #156, #59, #61, #113, #94 ) ) ;
#159 = ORIENTED_EDGE ( 'NONE', *, *, #116, .F. ) ;
#160 = ADVANCED_FACE ( 'NONE', ( #140 ), #256, .F. ) ;
#161 = DIRECTION ( 'NONE',  ( -0.000000000000000000, 0.000000000000000000, 1.000000000000000000 ) ) ;
#162 = DIRECTION ( 'NONE',  ( 1.000000000000000000, 0.000000000000000000, 0.000000000000000000 ) ) ;
#163 = FACE_OUTER_BOUND ( 'NONE', #178, .T. ) ;
#164 = VECTOR ( 'NONE', #284, 1000.000000000000000 ) ;
#165 = AXIS2_PLACEMENT_3D ( 'NONE', #194, #168, #376 ) ;
#166 = CARTESIAN_POINT ( 'NONE',  ( 1.786100450945549084E-15, -3.900000000000001243, 0.000000000000000000 ) ) ;
#167 = CIRCLE ( 'NONE', #75, 5.099999999999998757 ) ;
#168 = DIRECTION ( 'NONE',  ( -0.000000000000000000, -0.000000000000000000, -1.000000000000000000 ) ) ;
#169 = CARTESIAN_POINT ( 'NONE',  ( 4.242640687119284770, -3.499999999999999556, 10.00000000000000000 ) ) ;
#170 = DIRECTION ( 'NONE',  ( 0.000000000000000000, -0.000000000000000000, 1.000000000000000000 ) ) ;
#171 = DIRECTION ( 'NONE',  ( 1.000000000000000000, 0.000000000000000000, -0.000000000000000000 ) ) ;
#172 = EDGE_CURVE ( 'NONE', #304, #272, #228, .T. ) ;
#173 = CYLINDRICAL_SURFACE ( 'NONE', #300, 0.4000000000000001887 ) ;
#174 = LINE ( 'NONE', #50, #179 ) ;
#175 = ADVANCED_BREP_SHAPE_REPRESENTATION ( 'Battery clip', ( #385, #201 ), #68 ) ;
#176 = FILL_AREA_STYLE_COLOUR ( '', #363 ) ;
#177 = CARTESIAN_POINT ( 'NONE',  ( 3.934085000783336561, -3.245454545454543815, 10.00000000000000000 ) ) ;
#178 = EDGE_LOOP ( 'NONE', ( #302, #246, #211, #328 ) ) ;
#179 = VECTOR ( 'NONE', #23, 1000.000000000000000 ) ;
#180 = PRODUCT_DEFINITION_FORMATION_WITH_SPECIFIED_SOURCE ( 'ANY', '', #70, .NOT_KNOWN. ) ;
#181 = ORIENTED_EDGE ( 'NONE', *, *, #136, .T. ) ;
#182 = ORIENTED_EDGE ( 'NONE', *, *, #306, .T. ) ;
#183 = ORIENTED_EDGE ( 'NONE', *, *, #100, .T. ) ;
#184 = VECTOR ( 'NONE', #310, 1000.000000000000000 ) ;
#185 = ORIENTED_EDGE ( 'NONE', *, *, #303, .T. ) ;
#186 = EDGE_LOOP ( 'NONE', ( #241, #114, #214, #339 ) ) ;
#187 = CARTESIAN_POINT ( 'NONE',  ( -17.50000000000000000, -3.899999999999999911, 10.00000000000000000 ) ) ;
#188 = CARTESIAN_POINT ( 'NONE',  ( 3.842640687119284859, -3.499999999999999556, 0.000000000000000000 ) ) ;
#189 = EDGE_LOOP ( 'NONE', ( #269, #219, #27, #152 ) ) ;
#190 = CARTESIAN_POINT ( 'NONE',  ( -4.416729559300642372, 2.549999999999987388, 10.00000000000000000 ) ) ;
#191 = VERTEX_POINT ( 'NONE', #104 ) ;
#192 = AXIS2_PLACEMENT_3D ( 'NONE', #242, #63, #157 ) ;
#193 = PRESENTATION_LAYER_ASSIGNMENT (  '', '', ( #341 ) ) ;
#194 = CARTESIAN_POINT ( 'NONE',  ( 0.000000000000000000, 0.000000000000000000, 10.00000000000000000 ) ) ;
#195 = DIRECTION ( 'NONE',  ( -1.000000000000000000, 0.000000000000000000, 0.000000000000000000 ) ) ;
#196 = CARTESIAN_POINT ( 'NONE',  ( -17.50000000000000000, -5.099999999999999645, 10.00000000000000000 ) ) ;
#197 =( NAMED_UNIT ( * ) PLANE_ANGLE_UNIT ( ) SI_UNIT ( $, .RADIAN. ) );
#198 = LINE ( 'NONE', #291, #324 ) ;
#199 = EDGE_CURVE ( 'NONE', #91, #5, #282, .T. ) ;
#200 = LINE ( 'NONE', #196, #224 ) ;
#201 = AXIS2_PLACEMENT_3D ( 'NONE', #44, #205, #118 ) ;
#202 = CARTESIAN_POINT ( 'NONE',  ( 4.242640687119284770, -3.499999999999999556, 0.000000000000000000 ) ) ;
#203 = DIRECTION ( 'NONE',  ( -0.000000000000000000, 0.000000000000000000, -1.000000000000000000 ) ) ;
#204 = CARTESIAN_POINT ( 'NONE',  ( 0.000000000000000000, 0.000000000000000000, 10.00000000000000000 ) ) ;
#205 = DIRECTION ( 'NONE',  ( 0.000000000000000000, 0.000000000000000000, 1.000000000000000000 ) ) ;
#206 = LINE ( 'NONE', #375, #40 ) ;
#207 = ORIENTED_EDGE ( 'NONE', *, *, #90, .F. ) ;
#208 = ORIENTED_EDGE ( 'NONE', *, *, #306, .F. ) ;
#209 = EDGE_CURVE ( 'NONE', #249, #191, #225, .T. ) ;
#210 = AXIS2_PLACEMENT_3D ( 'NONE', #276, #123, #36 ) ;
#211 = ORIENTED_EDGE ( 'NONE', *, *, #209, .F. ) ;
#212 = VERTEX_POINT ( 'NONE', #13 ) ;
#213 = ADVANCED_FACE ( 'NONE', ( #252 ), #342, .F. ) ;
#214 = ORIENTED_EDGE ( 'NONE', *, *, #287, .T. ) ;
#215 = VECTOR ( 'NONE', #145, 1000.000000000000000 ) ;
#216 = MECHANICAL_DESIGN_GEOMETRIC_PRESENTATION_REPRESENTATION (  '', ( #341 ), #2 ) ;
#217 = CARTESIAN_POINT ( 'NONE',  ( 4.242640687119284770, -3.499999999999999556, 10.00000000000000000 ) ) ;
#218 = CARTESIAN_POINT ( 'NONE',  ( 17.50000000000000000, -5.099999999999992539, 10.00000000000000000 ) ) ;
#219 = ORIENTED_EDGE ( 'NONE', *, *, #360, .F. ) ;
#220 = ORIENTED_EDGE ( 'NONE', *, *, #357, .T. ) ;
#221 = ORIENTED_EDGE ( 'NONE', *, *, #287, .F. ) ;
#222 = EDGE_CURVE ( 'NONE', #191, #5, #311, .T. ) ;
#223 = DIRECTION ( 'NONE',  ( -0.000000000000000000, -0.000000000000000000, -1.000000000000000000 ) ) ;
#224 = VECTOR ( 'NONE', #223, 1000.000000000000000 ) ;
#225 = LINE ( 'NONE', #134, #82 ) ;
#226 = LINE ( 'NONE', #84, #56 ) ;
#227 = DIRECTION ( 'NONE',  ( 0.000000000000000000, -0.000000000000000000, -1.000000000000000000 ) ) ;
#228 = LINE ( 'NONE', #166, #164 ) ;
#229 = DIRECTION ( 'NONE',  ( 0.000000000000000000, 1.000000000000000000, -0.000000000000000000 ) ) ;
#230 = LINE ( 'NONE', #142, #105 ) ;
#231 = VECTOR ( 'NONE', #229, 1000.000000000000000 ) ;
#232 = LINE ( 'NONE', #260, #125 ) ;
#233 = LINE ( 'NONE', #379, #244 ) ;
#234 = ORIENTED_EDGE ( 'NONE', *, *, #280, .T. ) ;
#235 = CARTESIAN_POINT ( 'NONE',  ( -4.416729559300642372, 2.549999999999987388, 10.00000000000000000 ) ) ;
#236 = EDGE_CURVE ( 'NONE', #266, #31, #174, .T. ) ;
#237 = ORIENTED_EDGE ( 'NONE', *, *, #357, .F. ) ;
#238 = ORIENTED_EDGE ( 'NONE', *, *, #268, .F. ) ;
#239 = LINE ( 'NONE', #78, #88 ) ;
#240 = ORIENTED_EDGE ( 'NONE', *, *, #172, .T. ) ;
#241 = ORIENTED_EDGE ( 'NONE', *, *, #172, .F. ) ;
#242 = CARTESIAN_POINT ( 'NONE',  ( 17.50000000000000000, 0.000000000000000000, 10.00000000000000000 ) ) ;
#243 = AXIS2_PLACEMENT_3D ( 'NONE', #286, #111, #371 ) ;
#244 = VECTOR ( 'NONE', #110, 1000.000000000000000 ) ;
#245 = CARTESIAN_POINT ( 'NONE',  ( 1.786100450945549084E-15, -3.900000000000001243, 10.00000000000000000 ) ) ;
#246 = ORIENTED_EDGE ( 'NONE', *, *, #222, .F. ) ;
#247 = VERTEX_POINT ( 'NONE', #292 ) ;
#248 = VECTOR ( 'NONE', #115, 1000.000000000000000 ) ;
#249 = VERTEX_POINT ( 'NONE', #235 ) ;
#250 = CARTESIAN_POINT ( 'NONE',  ( 4.242640687119284770, -3.499999999999999556, 10.00000000000000000 ) ) ;
#251 = EDGE_CURVE ( 'NONE', #91, #35, #285, .T. ) ;
#252 = FACE_OUTER_BOUND ( 'NONE', #388, .T. ) ;
#253 = VECTOR ( 'NONE', #347, 1000.000000000000000 ) ;
#254 = FACE_OUTER_BOUND ( 'NONE', #153, .T. ) ;
#255 = DIRECTION ( 'NONE',  ( 0.4999999999999978351, 0.8660254037844399289, -0.000000000000000000 ) ) ;
#256 = CYLINDRICAL_SURFACE ( 'NONE', #165, 3.899999999999999911 ) ;
#257 = CARTESIAN_POINT ( 'NONE',  ( 3.934085000783336561, -3.245454545454543815, 10.00000000000000000 ) ) ;
#258 = FACE_OUTER_BOUND ( 'NONE', #390, .T. ) ;
#259 = DIRECTION ( 'NONE',  ( 0.000000000000000000, 1.000000000000000000, 0.000000000000000000 ) ) ;
#260 = CARTESIAN_POINT ( 'NONE',  ( 8.847089727481708293E-16, -5.099999999999996092, 0.000000000000000000 ) ) ;
#261 = CARTESIAN_POINT ( 'NONE',  ( 4.242640687119283882, -3.899999999999999467, 0.000000000000000000 ) ) ;
#262 = CARTESIAN_POINT ( 'NONE',  ( -3.377499074759315878, 1.949999999999990630, 10.00000000000000000 ) ) ;
#263 = SHAPE_DEFINITION_REPRESENTATION ( #67, #175 ) ;
#264 = DIRECTION ( 'NONE',  ( -0.000000000000000000, -0.000000000000000000, -1.000000000000000000 ) ) ;
#265 = EDGE_CURVE ( 'NONE', #5, #212, #349, .T. ) ;
#266 = VERTEX_POINT ( 'NONE', #112 ) ;
#267 = EDGE_LOOP ( 'NONE', ( #53, #92, #73, #87, #271, #301, #295, #60, #221, #7 ) ) ;
#268 = EDGE_CURVE ( 'NONE', #31, #247, #107, .T. ) ;
#269 = ORIENTED_EDGE ( 'NONE', *, *, #265, .T. ) ;
#270 = VECTOR ( 'NONE', #133, 1000.000000000000000 ) ;
#271 = ORIENTED_EDGE ( 'NONE', *, *, #280, .F. ) ;
#272 = VERTEX_POINT ( 'NONE', #281 ) ;
#273 = EDGE_CURVE ( 'NONE', #249, #91, #52, .T. ) ;
#274 = VERTEX_POINT ( 'NONE', #387 ) ;
#275 = ORIENTED_EDGE ( 'NONE', *, *, #19, .T. ) ;
#276 = CARTESIAN_POINT ( 'NONE',  ( 0.000000000000000000, 0.000000000000000000, 10.00000000000000000 ) ) ;
#277 = DIRECTION ( 'NONE',  ( 1.000000000000000000, 4.579744746014227105E-16, 0.000000000000000000 ) ) ;
#278 = ORIENTED_EDGE ( 'NONE', *, *, #199, .F. ) ;
#279 = APPLICATION_CONTEXT ( 'automotive_design' ) ;
#280 = EDGE_CURVE ( 'NONE', #85, #97, #353, .T. ) ;
#281 = CARTESIAN_POINT ( 'NONE',  ( 17.50000000000000000, -3.899999999999996358, 0.000000000000000000 ) ) ;
#282 = LINE ( 'NONE', #11, #131 ) ;
#283 = DIRECTION ( 'NONE',  ( 0.8660254037844399289, -0.4999999999999978351, 0.000000000000000000 ) ) ;
#284 = DIRECTION ( 'NONE',  ( 1.000000000000000000, 4.579744746014227105E-16, 0.000000000000000000 ) ) ;
#285 = CIRCLE ( 'NONE', #120, 5.099999999999998757 ) ;
#286 = CARTESIAN_POINT ( 'NONE',  ( 8.847089727481708293E-16, -5.099999999999996092, 10.00000000000000000 ) ) ;
#287 = EDGE_CURVE ( 'NONE', #299, #247, #206, .T. ) ;
#288 = PLANE ( 'NONE',  #47 ) ;
#289 = DIRECTION ( 'NONE',  ( -0.000000000000000000, 0.000000000000000000, 1.000000000000000000 ) ) ;
#290 = DIRECTION ( 'NONE',  ( 1.000000000000000000, 1.734723475976807094E-16, 0.000000000000000000 ) ) ;
#291 = CARTESIAN_POINT ( 'NONE',  ( -17.50000000000000000, 0.000000000000000000, 0.000000000000000000 ) ) ;
#292 = CARTESIAN_POINT ( 'NONE',  ( 17.50000000000000000, -3.899999999999996358, 10.00000000000000000 ) ) ;
#293 = ADVANCED_FACE ( 'NONE', ( #258 ), #37, .F. ) ;
#294 = CARTESIAN_POINT ( 'NONE',  ( -6.505213034912998994E-16, -1.126735949052871098E-15, 10.00000000000000000 ) ) ;
#295 = ORIENTED_EDGE ( 'NONE', *, *, #236, .T. ) ;
#296 = PRESENTATION_STYLE_ASSIGNMENT (( #381 ) ) ;
#297 = ORIENTED_EDGE ( 'NONE', *, *, #136, .F. ) ;
#298 = FILL_AREA_STYLE ('',( #176 ) ) ;
#299 = VERTEX_POINT ( 'NONE', #72 ) ;
#300 = AXIS2_PLACEMENT_3D ( 'NONE', #250, #350, #374 ) ;
#301 = ORIENTED_EDGE ( 'NONE', *, *, #116, .T. ) ;
#302 = ORIENTED_EDGE ( 'NONE', *, *, #199, .T. ) ;
#303 = EDGE_CURVE ( 'NONE', #89, #212, #338, .T. ) ;
#304 = VERTEX_POINT ( 'NONE', #261 ) ;
#305 = CARTESIAN_POINT ( 'NONE',  ( 3.934085000783336561, -3.245454545454543815, 0.000000000000000000 ) ) ;
#306 = EDGE_CURVE ( 'NONE', #391, #35, #308, .T. ) ;
#307 = DIRECTION ( 'NONE',  ( -0.000000000000000000, 0.000000000000000000, 1.000000000000000000 ) ) ;
#308 = LINE ( 'NONE', #177, #336 ) ;
#309 = CARTESIAN_POINT ( 'NONE',  ( -3.377499074759315878, 1.949999999999990630, 0.000000000000000000 ) ) ;
#310 = DIRECTION ( 'NONE',  ( 0.000000000000000000, -1.000000000000000000, 0.000000000000000000 ) ) ;
#311 = LINE ( 'NONE', #262, #215 ) ;
#312 = CARTESIAN_POINT ( 'NONE',  ( -17.50000000000000000, 0.000000000000000000, 10.00000000000000000 ) ) ;
#313 = CARTESIAN_POINT ( 'NONE',  ( 0.000000000000000000, 0.000000000000000000, 0.000000000000000000 ) ) ;
#314 = AXIS2_PLACEMENT_3D ( 'NONE', #217, #307, #162 ) ;
#315 = LINE ( 'NONE', #312, #184 ) ;
#316 = SURFACE_STYLE_FILL_AREA ( #298 ) ;
#317 = DIRECTION ( 'NONE',  ( 0.000000000000000000, -0.000000000000000000, -1.000000000000000000 ) ) ;
#318 = CARTESIAN_POINT ( 'NONE',  ( 0.000000000000000000, -3.899999999999999911, 10.00000000000000000 ) ) ;
#319 = DIRECTION ( 'NONE',  ( -0.000000000000000000, 0.000000000000000000, 1.000000000000000000 ) ) ;
#320 = EDGE_LOOP ( 'NONE', ( #327, #334, #234, #128 ) ) ;
#321 = DIRECTION ( 'NONE',  ( -0.000000000000000000, -0.000000000000000000, -1.000000000000000000 ) ) ;
#322 = ADVANCED_FACE ( 'NONE', ( #163 ), #288, .F. ) ;
#323 = AXIS2_PLACEMENT_3D ( 'NONE', #204, #74, #340 ) ;
#324 = VECTOR ( 'NONE', #144, 1000.000000000000000 ) ;
#325 = ORIENTED_EDGE ( 'NONE', *, *, #28, .T. ) ;
#326 = EDGE_LOOP ( 'NONE', ( #4, #355, #102, #182 ) ) ;
#327 = ORIENTED_EDGE ( 'NONE', *, *, #303, .F. ) ;
#328 = ORIENTED_EDGE ( 'NONE', *, *, #273, .T. ) ;
#329 = VECTOR ( 'NONE', #346, 1000.000000000000000 ) ;
#330 = DIRECTION ( 'NONE',  ( -0.000000000000000000, -0.000000000000000000, -1.000000000000000000 ) ) ;
#331 = EDGE_CURVE ( 'NONE', #249, #391, #167, .T. ) ;
#332 = ORIENTED_EDGE ( 'NONE', *, *, #265, .F. ) ;
#333 = FACE_OUTER_BOUND ( 'NONE', #122, .T. ) ;
#334 = ORIENTED_EDGE ( 'NONE', *, *, #96, .F. ) ;
#335 = ADVANCED_FACE ( 'NONE', ( #46 ), #79, .T. ) ;
#336 = VECTOR ( 'NONE', #264, 1000.000000000000000 ) ;
#337 = EDGE_LOOP ( 'NONE', ( #356, #297, #155, #183 ) ) ;
#338 = LINE ( 'NONE', #49, #253 ) ;
#339 = ORIENTED_EDGE ( 'NONE', *, *, #12, .T. ) ;
#340 = DIRECTION ( 'NONE',  ( 1.000000000000000000, 0.000000000000000000, 0.000000000000000000 ) ) ;
#341 = STYLED_ITEM ( 'NONE', ( #296 ), #385 ) ;
#342 = CYLINDRICAL_SURFACE ( 'NONE', #124, 0.4000000000000001887 ) ;
#343 = EDGE_CURVE ( 'NONE', #89, #57, #198, .T. ) ;
#344 = PLANE ( 'NONE',  #323 ) ;
#345 = DIRECTION ( 'NONE',  ( 1.000000000000000000, 0.000000000000000000, 0.000000000000000000 ) ) ;
#346 = DIRECTION ( 'NONE',  ( -0.000000000000000000, -0.000000000000000000, -1.000000000000000000 ) ) ;
#347 = DIRECTION ( 'NONE',  ( 1.000000000000000000, 0.000000000000000000, 0.000000000000000000 ) ) ;
#348 = EDGE_CURVE ( 'NONE', #299, #304, #233, .T. ) ;
#349 = CIRCLE ( 'NONE', #8, 3.899999999999999911 ) ;
#350 = DIRECTION ( 'NONE',  ( -0.000000000000000000, -0.000000000000000000, -1.000000000000000000 ) ) ;
#351 = DIRECTION ( 'NONE',  ( 1.000000000000000000, 0.000000000000000000, 0.000000000000000000 ) ) ;
#352 = ORIENTED_EDGE ( 'NONE', *, *, #372, .F. ) ;
#353 = LINE ( 'NONE', #86, #270 ) ;
#354 = ORIENTED_EDGE ( 'NONE', *, *, #251, .T. ) ;
#355 = ORIENTED_EDGE ( 'NONE', *, *, #273, .F. ) ;
#356 = ORIENTED_EDGE ( 'NONE', *, *, #372, .T. ) ;
#357 = EDGE_CURVE ( 'NONE', #62, #29, #83, .T. ) ;
#358 = ORIENTED_EDGE ( 'NONE', *, *, #343, .T. ) ;
#359 = PRODUCT_DEFINITION_CONTEXT ( 'detailed design', #3, 'design' ) ;
#360 = EDGE_CURVE ( 'NONE', #97, #212, #239, .T. ) ;
#361 = CIRCLE ( 'NONE', #314, 0.4000000000000001887 ) ;
#362 = CARTESIAN_POINT ( 'NONE',  ( 4.242640687119284770, -3.499999999999999556, 10.00000000000000000 ) ) ;
#363 = COLOUR_RGB ( '',0.7921568627450980005, 0.8196078431372548767, 0.9333333333333333481 ) ;
#364 = DIRECTION ( 'NONE',  ( -4.579744746014227105E-16, 1.000000000000000000, 0.000000000000000000 ) ) ;
#365 = DIRECTION ( 'NONE',  ( 1.000000000000000000, 0.000000000000000000, 0.000000000000000000 ) ) ;
#366 = ORIENTED_EDGE ( 'NONE', *, *, #377, .T. ) ;
#367 = AXIS2_PLACEMENT_3D ( 'NONE', #245, #364, #95 ) ;
#368 = UNCERTAINTY_MEASURE_WITH_UNIT (LENGTH_MEASURE( 1.000000000000000082E-05 ), #109, 'distance_accuracy_value', 'NONE');
#369 = DIRECTION ( 'NONE',  ( -0.000000000000000000, -0.000000000000000000, -1.000000000000000000 ) ) ;
#370 = PLANE ( 'NONE',  #192 ) ;
#371 = DIRECTION ( 'NONE',  ( -1.000000000000000000, -1.734723475976807094E-16, 0.000000000000000000 ) ) ;
#372 = EDGE_CURVE ( 'NONE', #57, #274, #232, .T. ) ;
#373 = DIRECTION ( 'NONE',  ( -0.000000000000000000, -0.000000000000000000, -1.000000000000000000 ) ) ;
#374 = DIRECTION ( 'NONE',  ( -1.000000000000000000, 0.000000000000000000, 0.000000000000000000 ) ) ;
#375 = CARTESIAN_POINT ( 'NONE',  ( 1.786100450945549084E-15, -3.900000000000001243, 10.00000000000000000 ) ) ;
#376 = DIRECTION ( 'NONE',  ( -1.000000000000000000, 0.000000000000000000, 0.000000000000000000 ) ) ;
#377 = EDGE_CURVE ( 'NONE', #29, #304, #384, .T. ) ;
#378 = PRODUCT_CONTEXT ( 'NONE', #279, 'mechanical' ) ;
#379 = CARTESIAN_POINT ( 'NONE',  ( 4.242640687119283882, -3.899999999999999467, 10.00000000000000000 ) ) ;
#380 = PLANE ( 'NONE',  #243 ) ;
#381 = SURFACE_STYLE_USAGE ( .BOTH. , #30 ) ;
#382 = CARTESIAN_POINT ( 'NONE',  ( 17.50000000000000000, 0.000000000000000000, 10.00000000000000000 ) ) ;
#383 = AXIS2_PLACEMENT_3D ( 'NONE', #66, #93, #32 ) ;
#384 = CIRCLE ( 'NONE', #15, 0.4000000000000001887 ) ;
#385 = MANIFOLD_SOLID_BREP ( 'Boss-Extrude1', #158 ) ;
#386 = ORIENTED_EDGE ( 'NONE', *, *, #12, .F. ) ;
#387 = CARTESIAN_POINT ( 'NONE',  ( 17.50000000000000000, -5.099999999999992539, 0.000000000000000000 ) ) ;
#388 = EDGE_LOOP ( 'NONE', ( #154, #220, #34, #208 ) ) ;
#389 = EDGE_LOOP ( 'NONE', ( #275, #366, #240, #207, #352, #38, #185, #332, #278, #354 ) ) ;
#390 = EDGE_LOOP ( 'NONE', ( #358, #117, #159, #150 ) ) ;
#391 = VERTEX_POINT ( 'NONE', #257 ) ;
#392 = PRODUCT_RELATED_PRODUCT_CATEGORY ( 'part', '', ( #70 ) ) ;
#393 = CARTESIAN_POINT ( 'NONE',  ( 17.50000000000000000, -3.899999999999996358, 10.00000000000000000 ) ) ;
ENDSEC;
END-ISO-10303-21;
