ISO-10303-21;
HEADER;
FILE_DESCRIPTION (( 'STEP AP214' ),
    '1' );
FILE_NAME ('Big pod hinge arm.STEP',
    '2026-06-16T17:14:05',
    ( '' ),
    ( '' ),
    'SwSTEP 2.0',
    'SolidWorks 2024',
    '' );
FILE_SCHEMA (( 'AUTOMOTIVE_DESIGN' ));
ENDSEC;

DATA;
#1 = DIRECTION ( 'NONE',  ( 1.000000000000000000, 0.000000000000000000, 0.000000000000000000 ) ) ;
#2 = EDGE_CURVE ( 'NONE', #83, #182, #271, .T. ) ;
#3 = ORIENTED_EDGE ( 'NONE', *, *, #486, .T. ) ;
#4 = LINE ( 'NONE', #622, #433 ) ;
#5 = CARTESIAN_POINT ( 'NONE',  ( 21.74314647826420099, -63.25072303775425553, -680.3169142812776045 ) ) ;
#6 = DIRECTION ( 'NONE',  ( 0.000000000000000000, 0.000000000000000000, -1.000000000000000000 ) ) ;
#7 = CARTESIAN_POINT ( 'NONE',  ( 50.44556384399903948, -91.84200650954643663, -681.4407995600636241 ) ) ;
#8 = LINE ( 'NONE', #286, #546 ) ;
#9 = CYLINDRICAL_SURFACE ( 'NONE', #474, 3.000000000000113687 ) ;
#10 = FACE_BOUND ( 'NONE', #563, .T. ) ;
#11 = DIRECTION ( 'NONE',  ( -1.000000000000000000, -0.000000000000000000, -0.000000000000000000 ) ) ;
#12 = SURFACE_STYLE_USAGE ( .BOTH. , #507 ) ;
#13 = VECTOR ( 'NONE', #114, 1000.000000000000114 ) ;
#14 = AXIS2_PLACEMENT_3D ( 'NONE', #317, #450, #444 ) ;
#15 = ORIENTED_EDGE ( 'NONE', *, *, #274, .T. ) ;
#16 = CARTESIAN_POINT ( 'NONE',  ( 21.47139460079169027, -53.55897330072283324, -672.7781487835632106 ) ) ;
#17 = ADVANCED_FACE ( 'NONE', ( #171 ), #398, .T. ) ;
#18 = CARTESIAN_POINT ( 'NONE',  ( 37.69341875774488670, -74.86097905864609459, -672.7781487835633243 ) ) ;
#19 = ORIENTED_EDGE ( 'NONE', *, *, #274, .F. ) ;
#20 = CARTESIAN_POINT ( 'NONE',  ( 49.98232245397358042, -85.84212046838905508, -672.7781487835632106 ) ) ;
#21 = VERTEX_POINT ( 'NONE', #123 ) ;
#22 = CARTESIAN_POINT ( 'NONE',  ( 23.46310653968233595, -60.47235737795592314, -679.9131117342490143 ) ) ;
#23 = CARTESIAN_POINT ( 'NONE',  ( 50.44556384399903948, -88.01839282345285653, -684.1034503365640376 ) ) ;
#24 = ADVANCED_FACE ( 'NONE', ( #10, #229 ), #445, .T. ) ;
#25 = AXIS2_PLACEMENT_3D ( 'NONE', #7, #291, #185 ) ;
#26 = VECTOR ( 'NONE', #326, 1000.000000000000000 ) ;
#27 = CARTESIAN_POINT ( 'NONE',  ( 36.79199193461356288, -74.33489963412267798, -681.9278680898752327 ) ) ;
#28 = CARTESIAN_POINT ( 'NONE',  ( 33.69251619064017689, -72.58508926106182457, -684.1034503365640376 ) ) ;
#29 = CARTESIAN_POINT ( 'NONE',  ( 53.28277958155394600, -86.75364667486675785, -683.7327859084753072 ) ) ;
#30 = CARTESIAN_POINT ( 'NONE',  ( 42.17538860269721823, -77.57443597888612885, -682.3986963347440451 ) ) ;
#31 = CARTESIAN_POINT ( 'NONE',  ( 39.66282151603108019, -75.97973119069739312, -684.1034503365640376 ) ) ;
#32 = APPLICATION_CONTEXT ( 'automotive_design' ) ;
#33 = CARTESIAN_POINT ( 'NONE',  ( 22.39733051303543832, -64.07316482298740823, -674.3734080680859506 ) ) ;
#34 = CARTESIAN_POINT ( 'NONE',  ( 50.44556384399901816, -88.31537205490332099, -683.9597641983892800 ) ) ;
#35 = CIRCLE ( 'NONE', #145, 1.249999999999973355 ) ;
#36 = CARTESIAN_POINT ( 'NONE',  ( 21.47139460079169027, -50.55897330072291851, -675.4407995600636241 ) ) ;
#37 = CARTESIAN_POINT ( 'NONE',  ( 21.43311944244076983, -62.82669201251115965, -674.1922480059114378 ) ) ;
#38 = CARTESIAN_POINT ( 'NONE',  ( 40.40531868887112665, -76.45673235132690593, -682.2362513484121109 ) ) ;
#39 = CARTESIAN_POINT ( 'NONE',  ( 44.72867010830124457, -79.39259244769277757, -676.5999054594788049 ) ) ;
#40 = FACE_OUTER_BOUND ( 'NONE', #275, .T. ) ;
#41 = CARTESIAN_POINT ( 'NONE',  ( 22.39733051303544542, -64.07316482298737981, -680.4364464553416383 ) ) ;
#42 = CARTESIAN_POINT ( 'NONE',  ( 53.44556384399903948, -88.84200650954652190, -684.0363042799257300 ) ) ;
#43 = ORIENTED_EDGE ( 'NONE', *, *, #189, .F. ) ;
#44 = CARTESIAN_POINT ( 'NONE',  ( 22.70362988125739534, -59.11041700726487136, -673.6521314423175681 ) ) ;
#45 = AXIS2_PLACEMENT_3D ( 'NONE', #233, #608, #127 ) ;
#46 = AXIS2_PLACEMENT_3D ( 'NONE', #455, #403, #582 ) ;
#47 = DIRECTION ( 'NONE',  ( 0.000000000000000000, 0.000000000000000000, -1.000000000000000000 ) ) ;
#48 = ORIENTED_EDGE ( 'NONE', *, *, #399, .F. ) ;
#49 = CARTESIAN_POINT ( 'NONE',  ( 52.46160216243895036, -84.02083608369486001, -677.2725658639491257 ) ) ;
#50 = CARTESIAN_POINT ( 'NONE',  ( 53.44556384399903948, -88.84200650954652190, -678.4407995600636241 ) ) ;
#51 = MANIFOLD_SOLID_BREP ( 'Cut-Extrude16', #352 ) ;
#52 = ORIENTED_EDGE ( 'NONE', *, *, #420, .F. ) ;
#53 = DIRECTION ( 'NONE',  ( 1.000000000000000000, 0.000000000000000000, 0.000000000000000000 ) ) ;
#54 = CARTESIAN_POINT ( 'NONE',  ( 48.28383715586824110, -78.45979825171984601, -676.4643348693157350 ) ) ;
#55 = AXIS2_PLACEMENT_3D ( 'NONE', #471, #488, #634 ) ;
#56 = DIRECTION ( 'NONE',  ( 0.000000000000000000, 0.000000000000000000, -1.000000000000000000 ) ) ;
#57 = CARTESIAN_POINT ( 'NONE',  ( 21.47139460079169027, -53.55897330072283324, -678.9083332274572058 ) ) ;
#58 = VERTEX_POINT ( 'NONE', #539 ) ;
#59 = FACE_OUTER_BOUND ( 'NONE', #222, .T. ) ;
#60 = CARTESIAN_POINT ( 'NONE',  ( 21.43311944244078049, -62.82669201251115965, -680.2552863931670117 ) ) ;
#61 = EDGE_CURVE ( 'NONE', #382, #377, #335, .T. ) ;
#62 = CARTESIAN_POINT ( 'NONE',  ( 71.60594210533972159, -91.84200650954643663, -681.4407995600636241 ) ) ;
#63 = VECTOR ( 'NONE', #69, 1000.000000000000000 ) ;
#64 = ORIENTED_EDGE ( 'NONE', *, *, #470, .F. ) ;
#65 = CARTESIAN_POINT ( 'NONE',  ( 30.21956289101898463, -66.92714984513028753, -680.8512393811963648 ) ) ;
#66 = CARTESIAN_POINT ( 'NONE',  ( 53.44556384399902527, -88.31640954674342936, -677.8968765982871219 ) ) ;
#67 = DIRECTION ( 'NONE',  ( -1.000000000000000000, -0.000000000000000000, -0.000000000000000000 ) ) ;
#68 = ORIENTED_EDGE ( 'NONE', *, *, #498, .T. ) ;
#69 = DIRECTION ( 'NONE',  ( -1.000000000000000000, -0.000000000000000000, -0.000000000000000000 ) ) ;
#70 = ORIENTED_EDGE ( 'NONE', *, *, #684, .T. ) ;
#71 = EDGE_CURVE ( 'NONE', #58, #382, #443, .T. ) ;
#72 = APPLICATION_CONTEXT ( 'automotive_design' ) ;
#73 = CARTESIAN_POINT ( 'NONE',  ( 49.71639240184569530, -85.16726530085917091, -672.7781487835630969 ) ) ;
#74 = FILL_AREA_STYLE_COLOUR ( '', #143 ) ;
#75 = AXIS2_PLACEMENT_3D ( 'NONE', #167, #592, #430 ) ;
#76 = CARTESIAN_POINT ( 'NONE',  ( 48.28383715586824110, -78.45979825171988864, -682.5273732565714226 ) ) ;
#77 = VECTOR ( 'NONE', #322, 1000.000000000000000 ) ;
#78 = DIRECTION ( 'NONE',  ( 1.000000000000000000, 0.000000000000000000, 0.000000000000000000 ) ) ;
#79 = CARTESIAN_POINT ( 'NONE',  ( 23.42621352513496191, -65.23957919711162390, -672.7781487835634380 ) ) ;
#80 = VERTEX_POINT ( 'NONE', #621 ) ;
#81 = EDGE_CURVE ( 'NONE', #514, #83, #618, .T. ) ;
#82 = DIRECTION ( 'NONE',  ( -1.000000000000000000, -0.000000000000000000, -0.000000000000000000 ) ) ;
#83 = VERTEX_POINT ( 'NONE', #524 ) ;
#84 = CARTESIAN_POINT ( 'NONE',  ( 21.25104723735807966, -62.61235134835317950, -672.7781487835634380 ) ) ;
#85 = CARTESIAN_POINT ( 'NONE',  ( 53.18442380038801076, -86.24392673976053914, -683.6587041520509729 ) ) ;
#86 = STYLED_ITEM ( 'NONE', ( #574 ), #51 ) ;
#87 = VECTOR ( 'NONE', #669, 1000.000000000000114 ) ;
#88 = CARTESIAN_POINT ( 'NONE',  ( 22.20480350028521244, -57.90235175927198696, -679.5395918517807559 ) ) ;
#89 = FACE_OUTER_BOUND ( 'NONE', #214, .T. ) ;
#90 = FACE_OUTER_BOUND ( 'NONE', #135, .T. ) ;
#91 = CARTESIAN_POINT ( 'NONE',  ( 48.73176061123924541, -83.43957242464828994, -683.2511244617318198 ) ) ;
#92 = EDGE_CURVE ( 'NONE', #327, #182, #436, .T. ) ;
#93 = LINE ( 'NONE', #694, #175 ) ;
#94 = CARTESIAN_POINT ( 'NONE',  ( 52.12694010441390446, -83.30771562909085048, -683.2319606379559218 ) ) ;
#95 = CARTESIAN_POINT ( 'NONE',  ( 71.60494210533971682, -91.84200650954643663, -681.4407995600636241 ) ) ;
#96 = CARTESIAN_POINT ( 'NONE',  ( 24.50986183726341494, -66.37938527240235942, -680.7716282872211195 ) ) ;
#97 = CARTESIAN_POINT ( 'NONE',  ( 39.50615125463373545, -75.91880625181831022, -682.1580701600115617 ) ) ;
#98 = CARTESIAN_POINT ( 'NONE',  ( 18.47139460079169027, -54.60810068140090578, -672.9977730811345964 ) ) ;
#99 = DIRECTION ( 'NONE',  ( 0.000000000000000000, 0.000000000000000000, -1.000000000000000000 ) ) ;
#100 = EDGE_CURVE ( 'NONE', #338, #327, #613, .T. ) ;
#101 = DIRECTION ( 'NONE',  ( 1.000000000000000000, 0.000000000000000000, 0.000000000000000000 ) ) ;
#102 = VERTEX_POINT ( 'NONE', #709 ) ;
#103 = CARTESIAN_POINT ( 'NONE',  ( 49.40827881510559649, -79.55262785854144170, -676.6231647112939527 ) ) ;
#104 = CARTESIAN_POINT ( 'NONE',  ( 18.86249556935936766, -57.16687566945832799, -679.4326991116913632 ) ) ;
#105 = CARTESIAN_POINT ( 'NONE',  ( 53.44556384399903948, -91.41052534853420752, -684.4096080765718852 ) ) ;
#106 = ORIENTED_EDGE ( 'NONE', *, *, #399, .T. ) ;
#107 = CYLINDRICAL_SURFACE ( 'NONE', #75, 1.249999999999973355 ) ;
#108 = VECTOR ( 'NONE', #122, 1000.000000000000114 ) ;
#109 = CARTESIAN_POINT ( 'NONE',  ( 18.98687057301607339, -57.67107273668896994, -673.4429397974167841 ) ) ;
#110 = ORIENTED_EDGE ( 'NONE', *, *, #409, .F. ) ;
#111 = CARTESIAN_POINT ( 'NONE',  ( 44.58043569605472811, -75.57017280189525366, -676.0443620293539198 ) ) ;
#112 = CARTESIAN_POINT ( 'NONE',  ( 18.98687057301606984, -57.67107273668896283, -679.5059781846719034 ) ) ;
#113 = CARTESIAN_POINT ( 'NONE',  ( 71.60494210533971682, -50.55897330072291851, -675.4407995600636241 ) ) ;
#114 = DIRECTION ( 'NONE',  ( 0.000000000000000000, -0.9896028388360627037, -0.1438270536707394742 ) ) ;
#115 = ORIENTED_EDGE ( 'NONE', *, *, #92, .T. ) ;
#116 = ADVANCED_FACE ( 'NONE', ( #59 ), #107, .F. ) ;
#117 = CARTESIAN_POINT ( 'NONE',  ( 19.46764174916552292, -59.16757560891898038, -679.7234771554471990 ) ) ;
#118 = DIRECTION ( 'NONE',  ( 1.000000000000000000, 0.000000000000000000, 0.000000000000000000 ) ) ;
#119 = ORIENTED_EDGE ( 'NONE', *, *, #575, .T. ) ;
#120 = ORIENTED_EDGE ( 'NONE', *, *, #304, .F. ) ;
#121 = EDGE_CURVE ( 'NONE', #648, #500, #571, .T. ) ;
#122 = DIRECTION ( 'NONE',  ( 0.000000000000000000, -0.9896028388360627037, -0.1438270536707394742 ) ) ;
#123 = CARTESIAN_POINT ( 'NONE',  ( 21.47139460079169027, -50.55897330072291851, -672.4407995600635104 ) ) ;
#124 = VERTEX_POINT ( 'NONE', #336 ) ;
#125 = CARTESIAN_POINT ( 'NONE',  ( 36.70600402212152602, -70.97360104329078467, -684.1034503365640376 ) ) ;
#126 = LINE ( 'NONE', #668, #63 ) ;
#127 = DIRECTION ( 'NONE',  ( 0.000000000000000000, 0.000000000000000000, -1.000000000000000000 ) ) ;
#128 = CARTESIAN_POINT ( 'NONE',  ( 53.44556384399903948, -88.84200650954652190, -677.9732658926700424 ) ) ;
#129 = CARTESIAN_POINT ( 'NONE',  ( 50.44556384399903948, -88.84200650954652190, -672.7781487835632106 ) ) ;
#130 = ORIENTED_EDGE ( 'NONE', *, *, #92, .F. ) ;
#131 = CARTESIAN_POINT ( 'NONE',  ( 21.47139460079169027, -50.55897330072291851, -675.4407995600636241 ) ) ;
#132 = CARTESIAN_POINT ( 'NONE',  ( 21.47139460079169027, -66.38001019673053804, -672.7781487835632106 ) ) ;
#133 = DIRECTION ( 'NONE',  ( 0.000000000000000000, 0.1438270536707394465, -0.9896028388360627037 ) ) ;
#134 = CARTESIAN_POINT ( 'NONE',  ( 21.96261913330284798, -57.15358886155547680, -679.4307680315060907 ) ) ;
#135 = EDGE_LOOP ( 'NONE', ( #164, #558, #584, #266 ) ) ;
#136 = CIRCLE ( 'NONE', #547, 1.249999999999973355 ) ;
#137 = CARTESIAN_POINT ( 'NONE',  ( 22.65109876265752575, -64.40883994086011910, -672.7781487835634380 ) ) ;
#138 = ORIENTED_EDGE ( 'NONE', *, *, #438, .T. ) ;
#139 = CARTESIAN_POINT ( 'NONE',  ( 25.90822223055862850, -67.57342365430407938, -672.7781487835633243 ) ) ;
#140 = AXIS2_PLACEMENT_3D ( 'NONE', #349, #82, #521 ) ;
#141 = CARTESIAN_POINT ( 'NONE',  ( 25.38722696903351661, -62.95627868881191347, -680.2741202819918271 ) ) ;
#142 = CARTESIAN_POINT ( 'NONE',  ( 31.66090973674126730, -71.42801845824962470, -672.7781487835633243 ) ) ;
#143 = COLOUR_RGB ( '',0.7921568627450980005, 0.8196078431372548767, 0.9333333333333333481 ) ;
#144 = DIRECTION ( 'NONE',  ( -1.000000000000000000, -0.000000000000000000, -0.000000000000000000 ) ) ;
#145 = AXIS2_PLACEMENT_3D ( 'NONE', #636, #101, #253 ) ;
#146 = CARTESIAN_POINT ( 'NONE',  ( 47.80308861636379447, -82.19518397086156369, -683.0702673361191728 ) ) ;
#147 = CARTESIAN_POINT ( 'NONE',  ( 26.12310409165874603, -67.69677862784179467, -680.9630958107593415 ) ) ;
#148 =( NAMED_UNIT ( * ) SI_UNIT ( $, .STERADIAN. ) SOLID_ANGLE_UNIT ( ) );
#149 = CARTESIAN_POINT ( 'NONE',  ( 26.12310409165874248, -67.69677862784180888, -674.9000574235039949 ) ) ;
#150 = CARTESIAN_POINT ( 'NONE',  ( 51.37458286202454616, -81.94335005212522560, -683.0336662582677718 ) ) ;
#151 = UNCERTAINTY_MEASURE_WITH_UNIT (LENGTH_MEASURE( 1.000000000000000082E-05 ), #261, 'distance_accuracy_value', 'NONE');
#152 = CARTESIAN_POINT ( 'NONE',  ( 21.47139460079169027, -50.55897330072291851, -676.6907995600636241 ) ) ;
#153 = CARTESIAN_POINT ( 'NONE',  ( 18.47139460079169382, -50.55897330072291851, -675.4407995600636241 ) ) ;
#154 = AXIS2_PLACEMENT_3D ( 'NONE', #553, #78, #345 ) ;
#155 = ADVANCED_FACE ( 'NONE', ( #281 ), #355, .T. ) ;
#156 = CARTESIAN_POINT ( 'NONE',  ( 24.37550903405773894, -61.75365862918722115, -674.0362953105907309 ) ) ;
#157 = DIRECTION ( 'NONE',  ( -1.000000000000000000, 0.000000000000000000, 0.000000000000000000 ) ) ;
#158 = ORIENTED_EDGE ( 'NONE', *, *, #296, .T. ) ;
#159 = SHAPE_DEFINITION_REPRESENTATION ( #200, #643 ) ;
#160 = LINE ( 'NONE', #585, #434 ) ;
#161 = ORIENTED_EDGE ( 'NONE', *, *, #389, .F. ) ;
#162 = CARTESIAN_POINT ( 'NONE',  ( 51.37458286202456037, -81.94335005212516876, -676.9706278710124252 ) ) ;
#163 = CARTESIAN_POINT ( 'NONE',  ( 47.09203949113682341, -81.44428293388419604, -676.8980943753675774 ) ) ;
#164 = ORIENTED_EDGE ( 'NONE', *, *, #296, .F. ) ;
#165 = DIRECTION ( 'NONE',  ( -1.000000000000000000, -0.000000000000000000, -0.000000000000000000 ) ) ;
#166 = ORIENTED_EDGE ( 'NONE', *, *, #498, .F. ) ;
#167 = CARTESIAN_POINT ( 'NONE',  ( 71.60494210533971682, -91.84200650954643663, -681.4407995600636241 ) ) ;
#168 = CARTESIAN_POINT ( 'NONE',  ( 53.44556384399903948, -88.84200650954652190, -677.9732658926700424 ) ) ;
#169 = ORIENTED_EDGE ( 'NONE', *, *, #420, .T. ) ;
#170 = CARTESIAN_POINT ( 'NONE',  ( 21.47139460079169027, -50.12749213971068940, -678.4096080765718852 ) ) ;
#171 = FACE_OUTER_BOUND ( 'NONE', #217, .T. ) ;
#172 = ORIENTED_EDGE ( 'NONE', *, *, #100, .F. ) ;
#173 = CARTESIAN_POINT ( 'NONE',  ( 52.92169593568755204, -85.24113085930211753, -677.4499212587577404 ) ) ;
#174 = LINE ( 'NONE', #665, #512 ) ;
#175 = VECTOR ( 'NONE', #47, 1000.000000000000000 ) ;
#176 = ORIENTED_EDGE ( 'NONE', *, *, #312, .T. ) ;
#177 = LINE ( 'NONE', #497, #26 ) ;
#178 = ORIENTED_EDGE ( 'NONE', *, *, #215, .F. ) ;
#179 = CARTESIAN_POINT ( 'NONE',  ( 53.44556384399903948, -88.84200650954652190, -684.0363042799257300 ) ) ;
#180 = VERTEX_POINT ( 'NONE', #675 ) ;
#181 = CARTESIAN_POINT ( 'NONE',  ( 43.27800276961225023, -78.27967915193069359, -684.1034503365641513 ) ) ;
#182 = VERTEX_POINT ( 'NONE', #339 ) ;
#183 = CARTESIAN_POINT ( 'NONE',  ( 18.47139460079169382, -50.55897330072291851, -676.6907995600636241 ) ) ;
#184 = CARTESIAN_POINT ( 'NONE',  ( 44.92132001468946356, -79.46195165809007221, -684.1034503365640376 ) ) ;
#185 = DIRECTION ( 'NONE',  ( 0.000000000000000000, 0.000000000000000000, -1.000000000000000000 ) ) ;
#186 = AXIS2_PLACEMENT_3D ( 'NONE', #131, #410, #99 ) ;
#187 = EDGE_CURVE ( 'NONE', #514, #377, #405, .T. ) ;
#188 = CARTESIAN_POINT ( 'NONE',  ( 44.92132001468946356, -79.46195165809007221, -672.7781487835632106 ) ) ;
#189 = EDGE_CURVE ( 'NONE', #180, #285, #8, .T. ) ;
#190 = CARTESIAN_POINT ( 'NONE',  ( 20.62631772154679055, -61.64588256564014301, -684.1034503365641513 ) ) ;
#191 = AXIS2_PLACEMENT_3D ( 'NONE', #248, #299, #581 ) ;
#192 = CARTESIAN_POINT ( 'NONE',  ( 71.60594210533972159, -92.27348767055867995, -678.4719910435553629 ) ) ;
#193 = CARTESIAN_POINT ( 'NONE',  ( 47.09203949113681631, -81.44428293388412499, -682.9611327626232651 ) ) ;
#194 = EDGE_CURVE ( 'NONE', #285, #338, #380, .T. ) ;
#195 = CARTESIAN_POINT ( 'NONE',  ( 18.61653926923012747, -56.09210273266209867, -672.7781487835629832 ) ) ;
#196 = CARTESIAN_POINT ( 'NONE',  ( 50.22865362503311815, -86.75315364285003739, -683.7327142521100996 ) ) ;
#197 = APPLICATION_PROTOCOL_DEFINITION ( 'draft international standard', 'automotive_design', 1998, #72 ) ;
#198 = DIRECTION ( 'NONE',  ( 1.000000000000000000, 0.000000000000000000, 0.000000000000000000 ) ) ;
#199 = CARTESIAN_POINT ( 'NONE',  ( 18.47139460079169382, -53.55897330072283324, -672.8452948402016318 ) ) ;
#200 = PRODUCT_DEFINITION_SHAPE ( 'NONE', 'NONE',  #478 ) ;
#201 = CARTESIAN_POINT ( 'NONE',  ( 50.44556384399903948, -88.84200650954652190, -684.0363042799257300 ) ) ;
#202 = DIRECTION ( 'NONE',  ( -1.000000000000000000, -0.000000000000000000, -0.000000000000000000 ) ) ;
#203 = CARTESIAN_POINT ( 'NONE',  ( 18.47139460079169382, -50.55897330072291851, -675.4407995600636241 ) ) ;
#204 = CARTESIAN_POINT ( 'NONE',  ( 42.17538860269721823, -77.57443597888612885, -676.3356579474883574 ) ) ;
#205 = VERTEX_POINT ( 'NONE', #183 ) ;
#206 = EDGE_CURVE ( 'NONE', #617, #648, #396, .T. ) ;
#207 = AXIS2_PLACEMENT_3D ( 'NONE', #413, #631, #221 ) ;
#208 = CARTESIAN_POINT ( 'NONE',  ( 29.54704892177972297, -70.11945711078760723, -681.3152034387080676 ) ) ;
#209 = CARTESIAN_POINT ( 'NONE',  ( 50.09621491205904675, -86.24946185075478411, -677.5964702276307889 ) ) ;
#210 = ORIENTED_EDGE ( 'NONE', *, *, #625, .T. ) ;
#211 = CARTESIAN_POINT ( 'NONE',  ( 26.12609551554826126, -63.68919684066040787, -680.3806412560891204 ) ) ;
#212 = CARTESIAN_POINT ( 'NONE',  ( 21.58644372280799928, -55.64015147292754193, -673.1477694420568696 ) ) ;
#213 = FACE_OUTER_BOUND ( 'NONE', #707, .T. ) ;
#214 = EDGE_LOOP ( 'NONE', ( #237, #176, #68, #659 ) ) ;
#215 = EDGE_CURVE ( 'NONE', #102, #338, #4, .T. ) ;
#216 = CARTESIAN_POINT ( 'NONE',  ( 71.60594210533972159, -50.12749213971068940, -678.4096080765718852 ) ) ;
#217 = EDGE_LOOP ( 'NONE', ( #510, #158, #331, #48 ) ) ;
#218 = CARTESIAN_POINT ( 'NONE',  ( 22.11827193417275694, -57.65311515503119466, -673.4403298755777314 ) ) ;
#219 = VECTOR ( 'NONE', #588, 1000.000000000000114 ) ;
#220 = CARTESIAN_POINT ( 'NONE',  ( 31.33779766738748052, -71.20929344747224832, -681.4735982443180546 ) ) ;
#221 = DIRECTION ( 'NONE',  ( 0.000000000000000000, 0.000000000000000000, -1.000000000000000000 ) ) ;
#222 = EDGE_LOOP ( 'NONE', ( #330, #492, #308, #586 ) ) ;
#223 = CARTESIAN_POINT ( 'NONE',  ( 53.44556384399903948, -76.02096961353880999, -684.1034503365640376 ) ) ;
#224 = CARTESIAN_POINT ( 'NONE',  ( 18.47139460079169737, -50.55897330072291851, -672.4407995600635104 ) ) ;
#225 = DIRECTION ( 'NONE',  ( 0.000000000000000000, 0.000000000000000000, 1.000000000000000000 ) ) ;
#226 = ADVANCED_FACE ( 'NONE', ( #411, #426 ), #368, .F. ) ;
#227 = CIRCLE ( 'NONE', #55, 1.249999999999973355 ) ;
#228 = CARTESIAN_POINT ( 'NONE',  ( 18.47139460079169382, -53.55897330072283324, -684.1034503365640376 ) ) ;
#229 = FACE_OUTER_BOUND ( 'NONE', #387, .T. ) ;
#230 = EDGE_CURVE ( 'NONE', #458, #21, #653, .T. ) ;
#231 = CARTESIAN_POINT ( 'NONE',  ( 53.44556384399903948, -88.84200650954652190, -672.7781487835632106 ) ) ;
#232 = CYLINDRICAL_SURFACE ( 'NONE', #569, 1.249999999999973355 ) ;
#233 = CARTESIAN_POINT ( 'NONE',  ( 21.47139460079169027, -47.55897330072283324, -678.4407995600636241 ) ) ;
#234 = CARTESIAN_POINT ( 'NONE',  ( 53.44556384399901816, -88.31640954674342936, -683.9599149855424685 ) ) ;
#235 = ORIENTED_EDGE ( 'NONE', *, *, #518, .T. ) ;
#236 = CARTESIAN_POINT ( 'NONE',  ( 49.01697130130427382, -83.84700652263713039, -684.1034503365639239 ) ) ;
#237 = ORIENTED_EDGE ( 'NONE', *, *, #486, .F. ) ;
#238 = CARTESIAN_POINT ( 'NONE',  ( 21.47139460079169027, -66.38001019673053804, -684.1034503365640376 ) ) ;
#239 = CARTESIAN_POINT ( 'NONE',  ( 27.77031783378016172, -68.92184927205475731, -672.7781487835630969 ) ) ;
#240 = CARTESIAN_POINT ( 'NONE',  ( 22.11827193417276405, -57.65311515503123729, -679.5033682628335328 ) ) ;
#241 = CARTESIAN_POINT ( 'NONE',  ( 71.60594210533972159, -50.12749213971068940, -678.4096080765718852 ) ) ;
#242 = CARTESIAN_POINT ( 'NONE',  ( 43.70677102872182473, -74.99190527267616346, -682.0233560791266427 ) ) ;
#243 = LINE ( 'NONE', #461, #674 ) ;
#244 = VECTOR ( 'NONE', #305, 1000.000000000000000 ) ;
#245 = CARTESIAN_POINT ( 'NONE',  ( 47.54656670206207281, -81.93098906489137789, -684.1034503365641513 ) ) ;
#246 = CARTESIAN_POINT ( 'NONE',  ( 18.61653926923012747, -56.09210273266209867, -684.1034503365638102 ) ) ;
#247 = CARTESIAN_POINT ( 'NONE',  ( 49.52910353050965142, -84.79637194758457497, -683.4483192050647631 ) ) ;
#248 = CARTESIAN_POINT ( 'NONE',  ( 0.000000000000000000, 0.000000000000000000, 0.000000000000000000 ) ) ;
#249 = DIRECTION ( 'NONE',  ( -1.000000000000000000, -0.000000000000000000, -0.000000000000000000 ) ) ;
#250 = CARTESIAN_POINT ( 'NONE',  ( 39.50615125463375676, -75.91880625181829600, -676.0950317727556467 ) ) ;
#251 =( GEOMETRIC_REPRESENTATION_CONTEXT ( 3 ) GLOBAL_UNCERTAINTY_ASSIGNED_CONTEXT ( ( #596 ) ) GLOBAL_UNIT_ASSIGNED_CONTEXT ( ( #688, #473, #682 ) ) REPRESENTATION_CONTEXT ( 'NONE', 'WORKASPACE' ) );
#252 = CIRCLE ( 'NONE', #14, 3.000000000000113687 ) ;
#253 = DIRECTION ( 'NONE',  ( 0.000000000000000000, 0.000000000000000000, -1.000000000000000000 ) ) ;
#254 = CARTESIAN_POINT ( 'NONE',  ( 48.73176061123926672, -83.43957242464836099, -677.1880860744764732 ) ) ;
#255 = DIRECTION ( 'NONE',  ( -1.000000000000000000, -0.000000000000000000, -0.000000000000000000 ) ) ;
#256 = CIRCLE ( 'NONE', #366, 1.249999999999973355 ) ;
#257 = CARTESIAN_POINT ( 'NONE',  ( 21.96261913330283733, -57.15358886155544127, -673.3677296442504030 ) ) ;
#258 = CARTESIAN_POINT ( 'NONE',  ( 34.95873001637839650, -73.31781976826707137, -675.7170091884567000 ) ) ;
#259 = ORIENTED_EDGE ( 'NONE', *, *, #606, .F. ) ;
#260 = CARTESIAN_POINT ( 'NONE',  ( 28.51404299681469467, -65.70479823875412251, -674.6105466631373702 ) ) ;
#261 =( LENGTH_UNIT ( ) NAMED_UNIT ( * ) SI_UNIT ( .MILLI., .METRE. ) );
#262 = CARTESIAN_POINT ( 'NONE',  ( 45.54332920498944048, -80.04931270358835604, -676.6953519717405925 ) ) ;
#263 = ORIENTED_EDGE ( 'NONE', *, *, #2, .F. ) ;
#264 = ADVANCED_FACE ( 'NONE', ( #40 ), #318, .F. ) ;
#265 = DIRECTION ( 'NONE',  ( -1.000000000000000000, -0.000000000000000000, -0.000000000000000000 ) ) ;
#266 = ORIENTED_EDGE ( 'NONE', *, *, #459, .T. ) ;
#267 = CARTESIAN_POINT ( 'NONE',  ( 53.44556384399903948, -91.84200650954643663, -681.4407995600636241 ) ) ;
#268 = CARTESIAN_POINT ( 'NONE',  ( 21.47139460079170092, -54.60897746713450118, -679.0609388988139017 ) ) ;
#269 = EDGE_LOOP ( 'NONE', ( #169, #599, #609, #642, #374, #429, #106, #347 ) ) ;
#270 = DIRECTION ( 'NONE',  ( 0.000000000000000000, -0.9896028388360627037, -0.1438270536707394465 ) ) ;
#271 = CIRCLE ( 'NONE', #25, 3.000000000000113687 ) ;
#272 = CARTESIAN_POINT ( 'NONE',  ( 22.73900323423409731, -64.46872339303222077, -680.4939362092620740 ) ) ;
#273 = CARTESIAN_POINT ( 'NONE',  ( 53.44556384399903948, -91.84200650954643663, -681.4407995600636241 ) ) ;
#274 = EDGE_CURVE ( 'NONE', #205, #540, #136, .T. ) ;
#275 = EDGE_LOOP ( 'NONE', ( #453, #490, #594, #670 ) ) ;
#276 = CARTESIAN_POINT ( 'NONE',  ( 31.09512428822213437, -67.50441056061434608, -680.9351373902255773 ) ) ;
#277 = CARTESIAN_POINT ( 'NONE',  ( 36.70600402212152602, -70.97360104329078467, -672.7781487835632106 ) ) ;
#278 = CARTESIAN_POINT ( 'NONE',  ( 50.44556384399903948, -91.84200650954643663, -681.4407995600636241 ) ) ;
#279 = ADVANCED_FACE ( 'NONE', ( #90 ), #638, .T. ) ;
#280 = ORIENTED_EDGE ( 'NONE', *, *, #121, .T. ) ;
#281 = FACE_OUTER_BOUND ( 'NONE', #615, .T. ) ;
#282 = PLANE ( 'NONE',  #590 ) ;
#283 = ORIENTED_EDGE ( 'NONE', *, *, #71, .T. ) ;
#284 = CARTESIAN_POINT ( 'NONE',  ( 49.76260536316326011, -79.93159638904718634, -682.7412816866832372 ) ) ;
#285 = VERTEX_POINT ( 'NONE', #527 ) ;
#286 = CARTESIAN_POINT ( 'NONE',  ( 18.47139460079169737, -50.99045446173515472, -672.4719910435553629 ) ) ;
#287 = CARTESIAN_POINT ( 'NONE',  ( 19.58767235717036570, -59.56472245761442252, -684.1034503365642649 ) ) ;
#288 = FILL_AREA_STYLE ('',( #74 ) ) ;
#289 = CARTESIAN_POINT ( 'NONE',  ( 18.47139460079169382, -53.55897330072283324, -678.4407995600636241 ) ) ;
#290 = CARTESIAN_POINT ( 'NONE',  ( 48.58243078689042704, -83.20205145830531990, -684.1034503365639239 ) ) ;
#291 = DIRECTION ( 'NONE',  ( 1.000000000000000000, 0.000000000000000000, 0.000000000000000000 ) ) ;
#292 = CARTESIAN_POINT ( 'NONE',  ( 34.95873001637842492, -73.31781976826711400, -681.7800475757123877 ) ) ;
#293 = CARTESIAN_POINT ( 'NONE',  ( 37.69341875774488670, -74.86097905864609459, -684.1034503365641513 ) ) ;
#294 = ORIENTED_EDGE ( 'NONE', *, *, #187, .F. ) ;
#295 = CARTESIAN_POINT ( 'NONE',  ( 46.94527616217574462, -81.30563410742246333, -684.1034503365641513 ) ) ;
#296 = EDGE_CURVE ( 'NONE', #21, #542, #703, .T. ) ;
#297 = CARTESIAN_POINT ( 'NONE',  ( 44.72867010830124457, -79.39259244769279178, -682.6629438467342652 ) ) ;
#298 = CARTESIAN_POINT ( 'NONE',  ( 49.01697130130427382, -83.84700652263713039, -672.7781487835630969 ) ) ;
#299 = DIRECTION ( 'NONE',  ( 0.000000000000000000, 0.000000000000000000, 1.000000000000000000 ) ) ;
#300 = CARTESIAN_POINT ( 'NONE',  ( 29.54704892177970876, -70.11945711078760723, -675.2521650514524936 ) ) ;
#301 = CARTESIAN_POINT ( 'NONE',  ( 52.46160216243896457, -84.02083608369487422, -683.3356042512046997 ) ) ;
#302 = PRODUCT ( 'Big pod hinge arm', 'Big pod hinge arm', '', ( #692 ) ) ;
#303 = DIRECTION ( 'NONE',  ( 0.000000000000000000, 0.000000000000000000, 1.000000000000000000 ) ) ;
#304 = EDGE_CURVE ( 'NONE', #542, #180, #384, .T. ) ;
#305 = DIRECTION ( 'NONE',  ( -1.000000000000000000, -0.000000000000000000, -0.000000000000000000 ) ) ;
#306 = CARTESIAN_POINT ( 'NONE',  ( 26.12609551554824705, -63.68919684066035103, -674.3176028688332053 ) ) ;
#307 = CARTESIAN_POINT ( 'NONE',  ( 21.74314647826420810, -63.25072303775426974, -674.2538758940220305 ) ) ;
#308 = ORIENTED_EDGE ( 'NONE', *, *, #595, .T. ) ;
#309 = CIRCLE ( 'NONE', #402, 3.000000000000113687 ) ;
#310 = CARTESIAN_POINT ( 'NONE',  ( 50.77218109625034970, -81.10760815181528471, -676.8491626827229766 ) ) ;
#311 = CARTESIAN_POINT ( 'NONE',  ( 43.04583260496430341, -78.15357875601058879, -676.4198294918895726 ) ) ;
#312 = EDGE_CURVE ( 'NONE', #712, #363, #418, .T. ) ;
#313 = ORIENTED_EDGE ( 'NONE', *, *, #230, .T. ) ;
#314 = VECTOR ( 'NONE', #249, 1000.000000000000000 ) ;
#315 = CARTESIAN_POINT ( 'NONE',  ( 52.35437551394532818, -83.77960294573999533, -677.2375054840492794 ) ) ;
#316 = CARTESIAN_POINT ( 'NONE',  ( 18.47139460079169737, -54.60810068140091289, -679.0608114683906251 ) ) ;
#317 = CARTESIAN_POINT ( 'NONE',  ( 18.47139460079169737, -50.55897330072291851, -675.4407995600636241 ) ) ;
#318 = CYLINDRICAL_SURFACE ( 'NONE', #353, 1.249999999999973355 ) ;
#319 = ORIENTED_EDGE ( 'NONE', *, *, #672, .F. ) ;
#320 = CARTESIAN_POINT ( 'NONE',  ( 33.75722010561405284, -69.17437709632275755, -681.1778472503166313 ) ) ;
#321 = CARTESIAN_POINT ( 'NONE',  ( 23.19198992521657843, -60.02817042244812740, -673.7855160331068873 ) ) ;
#322 = DIRECTION ( 'NONE',  ( -1.000000000000000000, -0.000000000000000000, -0.000000000000000000 ) ) ;
#323 = ORIENTED_EDGE ( 'NONE', *, *, #194, .F. ) ;
#324 = CARTESIAN_POINT ( 'NONE',  ( 22.48638778395274329, -58.63684982108605226, -673.5833040598263324 ) ) ;
#325 = CARTESIAN_POINT ( 'NONE',  ( 20.07149386340755015, -60.61208967094314914, -679.9334201683142282 ) ) ;
#326 = DIRECTION ( 'NONE',  ( 0.000000000000000000, 0.000000000000000000, -1.000000000000000000 ) ) ;
#327 = VERTEX_POINT ( 'NONE', #201 ) ;
#328 = ORIENTED_EDGE ( 'NONE', *, *, #100, .T. ) ;
#329 = LINE ( 'NONE', #431, #654 ) ;
#330 = ORIENTED_EDGE ( 'NONE', *, *, #442, .F. ) ;
#331 = ORIENTED_EDGE ( 'NONE', *, *, #304, .T. ) ;
#332 = CARTESIAN_POINT ( 'NONE',  ( 52.75731980471189075, -84.74805593438819074, -677.3782586574533298 ) ) ;
#333 = LINE ( 'NONE', #216, #635 ) ;
#334 = CARTESIAN_POINT ( 'NONE',  ( 53.44556384399903948, -50.99045446173515472, -672.4719910435553629 ) ) ;
#335 = LINE ( 'NONE', #711, #13 ) ;
#336 = CARTESIAN_POINT ( 'NONE',  ( 50.44556384399903948, -91.84200650954643663, -682.6907995600636241 ) ) ;
#337 = PLANE ( 'NONE',  #392 ) ;
#338 = VERTEX_POINT ( 'NONE', #359 ) ;
#339 = CARTESIAN_POINT ( 'NONE',  ( 50.44556384399903948, -91.41052534853420752, -684.4096080765718852 ) ) ;
#340 = DIRECTION ( 'NONE',  ( 0.000000000000000000, 0.9896028388360627037, 0.1438270536707394465 ) ) ;
#341 = AXIS2_PLACEMENT_3D ( 'NONE', #693, #198, #628 ) ;
#342 = ORIENTED_EDGE ( 'NONE', *, *, #348, .T. ) ;
#343 = CARTESIAN_POINT ( 'NONE',  ( 39.22534320259070739, -72.28094338355738557, -681.6293498719655872 ) ) ;
#344 = PRODUCT_RELATED_PRODUCT_CATEGORY ( 'part', '', ( #302 ) ) ;
#345 = DIRECTION ( 'NONE',  ( 0.000000000000000000, 0.000000000000000000, -1.000000000000000000 ) ) ;
#346 = CARTESIAN_POINT ( 'NONE',  ( 22.65109876265752575, -64.40883994086011910, -684.1034503365642649 ) ) ;
#347 = ORIENTED_EDGE ( 'NONE', *, *, #189, .T. ) ;
#348 = EDGE_CURVE ( 'NONE', #500, #514, #502, .T. ) ;
#349 = CARTESIAN_POINT ( 'NONE',  ( 71.60494210533971682, -50.55897330072291851, -675.4407995600636241 ) ) ;
#350 = AXIS2_PLACEMENT_3D ( 'NONE', #278, #118, #6 ) ;
#351 = CARTESIAN_POINT ( 'NONE',  ( 49.71639240184569530, -85.16726530085917091, -684.1034503365639239 ) ) ;
#352 = CLOSED_SHELL ( 'NONE', ( #264, #578, #17, #358, #532, #652, #279, #24, #155, #522, #226, #645, #448, #660, #116 ) ) ;
#353 = AXIS2_PLACEMENT_3D ( 'NONE', #95, #255, #303 ) ;
#354 = APPLICATION_PROTOCOL_DEFINITION ( 'draft international standard', 'automotive_design', 1998, #32 ) ;
#355 = B_SPLINE_SURFACE_WITH_KNOTS ( 'NONE', 4, 1, ( 
 ( #16, #511 ),
 ( #132, #238 ),
 ( #277, #125 ),
 ( #556, #223 ),
 ( #231, #447 ) ),
 .UNSPECIFIED., .F., .F., .F.,
 ( 5, 5 ),
 ( 2, 2 ),
 ( 0.000000000000000000, 1.000000000000000000 ),
 ( 0.000000000000000000, 1.000000000000000000 ),
 .UNSPECIFIED. ) ;
#356 = CARTESIAN_POINT ( 'NONE',  ( 50.40419674709963971, -87.79123183074014491, -683.8835866237168375 ) ) ;
#357 = LINE ( 'NONE', #698, #244 ) ;
#358 = ADVANCED_FACE ( 'NONE', ( #499 ), #626, .T. ) ;
#359 = CARTESIAN_POINT ( 'NONE',  ( 18.47139460079169382, -53.55897330072283324, -678.9083332274572058 ) ) ;
#360 = DIRECTION ( 'NONE',  ( 0.000000000000000000, 0.000000000000000000, 1.000000000000000000 ) ) ;
#361 = CARTESIAN_POINT ( 'NONE',  ( 52.35437551394533529, -83.77960294574006639, -683.3005438713043986 ) ) ;
#362 = CARTESIAN_POINT ( 'NONE',  ( 44.31283842621269287, -79.07605584249238007, -676.5539006123641457 ) ) ;
#363 = VERTEX_POINT ( 'NONE', #589 ) ;
#364 = CARTESIAN_POINT ( 'NONE',  ( 20.56707904094977835, -61.52457908832944611, -674.0030013121047432 ) ) ;
#365 = ORIENTED_EDGE ( 'NONE', *, *, #2, .T. ) ;
#366 = AXIS2_PLACEMENT_3D ( 'NONE', #267, #494, #543 ) ;
#367 = CARTESIAN_POINT ( 'NONE',  ( 27.68936626115381117, -65.06360334631827413, -680.5803949658571810 ) ) ;
#368 = PLANE ( 'NONE',  #417 ) ;
#369 = CARTESIAN_POINT ( 'NONE',  ( 52.00662355398147696, -83.07660411851442461, -677.1353329294790910 ) ) ;
#370 = DIRECTION ( 'NONE',  ( 0.000000000000000000, 0.9896028388360627037, 0.1438270536707394742 ) ) ;
#371 = ORIENTED_EDGE ( 'NONE', *, *, #71, .F. ) ;
#372 = CARTESIAN_POINT ( 'NONE',  ( 30.21956289101899529, -66.92714984513030174, -674.7882009939409045 ) ) ;
#373 = DIRECTION ( 'NONE',  ( 0.000000000000000000, 0.000000000000000000, 1.000000000000000000 ) ) ;
#374 = ORIENTED_EDGE ( 'NONE', *, *, #121, .F. ) ;
#375 = CARTESIAN_POINT ( 'NONE',  ( 22.20480350028521244, -57.90235175927197986, -673.4765534645250682 ) ) ;
#376 = FACE_OUTER_BOUND ( 'NONE', #379, .T. ) ;
#377 = VERTEX_POINT ( 'NONE', #105 ) ;
#378 = PRODUCT_DEFINITION_CONTEXT ( 'detailed design', #72, 'design' ) ;
#379 = EDGE_LOOP ( 'NONE', ( #419, #365, #319, #294 ) ) ;
#380 = LINE ( 'NONE', #289, #633 ) ;
#381 = CARTESIAN_POINT ( 'NONE',  ( 53.44556384399903948, -91.84200650954643663, -680.1907995600636241 ) ) ;
#382 = VERTEX_POINT ( 'NONE', #42 ) ;
#383 = ORIENTED_EDGE ( 'NONE', *, *, #61, .F. ) ;
#384 = CIRCLE ( 'NONE', #341, 3.000000000000113687 ) ;
#385 = CARTESIAN_POINT ( 'NONE',  ( 53.44556384399903948, -91.84200650954643663, -682.6907995600636241 ) ) ;
#386 = DIRECTION ( 'NONE',  ( -1.000000000000000000, -0.000000000000000000, -0.000000000000000000 ) ) ;
#387 = EDGE_LOOP ( 'NONE', ( #313, #70, #655, #516, #64 ) ) ;
#388 = FACE_BOUND ( 'NONE', #439, .T. ) ;
#389 = EDGE_CURVE ( 'NONE', #540, #205, #560, .T. ) ;
#390 = ORIENTED_EDGE ( 'NONE', *, *, #470, .T. ) ;
#391 = CARTESIAN_POINT ( 'NONE',  ( 53.41352334966688176, -87.78971830498785778, -677.8203282634162861 ) ) ;
#392 = AXIS2_PLACEMENT_3D ( 'NONE', #687, #133, #340 ) ;
#393 = CARTESIAN_POINT ( 'NONE',  ( 46.94527616217574462, -81.30563410742246333, -672.7781487835633243 ) ) ;
#394 = ORIENTED_EDGE ( 'NONE', *, *, #187, .T. ) ;
#395 = CARTESIAN_POINT ( 'NONE',  ( 35.58108927551897693, -70.20801601289547023, -681.3280744264078521 ) ) ;
#396 = LINE ( 'NONE', #564, #496 ) ;
#397 = CARTESIAN_POINT ( 'NONE',  ( 48.58243078689042704, -83.20205145830531990, -672.7781487835630969 ) ) ;
#398 = CYLINDRICAL_SURFACE ( 'NONE', #446, 3.000000000000113687 ) ;
#399 = EDGE_CURVE ( 'NONE', #617, #180, #357, .T. ) ;
#400 = CARTESIAN_POINT ( 'NONE',  ( 23.42621352513496191, -65.23957919711162390, -684.1034503365642649 ) ) ;
#401 = CARTESIAN_POINT ( 'NONE',  ( 19.58767235717036570, -59.56472245761442252, -672.7781487835634380 ) ) ;
#402 = AXIS2_PLACEMENT_3D ( 'NONE', #476, #481, #422 ) ;
#403 = DIRECTION ( 'NONE',  ( -1.000000000000000000, -0.000000000000000000, -0.000000000000000000 ) ) ;
#404 = CARTESIAN_POINT ( 'NONE',  ( 27.77031783378016172, -68.92184927205475731, -684.1034503365639239 ) ) ;
#405 = CIRCLE ( 'NONE', #154, 3.000000000000113687 ) ;
#406 = AXIS2_PLACEMENT_3D ( 'NONE', #241, #424, #370 ) ;
#407 = CARTESIAN_POINT ( 'NONE',  ( 22.48638778395275040, -58.63684982108608068, -679.6463424470820200 ) ) ;
#408 = CARTESIAN_POINT ( 'NONE',  ( 24.50986183726340073, -66.37938527240234521, -674.7085898999660003 ) ) ;
#409 = EDGE_CURVE ( 'NONE', #648, #58, #93, .T. ) ;
#410 = DIRECTION ( 'NONE',  ( 1.000000000000000000, 0.000000000000000000, 0.000000000000000000 ) ) ;
#411 = FACE_BOUND ( 'NONE', #605, .T. ) ;
#412 = AXIS2_PLACEMENT_3D ( 'NONE', #273, #1, #437 ) ;
#413 = CARTESIAN_POINT ( 'NONE',  ( 18.47139460079169382, -47.55897330072283324, -678.4407995600636241 ) ) ;
#414 = DIRECTION ( 'NONE',  ( -1.000000000000000000, 0.000000000000000000, 0.000000000000000000 ) ) ;
#415 = CARTESIAN_POINT ( 'NONE',  ( 50.44556384399903948, -88.31537205490333520, -677.8967258111339333 ) ) ;
#416 = CARTESIAN_POINT ( 'NONE',  ( 52.92169593568755914, -85.24113085930208911, -683.5129596460132007 ) ) ;
#417 = AXIS2_PLACEMENT_3D ( 'NONE', #708, #53, #612 ) ;
#418 = CIRCLE ( 'NONE', #519, 1.249999999999973355 ) ;
#419 = ORIENTED_EDGE ( 'NONE', *, *, #81, .T. ) ;
#420 = EDGE_CURVE ( 'NONE', #285, #432, #646, .T. ) ;
#421 = CARTESIAN_POINT ( 'NONE',  ( 41.04749677954411169, -73.31736391857519664, -675.7169429361022139 ) ) ;
#422 = DIRECTION ( 'NONE',  ( 0.000000000000000000, 0.000000000000000000, -1.000000000000000000 ) ) ;
#423 = CARTESIAN_POINT ( 'NONE',  ( 19.28899200201969677, -58.67072720804789299, -679.6512661240977877 ) ) ;
#424 = DIRECTION ( 'NONE',  ( 0.000000000000000000, 0.1438270536707394742, -0.9896028388360627037 ) ) ;
#425 = ORIENTED_EDGE ( 'NONE', *, *, #312, .F. ) ;
#426 = FACE_OUTER_BOUND ( 'NONE', #485, .T. ) ;
#427 = CARTESIAN_POINT ( 'NONE',  ( 47.10264200703362292, -77.42799417082613900, -676.3143743648623740 ) ) ;
#428 = PLANE ( 'NONE',  #207 ) ;
#429 = ORIENTED_EDGE ( 'NONE', *, *, #206, .F. ) ;
#430 = DIRECTION ( 'NONE',  ( 0.000000000000000000, 0.000000000000000000, 1.000000000000000000 ) ) ;
#431 = CARTESIAN_POINT ( 'NONE',  ( 50.44556384399903948, -50.99045446173515472, -672.4719910435553629 ) ) ;
#432 = VERTEX_POINT ( 'NONE', #534 ) ;
#433 = VECTOR ( 'NONE', #690, 1000.000000000000114 ) ;
#434 = VECTOR ( 'NONE', #202, 1000.000000000000000 ) ;
#435 = CARTESIAN_POINT ( 'NONE',  ( 25.38722696903349529, -62.95627868881188505, -674.2110818947365942 ) ) ;
#436 = LINE ( 'NONE', #640, #219 ) ;
#437 = DIRECTION ( 'NONE',  ( 0.000000000000000000, 0.000000000000000000, -1.000000000000000000 ) ) ;
#438 = EDGE_CURVE ( 'NONE', #363, #712, #35, .T. ) ;
#439 = EDGE_LOOP ( 'NONE', ( #663, #259 ) ) ;
#440 = FACE_OUTER_BOUND ( 'NONE', #705, .T. ) ;
#441 = EDGE_LOOP ( 'NONE', ( #161, #19 ) ) ;
#442 = EDGE_CURVE ( 'NONE', #503, #124, #160, .T. ) ;
#443 = B_SPLINE_CURVE_WITH_KNOTS ( 'NONE', 3,
 ( #57, #268, #506, #544, #134, #240, #88, #407, #523, #627, #22, #679, #685, #141, #211, #367, #600, #65, #276, #320, #395, #343, #559, #242, #568, #683, #620, #76, #454, #460, #284, #508, #150, #689, #94, #361, #301, #468, #416, #85, #29, #680, #234, #179 ),
 .UNSPECIFIED., .F., .F.,
 ( 4, 2, 2, 2, 2, 2, 2, 2, 2, 2, 2, 2, 2, 2, 2, 2, 2, 2, 2, 2, 2, 4 ),
 ( 0.000000000000000000, 0.003140445807571279335, 0.003925557259464122588, 0.004710668711356964973, 0.006280891615142699183, 0.007851114518928434260, 0.009421337422714167603, 0.01256178323028563602, 0.01570222903785713220, 0.01884267484542862664, 0.02512356646057159471, 0.03140445807571456277, 0.03454490388328605027, 0.03768534969085753777, 0.03925557259464326765, 0.04082579549842899058, 0.04396624130600040176, 0.04475135275789323547, 0.04553646420978606224, 0.04710668711357171579, 0.04867691001735736239, 0.05024713292114302288 ),
 .UNSPECIFIED. ) ;
#444 = DIRECTION ( 'NONE',  ( 0.000000000000000000, 0.000000000000000000, -1.000000000000000000 ) ) ;
#445 = PLANE ( 'NONE',  #45 ) ;
#446 = AXIS2_PLACEMENT_3D ( 'NONE', #673, #386, #225 ) ;
#447 = CARTESIAN_POINT ( 'NONE',  ( 53.44556384399903948, -88.84200650954652190, -684.1034503365640376 ) ) ;
#448 = ADVANCED_FACE ( 'NONE', ( #706, #213 ), #428, .F. ) ;
#449 = AXIS2_PLACEMENT_3D ( 'NONE', #153, #157, #360 ) ;
#450 = DIRECTION ( 'NONE',  ( 1.000000000000000000, 0.000000000000000000, 0.000000000000000000 ) ) ;
#451 = ORIENTED_EDGE ( 'NONE', *, *, #194, .T. ) ;
#452 = CARTESIAN_POINT ( 'NONE',  ( 50.44556384399903948, -88.01839282345285653, -672.7781487835632106 ) ) ;
#453 = ORIENTED_EDGE ( 'NONE', *, *, #603, .T. ) ;
#454 = CARTESIAN_POINT ( 'NONE',  ( 48.66922264435903145, -78.81695410781753708, -682.5792816307872499 ) ) ;
#455 = CARTESIAN_POINT ( 'NONE',  ( 71.60594210533972159, -50.55897330072291851, -675.4407995600636241 ) ) ;
#456 = CARTESIAN_POINT ( 'NONE',  ( 53.28277958155391048, -86.75364667486678627, -677.6697475212196196 ) ) ;
#457 = CARTESIAN_POINT ( 'NONE',  ( 50.34645298402437419, -87.26699783439471503, -672.7781487835632106 ) ) ;
#458 = VERTEX_POINT ( 'NONE', #541 ) ;
#459 = EDGE_CURVE ( 'NONE', #102, #542, #252, .T. ) ;
#460 = CARTESIAN_POINT ( 'NONE',  ( 49.40827881510556807, -79.55262785854144170, -682.6862030985490719 ) ) ;
#461 = CARTESIAN_POINT ( 'NONE',  ( 71.60594210533972159, -91.41052534853420752, -684.4096080765718852 ) ) ;
#462 = CARTESIAN_POINT ( 'NONE',  ( 44.31283842621269287, -79.07605584249236585, -682.6169389996196060 ) ) ;
#463 = CARTESIAN_POINT ( 'NONE',  ( 49.98232245397358042, -85.84212046838905508, -684.1034503365640376 ) ) ;
#464 = CARTESIAN_POINT ( 'NONE',  ( 45.54332920498942627, -80.04931270358835604, -682.7583903589959391 ) ) ;
#465 = CARTESIAN_POINT ( 'NONE',  ( 39.66282151603108019, -75.97973119069739312, -672.7781487835632106 ) ) ;
#466 = CIRCLE ( 'NONE', #412, 1.249999999999973355 ) ;
#467 = CARTESIAN_POINT ( 'NONE',  ( 71.60594210533972159, -50.55897330072291851, -672.4407995600635104 ) ) ;
#468 = CARTESIAN_POINT ( 'NONE',  ( 52.75731980471191918, -84.74805593438819074, -683.4412970447089037 ) ) ;
#469 = CARTESIAN_POINT ( 'NONE',  ( 49.74649228756066321, -85.27123044699419552, -683.5173342646426136 ) ) ;
#470 = EDGE_CURVE ( 'NONE', #458, #58, #491, .T. ) ;
#471 = CARTESIAN_POINT ( 'NONE',  ( 50.44556384399903948, -91.84200650954643663, -681.4407995600636241 ) ) ;
#472 = CARTESIAN_POINT ( 'NONE',  ( 45.94193089718351075, -80.38943304752032759, -676.7447844359992359 ) ) ;
#473 =( NAMED_UNIT ( * ) PLANE_ANGLE_UNIT ( ) SI_UNIT ( $, .RADIAN. ) );
#474 = AXIS2_PLACEMENT_3D ( 'NONE', #62, #265, #710 ) ;
#475 = CARTESIAN_POINT ( 'NONE',  ( 50.44556384399903948, -88.84200650954652190, -684.0363042799257300 ) ) ;
#476 = CARTESIAN_POINT ( 'NONE',  ( 21.47139460079169027, -50.55897330072291851, -675.4407995600636241 ) ) ;
#477 = DIRECTION ( 'NONE',  ( 1.000000000000000000, 0.000000000000000000, 0.000000000000000000 ) ) ;
#478 = PRODUCT_DEFINITION ( 'UNKNOWN', '', #504, #378 ) ;
#479 = CARTESIAN_POINT ( 'NONE',  ( 22.73900323423407599, -64.46872339303220656, -674.4308978220065001 ) ) ;
#480 = CARTESIAN_POINT ( 'NONE',  ( 21.47139460079169027, -54.60897746713449408, -672.9979005115582140 ) ) ;
#481 = DIRECTION ( 'NONE',  ( 1.000000000000000000, 0.000000000000000000, 0.000000000000000000 ) ) ;
#482 = CARTESIAN_POINT ( 'NONE',  ( 49.01803044020480371, -83.87430150439377030, -677.2512687981217141 ) ) ;
#483 = CARTESIAN_POINT ( 'NONE',  ( 23.46310653968232174, -60.47235737795589472, -673.8500733469933266 ) ) ;
#484 = CARTESIAN_POINT ( 'NONE',  ( 36.79199193461356998, -74.33489963412264956, -675.8648297026192040 ) ) ;
#485 = EDGE_LOOP ( 'NONE', ( #119, #115, #263, #536 ) ) ;
#486 = EDGE_CURVE ( 'NONE', #712, #205, #126, .T. ) ;
#487 = CARTESIAN_POINT ( 'NONE',  ( 39.22534320259069318, -72.28094338355735715, -675.5663114847097859 ) ) ;
#488 = DIRECTION ( 'NONE',  ( 1.000000000000000000, 0.000000000000000000, 0.000000000000000000 ) ) ;
#489 = CARTESIAN_POINT ( 'NONE',  ( 50.44556384399903948, -88.84200650954652190, -677.9732658926700424 ) ) ;
#490 = ORIENTED_EDGE ( 'NONE', *, *, #442, .T. ) ;
#491 = LINE ( 'NONE', #170, #108 ) ;
#492 = ORIENTED_EDGE ( 'NONE', *, *, #606, .T. ) ;
#493 = CARTESIAN_POINT ( 'NONE',  ( 21.89314306086201967, -56.90245901149481256, -673.3312308944431379 ) ) ;
#494 = DIRECTION ( 'NONE',  ( 1.000000000000000000, 0.000000000000000000, 0.000000000000000000 ) ) ;
#495 = VERTEX_POINT ( 'NONE', #381 ) ;
#496 = VECTOR ( 'NONE', #270, 1000.000000000000114 ) ;
#497 = CARTESIAN_POINT ( 'NONE',  ( 53.44556384399903948, -88.84200650954652190, -678.4407995600636241 ) ) ;
#498 = EDGE_CURVE ( 'NONE', #363, #540, #174, .T. ) ;
#499 = FACE_OUTER_BOUND ( 'NONE', #637, .T. ) ;
#500 = VERTEX_POINT ( 'NONE', #168 ) ;
#501 = CARTESIAN_POINT ( 'NONE',  ( 18.47139460079169382, -53.55897330072283324, -672.7781487835632106 ) ) ;
#502 = LINE ( 'NONE', #334, #87 ) ;
#503 = VERTEX_POINT ( 'NONE', #385 ) ;
#504 = PRODUCT_DEFINITION_FORMATION_WITH_SPECIFIED_SOURCE ( 'ANY', '', #302, .NOT_KNOWN. ) ;
#505 = FACE_OUTER_BOUND ( 'NONE', #666, .T. ) ;
#506 = CARTESIAN_POINT ( 'NONE',  ( 21.58644372280800994, -55.64015147292753483, -679.2108078293127846 ) ) ;
#507 = SURFACE_SIDE_STYLE ('',( #555 ) ) ;
#508 = CARTESIAN_POINT ( 'NONE',  ( 50.77218109625035680, -81.10760815181531314, -682.9122010699787779 ) ) ;
#509 = PRESENTATION_LAYER_ASSIGNMENT (  '', '', ( #86 ) ) ;
#510 = ORIENTED_EDGE ( 'NONE', *, *, #684, .F. ) ;
#511 = CARTESIAN_POINT ( 'NONE',  ( 21.47139460079169027, -53.55897330072283324, -684.1034503365640376 ) ) ;
#512 = VECTOR ( 'NONE', #67, 1000.000000000000000 ) ;
#513 = CARTESIAN_POINT ( 'NONE',  ( 25.90822223055862850, -67.57342365430407938, -684.1034503365641513 ) ) ;
#514 = VERTEX_POINT ( 'NONE', #538 ) ;
#515 = CARTESIAN_POINT ( 'NONE',  ( 19.17485402892465984, -58.45006268181371212, -672.7781487835629832 ) ) ;
#516 = ORIENTED_EDGE ( 'NONE', *, *, #409, .T. ) ;
#517 = CARTESIAN_POINT ( 'NONE',  ( 21.25104723735807966, -62.61235134835317950, -684.1034503365642649 ) ) ;
#518 = EDGE_CURVE ( 'NONE', #500, #382, #177, .T. ) ;
#519 = AXIS2_PLACEMENT_3D ( 'NONE', #36, #477, #697 ) ;
#520 = CARTESIAN_POINT ( 'NONE',  ( 18.47139460079169382, -54.85019009737055029, -684.1034503365638102 ) ) ;
#521 = DIRECTION ( 'NONE',  ( 0.000000000000000000, 0.000000000000000000, 1.000000000000000000 ) ) ;
#522 = ADVANCED_FACE ( 'NONE', ( #388, #505 ), #282, .T. ) ;
#523 = CARTESIAN_POINT ( 'NONE',  ( 22.70362988125739179, -59.11041700726487136, -679.7151698295733695 ) ) ;
#524 = CARTESIAN_POINT ( 'NONE',  ( 50.44556384399903948, -92.27348767055867995, -678.4719910435553629 ) ) ;
#525 = CARTESIAN_POINT ( 'NONE',  ( 20.07149386340753594, -60.61208967094311362, -673.8703817810583132 ) ) ;
#526 = CARTESIAN_POINT ( 'NONE',  ( 43.04583260496428920, -78.15357875601056037, -682.4828678791453740 ) ) ;
#527 = CARTESIAN_POINT ( 'NONE',  ( 18.47139460079169382, -53.55897330072283324, -672.8452948402016318 ) ) ;
#528 = CARTESIAN_POINT ( 'NONE',  ( 50.40419674709963971, -87.79123183074018755, -677.8205482364612635 ) ) ;
#529 = CARTESIAN_POINT ( 'NONE',  ( 18.56630809630509304, -55.64168581215585618, -673.1479924400946402 ) ) ;
#530 = CARTESIAN_POINT ( 'NONE',  ( 20.56707904094978545, -61.52457908832946742, -680.0660396993602035 ) ) ;
#531 = CARTESIAN_POINT ( 'NONE',  ( 19.46764174916551582, -59.16757560891894485, -673.6604387681911703 ) ) ;
#532 = ADVANCED_FACE ( 'NONE', ( #376 ), #9, .T. ) ;
#533 = ORIENTED_EDGE ( 'NONE', *, *, #438, .F. ) ;
#534 = CARTESIAN_POINT ( 'NONE',  ( 50.44556384399903948, -88.84200650954652190, -677.9732658926700424 ) ) ;
#535 = MECHANICAL_DESIGN_GEOMETRIC_PRESENTATION_REPRESENTATION (  '', ( #86 ), #251 ) ;
#536 = ORIENTED_EDGE ( 'NONE', *, *, #565, .F. ) ;
#537 = CARTESIAN_POINT ( 'NONE',  ( 48.66922264435906698, -78.81695410781757971, -676.5162432435320170 ) ) ;
#538 = CARTESIAN_POINT ( 'NONE',  ( 53.44556384399903948, -92.27348767055867995, -678.4719910435553629 ) ) ;
#539 = CARTESIAN_POINT ( 'NONE',  ( 21.47139460079169027, -53.55897330072283324, -678.9083332274572058 ) ) ;
#540 = VERTEX_POINT ( 'NONE', #658 ) ;
#541 = CARTESIAN_POINT ( 'NONE',  ( 21.47139460079169027, -50.12749213971068940, -678.4096080765718852 ) ) ;
#542 = VERTEX_POINT ( 'NONE', #224 ) ;
#543 = DIRECTION ( 'NONE',  ( 0.000000000000000000, 0.000000000000000000, -1.000000000000000000 ) ) ;
#544 = CARTESIAN_POINT ( 'NONE',  ( 21.89314306086201611, -56.90245901149479124, -679.3942692816989393 ) ) ;
#545 = ORIENTED_EDGE ( 'NONE', *, *, #672, .T. ) ;
#546 = VECTOR ( 'NONE', #667, 1000.000000000000114 ) ;
#547 = AXIS2_PLACEMENT_3D ( 'NONE', #203, #414, #562 ) ;
#548 = CARTESIAN_POINT ( 'NONE',  ( 53.18442380038799655, -86.24392673976052492, -677.5956657647949442 ) ) ;
#549 = CARTESIAN_POINT ( 'NONE',  ( 71.60494210533971682, -91.84200650954643663, -680.1907995600636241 ) ) ;
#550 = EDGE_CURVE ( 'NONE', #458, #102, #333, .T. ) ;
#551 = ORIENTED_EDGE ( 'NONE', *, *, #61, .T. ) ;
#552 = ORIENTED_EDGE ( 'NONE', *, *, #518, .F. ) ;
#553 = CARTESIAN_POINT ( 'NONE',  ( 53.44556384399903948, -91.84200650954643663, -681.4407995600636241 ) ) ;
#554 = DIRECTION ( 'NONE',  ( 0.000000000000000000, -0.9896028388360627037, -0.1438270536707394465 ) ) ;
#555 = SURFACE_STYLE_FILL_AREA ( #288 ) ;
#556 = CARTESIAN_POINT ( 'NONE',  ( 53.44556384399903948, -76.02096961353880999, -672.7781487835632106 ) ) ;
#557 = CARTESIAN_POINT ( 'NONE',  ( 21.47139460079169027, -53.55897330072283324, -672.8452948402016318 ) ) ;
#558 = ORIENTED_EDGE ( 'NONE', *, *, #230, .F. ) ;
#559 = CARTESIAN_POINT ( 'NONE',  ( 41.04749677954409037, -73.31736391857518242, -681.7799813233575605 ) ) ;
#560 = CIRCLE ( 'NONE', #449, 1.249999999999973355 ) ;
#561 = CARTESIAN_POINT ( 'NONE',  ( 50.34645298402437419, -87.26699783439471503, -684.1034503365640376 ) ) ;
#562 = DIRECTION ( 'NONE',  ( 0.000000000000000000, 0.000000000000000000, 1.000000000000000000 ) ) ;
#563 = EDGE_LOOP ( 'NONE', ( #533, #425 ) ) ;
#564 = CARTESIAN_POINT ( 'NONE',  ( 21.47139460079169027, -50.99045446173515472, -672.4719910435553629 ) ) ;
#565 = EDGE_CURVE ( 'NONE', #432, #83, #329, .T. ) ;
#566 = CARTESIAN_POINT ( 'NONE',  ( 47.54656670206207281, -81.93098906489137789, -672.7781487835633243 ) ) ;
#567 = EDGE_LOOP ( 'NONE', ( #451, #328, #591, #52 ) ) ;
#568 = CARTESIAN_POINT ( 'NONE',  ( 44.58043569605474232, -75.57017280189525366, -682.1074004166096074 ) ) ;
#569 = AXIS2_PLACEMENT_3D ( 'NONE', #113, #165, #373 ) ;
#570 = CARTESIAN_POINT ( 'NONE',  ( 18.47139460079169382, -54.85019009737055029, -672.7781487835629832 ) ) ;
#571 = B_SPLINE_CURVE_WITH_KNOTS ( 'NONE', 3,
 ( #649, #480, #212, #493, #257, #218, #375, #324, #44, #321, #483, #597, #156, #435, #306, #700, #260, #372, #702, #580, #644, #487, #421, #632, #111, #639, #427, #54, #537, #103, #656, #310, #162, #369, #587, #315, #49, #332, #173, #548, #456, #391, #66, #128 ),
 .UNSPECIFIED., .F., .F.,
 ( 4, 2, 2, 2, 2, 2, 2, 2, 2, 2, 2, 2, 2, 2, 2, 2, 2, 2, 2, 2, 2, 4 ),
 ( 0.000000000000000000, 0.003140445807571437195, 0.003925557259464319479, 0.004710668711357201763, 0.006280891615142926432, 0.007851114518928649366, 0.009421337422714374035, 0.01256178323028583899, 0.01570222903785730220, 0.01884267484542876889, 0.02512356646057167103, 0.03140445807571456971, 0.03454490388328602252, 0.03768534969085746839, 0.03925557259464318438, 0.04082579549842890732, 0.04396624130600031155, 0.04475135275789318690, 0.04553646420978606918, 0.04710668711357171579, 0.04867691001735737627, 0.05024713292114302982 ),
 .UNSPECIFIED. ) ;
#572 = VECTOR ( 'NONE', #56, 1000.000000000000000 ) ;
#573 = CARTESIAN_POINT ( 'NONE',  ( 50.44556384399903948, -88.84200650954652190, -684.1034503365640376 ) ) ;
#574 = PRESENTATION_STYLE_ASSIGNMENT (( #12 ) ) ;
#575 = EDGE_CURVE ( 'NONE', #432, #327, #661, .T. ) ;
#576 = CARTESIAN_POINT ( 'NONE',  ( 49.01803044020480371, -83.87430150439377030, -683.3143071853770607 ) ) ;
#577 = CARTESIAN_POINT ( 'NONE',  ( 19.28899200201968966, -58.67072720804787167, -673.5882277368421001 ) ) ;
#578 = ADVANCED_FACE ( 'NONE', ( #440 ), #232, .F. ) ;
#579 = CARTESIAN_POINT ( 'NONE',  ( 18.86249556935937122, -57.16687566945831378, -673.3696607244361303 ) ) ;
#580 = CARTESIAN_POINT ( 'NONE',  ( 33.75722010561406705, -69.17437709632275755, -675.1148088630609436 ) ) ;
#581 = DIRECTION ( 'NONE',  ( 1.000000000000000000, 0.000000000000000000, 0.000000000000000000 ) ) ;
#582 = DIRECTION ( 'NONE',  ( 0.000000000000000000, 0.000000000000000000, 1.000000000000000000 ) ) ;
#583 = CARTESIAN_POINT ( 'NONE',  ( 49.74649228756066321, -85.27123044699419552, -677.4542958773870396 ) ) ;
#584 = ORIENTED_EDGE ( 'NONE', *, *, #550, .T. ) ;
#585 = CARTESIAN_POINT ( 'NONE',  ( 71.60494210533971682, -91.84200650954643663, -682.6907995600636241 ) ) ;
#586 = ORIENTED_EDGE ( 'NONE', *, *, #625, .F. ) ;
#587 = CARTESIAN_POINT ( 'NONE',  ( 52.12694010441389025, -83.30771562909077943, -677.1689222507005752 ) ) ;
#588 = DIRECTION ( 'NONE',  ( 0.000000000000000000, -0.9896028388360627037, -0.1438270536707394742 ) ) ;
#589 = CARTESIAN_POINT ( 'NONE',  ( 21.47139460079169027, -50.55897330072291851, -674.1907995600636241 ) ) ;
#590 = AXIS2_PLACEMENT_3D ( 'NONE', #50, #610, #607 ) ;
#591 = ORIENTED_EDGE ( 'NONE', *, *, #575, .F. ) ;
#592 = DIRECTION ( 'NONE',  ( -1.000000000000000000, -0.000000000000000000, -0.000000000000000000 ) ) ;
#593 = LINE ( 'NONE', #549, #77 ) ;
#594 = ORIENTED_EDGE ( 'NONE', *, *, #699, .F. ) ;
#595 = EDGE_CURVE ( 'NONE', #495, #80, #593, .T. ) ;
#596 = UNCERTAINTY_MEASURE_WITH_UNIT (LENGTH_MEASURE( 1.000000000000000082E-05 ), #688, 'distance_accuracy_value', 'NONE');
#597 = CARTESIAN_POINT ( 'NONE',  ( 24.05401647625055617, -61.33418566083346946, -673.9753298820717191 ) ) ;
#598 = CARTESIAN_POINT ( 'NONE',  ( 21.47139460079169027, -50.99045446173515472, -672.4719910435553629 ) ) ;
#599 = ORIENTED_EDGE ( 'NONE', *, *, #565, .T. ) ;
#600 = CARTESIAN_POINT ( 'NONE',  ( 28.51404299681469467, -65.70479823875410830, -680.6735850503929441 ) ) ;
#601 = ORIENTED_EDGE ( 'NONE', *, *, #215, .T. ) ;
#602 = DIRECTION ( 'NONE',  ( 0.000000000000000000, 0.000000000000000000, -1.000000000000000000 ) ) ;
#603 = EDGE_CURVE ( 'NONE', #495, #503, #256, .T. ) ;
#604 = FACE_OUTER_BOUND ( 'NONE', #567, .T. ) ;
#605 = EDGE_LOOP ( 'NONE', ( #664, #210 ) ) ;
#606 = EDGE_CURVE ( 'NONE', #503, #495, #466, .T. ) ;
#607 = DIRECTION ( 'NONE',  ( 0.000000000000000000, 0.000000000000000000, -1.000000000000000000 ) ) ;
#608 = DIRECTION ( 'NONE',  ( 1.000000000000000000, 0.000000000000000000, 0.000000000000000000 ) ) ;
#609 = ORIENTED_EDGE ( 'NONE', *, *, #81, .F. ) ;
#610 = DIRECTION ( 'NONE',  ( 1.000000000000000000, 0.000000000000000000, 0.000000000000000000 ) ) ;
#611 = ORIENTED_EDGE ( 'NONE', *, *, #550, .F. ) ;
#612 = DIRECTION ( 'NONE',  ( 0.000000000000000000, 0.000000000000000000, -1.000000000000000000 ) ) ;
#613 = B_SPLINE_CURVE_WITH_KNOTS ( 'NONE', 3,
 ( #657, #316, #650, #104, #112, #423, #117, #325, #530, #60, #5, #41, #272, #96, #147, #208, #220, #292, #27, #97, #38, #30, #526, #462, #297, #464, #695, #193, #146, #91, #576, #247, #469, #691, #196, #356, #34, #475 ),
 .UNSPECIFIED., .F., .F.,
 ( 4, 2, 2, 2, 2, 2, 2, 2, 2, 2, 2, 2, 2, 2, 2, 2, 2, 2, 4 ),
 ( 0.000000000000000000, 0.003137782019673217467, 0.004706673029509849185, 0.006275564039346482638, 0.009413346059019764289, 0.01098223706885641596, 0.01255112807869306589, 0.01882669211803969511, 0.02510225615738632607, 0.03137782019673295703, 0.03451560221640627424, 0.03765338423607959145, 0.03922227524591626741, 0.04079116625575294336, 0.04392894827542630221, 0.04549783928526299898, 0.04706673029509970269, 0.04863562130493639946, 0.05020451231477309623 ),
 .UNSPECIFIED. ) ;
#614 = FACE_OUTER_BOUND ( 'NONE', #269, .T. ) ;
#615 = EDGE_LOOP ( 'NONE', ( #110, #280, #235, #371 ) ) ;
#616 = CARTESIAN_POINT ( 'NONE',  ( 33.69251619064017689, -72.58508926106182457, -672.7781487835632106 ) ) ;
#617 = VERTEX_POINT ( 'NONE', #598 ) ;
#618 = LINE ( 'NONE', #192, #678 ) ;
#619 = CARTESIAN_POINT ( 'NONE',  ( 20.62631772154679055, -61.64588256564014301, -672.7781487835633243 ) ) ;
#620 = CARTESIAN_POINT ( 'NONE',  ( 47.10264200703360871, -77.42799417082615321, -682.3774127521180617 ) ) ;
#621 = CARTESIAN_POINT ( 'NONE',  ( 50.44556384399903948, -91.84200650954643663, -680.1907995600636241 ) ) ;
#622 = CARTESIAN_POINT ( 'NONE',  ( 18.47139460079169737, -50.12749213971068940, -678.4096080765718852 ) ) ;
#623 =( GEOMETRIC_REPRESENTATION_CONTEXT ( 3 ) GLOBAL_UNCERTAINTY_ASSIGNED_CONTEXT ( ( #151 ) ) GLOBAL_UNIT_ASSIGNED_CONTEXT ( ( #261, #696, #148 ) ) REPRESENTATION_CONTEXT ( 'NONE', 'WORKASPACE' ) );
#624 = CARTESIAN_POINT ( 'NONE',  ( 43.27800276961225023, -78.27967915193069359, -672.7781487835633243 ) ) ;
#625 = EDGE_CURVE ( 'NONE', #124, #80, #662, .T. ) ;
#626 = PLANE ( 'NONE',  #406 ) ;
#627 = CARTESIAN_POINT ( 'NONE',  ( 23.19198992521658198, -60.02817042244814871, -679.8485544203624613 ) ) ;
#628 = DIRECTION ( 'NONE',  ( 0.000000000000000000, 0.000000000000000000, -1.000000000000000000 ) ) ;
#629 = CARTESIAN_POINT ( 'NONE',  ( 49.52910353050965853, -84.79637194758456076, -677.3852808178091891 ) ) ;
#630 = B_SPLINE_SURFACE_WITH_KNOTS ( 'NONE', 3, 1, ( 
 ( #501, #228 ),
 ( #570, #520 ),
 ( #195, #246 ),
 ( #515, #686 ),
 ( #401, #287 ),
 ( #619, #190 ),
 ( #84, #517 ),
 ( #137, #346 ),
 ( #79, #400 ),
 ( #139, #513 ),
 ( #239, #404 ),
 ( #142, #671 ),
 ( #616, #28 ),
 ( #18, #293 ),
 ( #465, #31 ),
 ( #624, #181 ),
 ( #188, #184 ),
 ( #393, #295 ),
 ( #566, #245 ),
 ( #397, #290 ),
 ( #298, #236 ),
 ( #73, #351 ),
 ( #20, #463 ),
 ( #457, #561 ),
 ( #452, #23 ),
 ( #129, #573 ) ),
 .UNSPECIFIED., .F., .F., .F.,
 ( 4, 2, 2, 2, 2, 2, 2, 2, 2, 2, 2, 2, 4 ),
 ( 2, 2 ),
 ( 0.000000000000000000, 0.06250000000000008327, 0.1250000000000001665, 0.1875000000000002498, 0.2500000000000003331, 0.3749999999999999445, 0.4999999999999995559, 0.6249999999999991118, 0.7499999999999987788, 0.8124999999999991118, 0.8749999999999993339, 0.9374999999999996669, 1.000000000000000000 ),
 ( 0.000000000000000000, 1.000000000000000000 ),
 .UNSPECIFIED. ) ;
#631 = DIRECTION ( 'NONE',  ( 1.000000000000000000, 0.000000000000000000, 0.000000000000000000 ) ) ;
#632 = CARTESIAN_POINT ( 'NONE',  ( 43.70677102872180342, -74.99190527267612083, -675.9603176918710687 ) ) ;
#633 = VECTOR ( 'NONE', #602, 1000.000000000000000 ) ;
#634 = DIRECTION ( 'NONE',  ( 0.000000000000000000, 0.000000000000000000, -1.000000000000000000 ) ) ;
#635 = VECTOR ( 'NONE', #11, 1000.000000000000000 ) ;
#636 = CARTESIAN_POINT ( 'NONE',  ( 21.47139460079169027, -50.55897330072291851, -675.4407995600636241 ) ) ;
#637 = EDGE_LOOP ( 'NONE', ( #130, #172, #178, #611, #390, #283, #551, #545 ) ) ;
#638 = CYLINDRICAL_SURFACE ( 'NONE', #46, 3.000000000000113687 ) ;
#639 = CARTESIAN_POINT ( 'NONE',  ( 46.27791803173354168, -76.78810325225727240, -676.2213737974865353 ) ) ;
#640 = CARTESIAN_POINT ( 'NONE',  ( 50.44556384399903948, -50.12749213971068940, -678.4096080765718852 ) ) ;
#641 = CARTESIAN_POINT ( 'NONE',  ( 47.80308861636380158, -82.19518397086160633, -677.0072289488637125 ) ) ;
#642 = ORIENTED_EDGE ( 'NONE', *, *, #348, .F. ) ;
#643 = ADVANCED_BREP_SHAPE_REPRESENTATION ( 'Big pod hinge arm', ( #51, #191 ), #623 ) ;
#644 = CARTESIAN_POINT ( 'NONE',  ( 35.58108927551896272, -70.20801601289544180, -675.2650360391521644 ) ) ;
#645 = ADVANCED_FACE ( 'NONE', ( #604 ), #630, .F. ) ;
#646 = B_SPLINE_CURVE_WITH_KNOTS ( 'NONE', 3,
 ( #199, #98, #529, #579, #109, #577, #531, #525, #364, #37, #307, #33, #479, #408, #149, #300, #647, #258, #484, #250, #704, #204, #311, #362, #39, #262, #472, #163, #641, #254, #482, #629, #583, #209, #701, #528, #415, #489 ),
 .UNSPECIFIED., .F., .F.,
 ( 4, 2, 2, 2, 2, 2, 2, 2, 2, 2, 2, 2, 2, 2, 2, 2, 2, 2, 4 ),
 ( 0.000000000000000000, 0.003137782019673242620, 0.004706673029509887349, 0.006275564039346532945, 0.009413346059019835413, 0.01098223706885649749, 0.01255112807869315783, 0.01882669211803982695, 0.02510225615738649954, 0.03137782019673317213, 0.03451560221640650322, 0.03765338423607983431, 0.03922227524591649639, 0.04079116625575314459, 0.04392894827542643404, 0.04549783928526309612, 0.04706673029509975126, 0.04863562130493641333, 0.05020451231477307541 ),
 .UNSPECIFIED. ) ;
#647 = CARTESIAN_POINT ( 'NONE',  ( 31.33779766738745209, -71.20929344747220568, -675.4105598570623670 ) ) ;
#648 = VERTEX_POINT ( 'NONE', #557 ) ;
#649 = CARTESIAN_POINT ( 'NONE',  ( 21.47139460079169027, -53.55897330072283324, -672.8452948402016318 ) ) ;
#650 = CARTESIAN_POINT ( 'NONE',  ( 18.56630809630508949, -55.64168581215586329, -679.2110308273499868 ) ) ;
#651 = CARTESIAN_POINT ( 'NONE',  ( 50.44556384399903948, -88.84200650954652190, -678.4407995600636241 ) ) ;
#652 = ADVANCED_FACE ( 'NONE', ( #614 ), #337, .F. ) ;
#653 = CIRCLE ( 'NONE', #186, 3.000000000000113687 ) ;
#654 = VECTOR ( 'NONE', #554, 1000.000000000000114 ) ;
#655 = ORIENTED_EDGE ( 'NONE', *, *, #206, .T. ) ;
#656 = CARTESIAN_POINT ( 'NONE',  ( 49.76260536316326721, -79.93159638904721476, -676.6782432994280043 ) ) ;
#657 = CARTESIAN_POINT ( 'NONE',  ( 18.47139460079169382, -53.55897330072283324, -678.9083332274572058 ) ) ;
#658 = CARTESIAN_POINT ( 'NONE',  ( 18.47139460079169382, -50.55897330072291851, -674.1907995600636241 ) ) ;
#659 = ORIENTED_EDGE ( 'NONE', *, *, #389, .T. ) ;
#660 = ADVANCED_FACE ( 'NONE', ( #89 ), #676, .F. ) ;
#661 = LINE ( 'NONE', #651, #572 ) ;
#662 = CIRCLE ( 'NONE', #350, 1.249999999999973355 ) ;
#663 = ORIENTED_EDGE ( 'NONE', *, *, #603, .F. ) ;
#664 = ORIENTED_EDGE ( 'NONE', *, *, #699, .T. ) ;
#665 = CARTESIAN_POINT ( 'NONE',  ( 71.60494210533971682, -50.55897330072291851, -674.1907995600636241 ) ) ;
#666 = EDGE_LOOP ( 'NONE', ( #552, #342, #394, #383 ) ) ;
#667 = DIRECTION ( 'NONE',  ( 0.000000000000000000, -0.9896028388360627037, -0.1438270536707394465 ) ) ;
#668 = CARTESIAN_POINT ( 'NONE',  ( 71.60494210533971682, -50.55897330072291851, -676.6907995600636241 ) ) ;
#669 = DIRECTION ( 'NONE',  ( 0.000000000000000000, -0.9896028388360627037, -0.1438270536707394465 ) ) ;
#670 = ORIENTED_EDGE ( 'NONE', *, *, #595, .F. ) ;
#671 = CARTESIAN_POINT ( 'NONE',  ( 31.66090973674126730, -71.42801845824962470, -684.1034503365641513 ) ) ;
#672 = EDGE_CURVE ( 'NONE', #377, #182, #243, .T. ) ;
#673 = CARTESIAN_POINT ( 'NONE',  ( 71.60594210533972159, -50.55897330072291851, -675.4407995600636241 ) ) ;
#674 = VECTOR ( 'NONE', #681, 1000.000000000000000 ) ;
#675 = CARTESIAN_POINT ( 'NONE',  ( 18.47139460079169737, -50.99045446173515472, -672.4719910435553629 ) ) ;
#676 = CYLINDRICAL_SURFACE ( 'NONE', #140, 1.249999999999973355 ) ;
#677 = ORIENTED_EDGE ( 'NONE', *, *, #459, .F. ) ;
#678 = VECTOR ( 'NONE', #144, 1000.000000000000000 ) ;
#679 = CARTESIAN_POINT ( 'NONE',  ( 24.05401647625055972, -61.33418566083345524, -680.0383682693271794 ) ) ;
#680 = CARTESIAN_POINT ( 'NONE',  ( 53.41352334966687465, -87.78971830498782936, -683.8833666506720874 ) ) ;
#681 = DIRECTION ( 'NONE',  ( -1.000000000000000000, -0.000000000000000000, -0.000000000000000000 ) ) ;
#682 =( NAMED_UNIT ( * ) SI_UNIT ( $, .STERADIAN. ) SOLID_ANGLE_UNIT ( ) );
#683 = CARTESIAN_POINT ( 'NONE',  ( 46.27791803173353458, -76.78810325225727240, -682.2844121847422230 ) ) ;
#684 = EDGE_CURVE ( 'NONE', #21, #617, #309, .T. ) ;
#685 = CARTESIAN_POINT ( 'NONE',  ( 24.37550903405775315, -61.75365862918722826, -680.0993336978459638 ) ) ;
#686 = CARTESIAN_POINT ( 'NONE',  ( 19.17485402892465984, -58.45006268181371212, -684.1034503365638102 ) ) ;
#687 = CARTESIAN_POINT ( 'NONE',  ( 71.60594210533972159, -50.99045446173515472, -672.4719910435553629 ) ) ;
#688 =( LENGTH_UNIT ( ) NAMED_UNIT ( * ) SI_UNIT ( .MILLI., .METRE. ) );
#689 = CARTESIAN_POINT ( 'NONE',  ( 52.00662355398148406, -83.07660411851442461, -683.1983713167342103 ) ) ;
#690 = DIRECTION ( 'NONE',  ( 0.000000000000000000, -0.9896028388360627037, -0.1438270536707394742 ) ) ;
#691 = CARTESIAN_POINT ( 'NONE',  ( 50.09621491205905386, -86.24946185075481253, -683.6595086148868177 ) ) ;
#692 = PRODUCT_CONTEXT ( 'NONE', #32, 'mechanical' ) ;
#693 = CARTESIAN_POINT ( 'NONE',  ( 18.47139460079169737, -50.55897330072291851, -675.4407995600636241 ) ) ;
#694 = CARTESIAN_POINT ( 'NONE',  ( 21.47139460079169027, -53.55897330072283324, -678.4407995600636241 ) ) ;
#695 = CARTESIAN_POINT ( 'NONE',  ( 45.94193089718351786, -80.38943304752028496, -682.8078228232551510 ) ) ;
#696 =( NAMED_UNIT ( * ) PLANE_ANGLE_UNIT ( ) SI_UNIT ( $, .RADIAN. ) );
#697 = DIRECTION ( 'NONE',  ( 0.000000000000000000, 0.000000000000000000, -1.000000000000000000 ) ) ;
#698 = CARTESIAN_POINT ( 'NONE',  ( 71.60594210533972159, -50.99045446173515472, -672.4719910435553629 ) ) ;
#699 = EDGE_CURVE ( 'NONE', #80, #124, #227, .T. ) ;
#700 = CARTESIAN_POINT ( 'NONE',  ( 27.68936626115378985, -65.06360334631821729, -674.5173565786017207 ) ) ;
#701 = CARTESIAN_POINT ( 'NONE',  ( 50.22865362503310394, -86.75315364284999475, -677.6696758648542982 ) ) ;
#702 = CARTESIAN_POINT ( 'NONE',  ( 31.09512428822213437, -67.50441056061434608, -674.8720990029700033 ) ) ;
#703 = LINE ( 'NONE', #467, #314 ) ;
#704 = CARTESIAN_POINT ( 'NONE',  ( 40.40531868887111955, -76.45673235132692014, -676.1732129611565369 ) ) ;
#705 = EDGE_LOOP ( 'NONE', ( #138, #3, #15, #166 ) ) ;
#706 = FACE_BOUND ( 'NONE', #441, .T. ) ;
#707 = EDGE_LOOP ( 'NONE', ( #677, #601, #323, #43, #120 ) ) ;
#708 = CARTESIAN_POINT ( 'NONE',  ( 50.44556384399903948, -88.84200650954652190, -678.4407995600636241 ) ) ;
#709 = CARTESIAN_POINT ( 'NONE',  ( 18.47139460079169737, -50.12749213971068940, -678.4096080765718852 ) ) ;
#710 = DIRECTION ( 'NONE',  ( 0.000000000000000000, 0.000000000000000000, 1.000000000000000000 ) ) ;
#711 = CARTESIAN_POINT ( 'NONE',  ( 53.44556384399903948, -50.12749213971068940, -678.4096080765718852 ) ) ;
#712 = VERTEX_POINT ( 'NONE', #152 ) ;
ENDSEC;
END-ISO-10303-21;
