ISO-10303-21;
HEADER;
FILE_DESCRIPTION (( 'STEP AP214' ),
    '1' );
FILE_NAME ('little pod hinge arm.STEP',
    '2026-06-12T15:21:21',
    ( '' ),
    ( '' ),
    'SwSTEP 2.0',
    'SolidWorks 2024',
    '' );
FILE_SCHEMA (( 'AUTOMOTIVE_DESIGN' ));
ENDSEC;

DATA;
#1 = CARTESIAN_POINT ( 'NONE',  ( -15.93972795847417245, -44.51970533040672251, -684.0592892403589076 ) ) ;
#2 = FACE_BOUND ( 'NONE', #564, .T. ) ;
#3 = ORIENTED_EDGE ( 'NONE', *, *, #253, .T. ) ;
#4 = CIRCLE ( 'NONE', #92, 5.939270076138875254 ) ;
#5 = CYLINDRICAL_SURFACE ( 'NONE', #382, 2.999999999999974687 ) ;
#6 = EDGE_CURVE ( 'NONE', #420, #401, #622, .T. ) ;
#7 = CIRCLE ( 'NONE', #249, 5.939270076138875254 ) ;
#8 = VERTEX_POINT ( 'NONE', #372 ) ;
#9 = VECTOR ( 'NONE', #561, 1000.000000000000000 ) ;
#10 = EDGE_CURVE ( 'NONE', #420, #439, #109, .T. ) ;
#11 = DIRECTION ( 'NONE',  ( 1.000000000000000000, 0.000000000000000000, 0.000000000000000000 ) ) ;
#12 = ORIENTED_EDGE ( 'NONE', *, *, #74, .T. ) ;
#13 = ORIENTED_EDGE ( 'NONE', *, *, #42, .F. ) ;
#14 = ADVANCED_FACE ( 'NONE', ( #231 ), #43, .T. ) ;
#15 = CARTESIAN_POINT ( 'NONE',  ( 0.000000000000000000, -39.85703875930968110, -680.2831085711147807 ) ) ;
#16 = VERTEX_POINT ( 'NONE', #433 ) ;
#17 = MECHANICAL_DESIGN_GEOMETRIC_PRESENTATION_REPRESENTATION (  '', ( #327 ), #497 ) ;
#18 = DIRECTION ( 'NONE',  ( 0.000000000000000000, 0.7169106076504834224, 0.6971651028545636786 ) ) ;
#19 = DIRECTION ( 'NONE',  ( -1.000000000000000000, 0.000000000000000000, 0.000000000000000000 ) ) ;
#20 = ORIENTED_EDGE ( 'NONE', *, *, #129, .F. ) ;
#21 = SURFACE_STYLE_FILL_AREA ( #320 ) ;
#22 = CARTESIAN_POINT ( 'NONE',  ( 5.000000000000000000, -42.18837204485814851, -682.1711989057367873 ) ) ;
#23 = EDGE_CURVE ( 'NONE', #302, #183, #493, .T. ) ;
#24 = PRODUCT_DEFINITION ( 'UNKNOWN', '', #470, #371 ) ;
#25 = VERTEX_POINT ( 'NONE', #234 ) ;
#26 = CARTESIAN_POINT ( 'NONE',  ( 8.000000000000000000, -44.11235869963614675, -675.4407995600637378 ) ) ;
#27 = ORIENTED_EDGE ( 'NONE', *, *, #222, .F. ) ;
#28 = CIRCLE ( 'NONE', #156, 1.099999999999966782 ) ;
#29 = CARTESIAN_POINT ( 'NONE',  ( 8.000000000000000000, -35.24156608585471417, -676.5451490959586636 ) ) ;
#30 = AXIS2_PLACEMENT_3D ( 'NONE', #224, #419, #71 ) ;
#31 = CIRCLE ( 'NONE', #277, 11.93927007613882196 ) ;
#32 = ORIENTED_EDGE ( 'NONE', *, *, #80, .F. ) ;
#33 = DIRECTION ( 'NONE',  ( -1.000000000000000000, -0.000000000000000000, -0.000000000000000000 ) ) ;
#34 = LINE ( 'NONE', #416, #148 ) ;
#35 = VERTEX_POINT ( 'NONE', #141 ) ;
#36 = AXIS2_PLACEMENT_3D ( 'NONE', #46, #573, #190 ) ;
#37 = DIRECTION ( 'NONE',  ( 0.000000000000000000, -0.7169106076504901948, -0.6971651028545569062 ) ) ;
#38 = FACE_OUTER_BOUND ( 'NONE', #336, .T. ) ;
#39 = DIRECTION ( 'NONE',  ( -1.000000000000000000, -0.000000000000000000, 0.000000000000000000 ) ) ;
#40 = AXIS2_PLACEMENT_3D ( 'NONE', #104, #297, #186 ) ;
#41 = PRODUCT_CONTEXT ( 'NONE', #378, 'mechanical' ) ;
#42 = EDGE_CURVE ( 'NONE', #151, #178, #588, .T. ) ;
#43 = CYLINDRICAL_SURFACE ( 'NONE', #578, 2.999999999999969358 ) ;
#44 = CARTESIAN_POINT ( 'NONE',  ( 5.000000000000000000, -29.51040691723381215, -683.4278518413749453 ) ) ;
#45 =( GEOMETRIC_REPRESENTATION_CONTEXT ( 3 ) GLOBAL_UNCERTAINTY_ASSIGNED_CONTEXT ( ( #463 ) ) GLOBAL_UNIT_ASSIGNED_CONTEXT ( ( #616, #472, #566 ) ) REPRESENTATION_CONTEXT ( 'NONE', 'WORKASPACE' ) );
#46 = CARTESIAN_POINT ( 'NONE',  ( 71.60594210533972159, -44.11235869963614675, -675.4407995600637378 ) ) ;
#47 = DIRECTION ( 'NONE',  ( -1.000000000000000000, 0.000000000000000000, 0.000000000000000000 ) ) ;
#48 = ORIENTED_EDGE ( 'NONE', *, *, #565, .F. ) ;
#49 = ORIENTED_EDGE ( 'NONE', *, *, #158, .F. ) ;
#50 = ORIENTED_EDGE ( 'NONE', *, *, #180, .F. ) ;
#51 = FACE_OUTER_BOUND ( 'NONE', #62, .T. ) ;
#52 = ADVANCED_FACE ( 'NONE', ( #51, #614 ), #576, .F. ) ;
#53 = CIRCLE ( 'NONE', #236, 2.999999999999974687 ) ;
#54 = ORIENTED_EDGE ( 'NONE', *, *, #107, .T. ) ;
#55 = EDGE_CURVE ( 'NONE', #8, #599, #102, .T. ) ;
#56 = DIRECTION ( 'NONE',  ( 1.000000000000000000, 0.000000000000000000, 0.000000000000000000 ) ) ;
#57 = ORIENTED_EDGE ( 'NONE', *, *, #42, .T. ) ;
#58 = ADVANCED_FACE ( 'NONE', ( #2, #394, #203 ), #446, .T. ) ;
#59 = AXIS2_PLACEMENT_3D ( 'NONE', #114, #306, #351 ) ;
#60 = DIRECTION ( 'NONE',  ( 1.000000000000000000, 0.000000000000000000, 0.000000000000000000 ) ) ;
#61 = CARTESIAN_POINT ( 'NONE',  ( 0.000000000000000000, -32.97671539379000905, -683.3921954121714180 ) ) ;
#62 = EDGE_LOOP ( 'NONE', ( #32, #57, #307, #154, #240 ) ) ;
#63 = CIRCLE ( 'NONE', #30, 2.999999999999969358 ) ;
#64 = FACE_OUTER_BOUND ( 'NONE', #590, .T. ) ;
#65 = DIRECTION ( 'NONE',  ( -1.000000000000000000, 0.000000000000000000, 0.000000000000000000 ) ) ;
#66 = ORIENTED_EDGE ( 'NONE', *, *, #138, .F. ) ;
#67 = CARTESIAN_POINT ( 'NONE',  ( -15.93972795847417245, -35.12744721674143733, -685.4836907207351260 ) ) ;
#68 = VERTEX_POINT ( 'NONE', #526 ) ;
#69 = DIRECTION ( 'NONE',  ( 1.000000000000000000, 0.000000000000000000, 0.000000000000000000 ) ) ;
#70 = CARTESIAN_POINT ( 'NONE',  ( 8.000000000000000000, -47.08937780910227389, -675.0701822076996450 ) ) ;
#71 = DIRECTION ( 'NONE',  ( 0.000000000000000000, -0.7169106076504824232, -0.6971651028545648998 ) ) ;
#72 = EDGE_CURVE ( 'NONE', #302, #133, #585, .T. ) ;
#73 = EDGE_LOOP ( 'NONE', ( #595, #171, #431, #13, #20, #316 ) ) ;
#74 = EDGE_CURVE ( 'NONE', #94, #111, #118, .T. ) ;
#75 = DIRECTION ( 'NONE',  ( 1.000000000000000000, 0.000000000000000000, 0.000000000000000000 ) ) ;
#76 = DIRECTION ( 'NONE',  ( 1.000000000000000000, 0.000000000000000000, 0.000000000000000000 ) ) ;
#77 = CARTESIAN_POINT ( 'NONE',  ( 8.000000000000000000, -26.53378739674350228, -684.7134267756438248 ) ) ;
#78 = EDGE_LOOP ( 'NONE', ( #619, #535, #441, #505, #162, #91, #531, #429 ) ) ;
#79 = DIRECTION ( 'NONE',  ( -1.000000000000000000, -0.000000000000000000, 0.000000000000000000 ) ) ;
#80 = EDGE_CURVE ( 'NONE', #151, #494, #199, .T. ) ;
#81 = CARTESIAN_POINT ( 'NONE',  ( 8.000000000000007105, -27.93320358040274698, -681.8940886150949154 ) ) ;
#82 = DIRECTION ( 'NONE',  ( 0.000000000000000000, -0.7169106076504901948, -0.6971651028545569062 ) ) ;
#83 = FACE_OUTER_BOUND ( 'NONE', #113, .T. ) ;
#84 = VERTEX_POINT ( 'NONE', #112 ) ;
#85 = ORIENTED_EDGE ( 'NONE', *, *, #230, .T. ) ;
#86 = PRESENTATION_LAYER_ASSIGNMENT (  '', '', ( #327 ) ) ;
#87 = CARTESIAN_POINT ( 'NONE',  ( 8.000000000000007105, -28.72180524881828845, -682.6609702282348735 ) ) ;
#88 = CYLINDRICAL_SURFACE ( 'NONE', #98, 3.000000000000003997 ) ;
#89 = ORIENTED_EDGE ( 'NONE', *, *, #365, .T. ) ;
#90 = CARTESIAN_POINT ( 'NONE',  ( 0.000000000000000000, 0.000000000000000000, 0.000000000000000000 ) ) ;
#91 = ORIENTED_EDGE ( 'NONE', *, *, #275, .F. ) ;
#92 = AXIS2_PLACEMENT_3D ( 'NONE', #440, #11, #398 ) ;
#93 = DIRECTION ( 'NONE',  ( 0.000000000000000000, 0.7169106076504200287, 0.6971651028546290707 ) ) ;
#94 = VERTEX_POINT ( 'NONE', #530 ) ;
#95 = AXIS2_PLACEMENT_3D ( 'NONE', #90, #139, #423 ) ;
#96 = ORIENTED_EDGE ( 'NONE', *, *, #430, .T. ) ;
#97 = ORIENTED_EDGE ( 'NONE', *, *, #158, .T. ) ;
#98 = AXIS2_PLACEMENT_3D ( 'NONE', #271, #606, #459 ) ;
#99 = CARTESIAN_POINT ( 'NONE',  ( 5.000000000000000000, -44.11235869963614675, -675.4407995600637378 ) ) ;
#100 = CARTESIAN_POINT ( 'NONE',  ( 8.000000000000000000, -35.24156608585471417, -676.5451490959586636 ) ) ;
#101 = ORIENTED_EDGE ( 'NONE', *, *, #438, .F. ) ;
#102 = CIRCLE ( 'NONE', #521, 1.099999999999966782 ) ;
#103 = FACE_OUTER_BOUND ( 'NONE', #475, .T. ) ;
#104 = CARTESIAN_POINT ( 'NONE',  ( 5.000000000000000000, -39.67696239274543046, -675.9929743280112007 ) ) ;
#105 = DIRECTION ( 'NONE',  ( 0.000000000000000000, -0.7169106076504981884, -0.6971651028545485795 ) ) ;
#106 = ORIENTED_EDGE ( 'NONE', *, *, #175, .F. ) ;
#107 = EDGE_CURVE ( 'NONE', #516, #572, #481, .T. ) ;
#108 = VERTEX_POINT ( 'NONE', #15 ) ;
#109 = CIRCLE ( 'NONE', #457, 5.939270076138875254 ) ;
#110 = CARTESIAN_POINT ( 'NONE',  ( 8.000000000000000000, -41.13533959017001962, -675.8114169124276032 ) ) ;
#111 = VERTEX_POINT ( 'NONE', #61 ) ;
#112 = CARTESIAN_POINT ( 'NONE',  ( 0.000000000000000000, -44.51970533040672251, -684.0592892403589076 ) ) ;
#113 = EDGE_LOOP ( 'NONE', ( #48, #221, #96, #436 ) ) ;
#114 = CARTESIAN_POINT ( 'NONE',  ( 8.000000000000007105, -28.72180524881828845, -682.6609702282348735 ) ) ;
#115 = CARTESIAN_POINT ( 'NONE',  ( 8.000000000000000000, -26.53378739674350228, -684.7134267756438248 ) ) ;
#116 = AXIS2_PLACEMENT_3D ( 'NONE', #140, #380, #182 ) ;
#117 = VERTEX_POINT ( 'NONE', #251 ) ;
#118 = CIRCLE ( 'NONE', #466, 2.999999999999969358 ) ;
#119 = DIRECTION ( 'NONE',  ( 0.000000000000000000, 0.7169106076504834224, 0.6971651028545636786 ) ) ;
#120 = CARTESIAN_POINT ( 'NONE',  ( 5.000000000000000000, -30.90982310089296448, -680.6085136808258085 ) ) ;
#121 = ORIENTED_EDGE ( 'NONE', *, *, #357, .T. ) ;
#122 =( NAMED_UNIT ( * ) PLANE_ANGLE_UNIT ( ) SI_UNIT ( $, .RADIAN. ) );
#123 = CYLINDRICAL_SURFACE ( 'NONE', #303, 11.93927007613882196 ) ;
#124 = VECTOR ( 'NONE', #19, 1000.000000000000000 ) ;
#125 = EDGE_CURVE ( 'NONE', #516, #420, #4, .T. ) ;
#126 = CARTESIAN_POINT ( 'NONE',  ( 8.000000000000000000, -41.13533959017001962, -675.8114169124276032 ) ) ;
#127 = DIRECTION ( 'NONE',  ( 0.000000000000000000, 0.7169106076504810909, 0.6971651028545662321 ) ) ;
#128 = CARTESIAN_POINT ( 'NONE',  ( 8.000000000000000000, -35.24156608585471417, -676.5451490959586636 ) ) ;
#129 = EDGE_CURVE ( 'NONE', #322, #151, #160, .T. ) ;
#130 = VECTOR ( 'NONE', #610, 1000.000000000000000 ) ;
#131 = PRODUCT_RELATED_PRODUCT_CATEGORY ( 'part', '', ( #395 ) ) ;
#132 = CYLINDRICAL_SURFACE ( 'NONE', #577, 5.939270076138877918 ) ;
#133 = VERTEX_POINT ( 'NONE', #354 ) ;
#134 = APPLICATION_PROTOCOL_DEFINITION ( 'draft international standard', 'automotive_design', 1998, #378 ) ;
#135 = DIRECTION ( 'NONE',  ( 0.000000000000000000, 0.7169106076504825342, 0.6971651028545647888 ) ) ;
#136 = ORIENTED_EDGE ( 'NONE', *, *, #448, .T. ) ;
#137 = AXIS2_PLACEMENT_3D ( 'NONE', #451, #551, #600 ) ;
#138 = EDGE_CURVE ( 'NONE', #108, #25, #349, .T. ) ;
#139 = DIRECTION ( 'NONE',  ( 0.000000000000000000, 0.000000000000000000, 1.000000000000000000 ) ) ;
#140 = CARTESIAN_POINT ( 'NONE',  ( 8.000000000000000000, -35.24156608585471417, -676.5451490959586636 ) ) ;
#141 = CARTESIAN_POINT ( 'NONE',  ( 5.000000000000000000, -47.08937780910227389, -675.0701822076996450 ) ) ;
#142 = FACE_OUTER_BOUND ( 'NONE', #603, .T. ) ;
#143 = EDGE_LOOP ( 'NONE', ( #101, #286, #211, #350 ) ) ;
#144 = EDGE_LOOP ( 'NONE', ( #326, #235, #444, #136, #106 ) ) ;
#145 = CIRCLE ( 'NONE', #229, 11.93927007613882196 ) ;
#146 = DIRECTION ( 'NONE',  ( 0.000000000000000000, 0.7169106076504787595, 0.6971651028545686746 ) ) ;
#147 = ORIENTED_EDGE ( 'NONE', *, *, #187, .T. ) ;
#148 = VECTOR ( 'NONE', #596, 1000.000000000000000 ) ;
#149 = CARTESIAN_POINT ( 'NONE',  ( 5.000000000000000000, -28.72180524881828845, -682.6609702282348735 ) ) ;
#150 = CARTESIAN_POINT ( 'NONE',  ( 0.000000000000000000, -35.12744721674143733, -685.4836907207351260 ) ) ;
#151 = VERTEX_POINT ( 'NONE', #540 ) ;
#152 = LINE ( 'NONE', #1, #450 ) ;
#153 = DIRECTION ( 'NONE',  ( 1.000000000000000000, 0.000000000000000000, 0.000000000000000000 ) ) ;
#154 = ORIENTED_EDGE ( 'NONE', *, *, #508, .F. ) ;
#155 = CARTESIAN_POINT ( 'NONE',  ( -15.93972795847417245, -39.85703875930968110, -680.2831085711147807 ) ) ;
#156 = AXIS2_PLACEMENT_3D ( 'NONE', #264, #181, #373 ) ;
#157 = EDGE_LOOP ( 'NONE', ( #50, #392, #3, #252, #273, #584 ) ) ;
#158 = EDGE_CURVE ( 'NONE', #510, #314, #334, .T. ) ;
#159 = CARTESIAN_POINT ( 'NONE',  ( -15.93972795847417245, -32.97671539379000905, -683.3921954121714180 ) ) ;
#160 = LINE ( 'NONE', #443, #507 ) ;
#161 = AXIS2_PLACEMENT_3D ( 'NONE', #411, #554, #591 ) ;
#162 = ORIENTED_EDGE ( 'NONE', *, *, #74, .F. ) ;
#163 = DIRECTION ( 'NONE',  ( 1.000000000000000000, 0.000000000000000000, 0.000000000000000000 ) ) ;
#164 = CARTESIAN_POINT ( 'NONE',  ( 71.60594210533972159, -43.32375703122062305, -674.6739179469237797 ) ) ;
#165 =( LENGTH_UNIT ( ) NAMED_UNIT ( * ) SI_UNIT ( .MILLI., .METRE. ) );
#166 = CARTESIAN_POINT ( 'NONE',  ( 5.000000000000000000, -40.03764022190664917, -680.0797035971730793 ) ) ;
#167 = ADVANCED_FACE ( 'NONE', ( #537 ), #123, .T. ) ;
#168 = CIRCLE ( 'NONE', #607, 11.93927007613882196 ) ;
#169 = CARTESIAN_POINT ( 'NONE',  ( 8.000000000000000000, -43.80095545104258292, -684.8687915465984588 ) ) ;
#170 = DIRECTION ( 'NONE',  ( -1.000000000000000000, 0.000000000000000000, 0.000000000000000000 ) ) ;
#171 = ORIENTED_EDGE ( 'NONE', *, *, #10, .T. ) ;
#172 = DIRECTION ( 'NONE',  ( -1.000000000000000000, 0.000000000000000000, 0.000000000000000000 ) ) ;
#173 = DIRECTION ( 'NONE',  ( -1.000000000000000000, 0.000000000000000000, 0.000000000000000000 ) ) ;
#174 = EDGE_LOOP ( 'NONE', ( #352, #192, #399, #462, #500, #460 ) ) ;
#175 = EDGE_CURVE ( 'NONE', #202, #25, #215, .T. ) ;
#176 = CARTESIAN_POINT ( 'NONE',  ( 8.000000000000000000, -30.90982310089296448, -680.6085136808258085 ) ) ;
#177 = CYLINDRICAL_SURFACE ( 'NONE', #36, 1.099999999999966782 ) ;
#178 = VERTEX_POINT ( 'NONE', #120 ) ;
#179 = EDGE_CURVE ( 'NONE', #117, #84, #615, .T. ) ;
#180 = EDGE_CURVE ( 'NONE', #285, #255, #318, .T. ) ;
#181 = DIRECTION ( 'NONE',  ( -1.000000000000000000, -0.000000000000000000, 0.000000000000000000 ) ) ;
#182 = DIRECTION ( 'NONE',  ( 0.000000000000000000, -0.7169106076504810909, -0.6971651028545662321 ) ) ;
#183 = VERTEX_POINT ( 'NONE', #555 ) ;
#184 = ADVANCED_FACE ( 'NONE', ( #363 ), #361, .F. ) ;
#185 = CARTESIAN_POINT ( 'NONE',  ( 8.000000000000000000, -28.72180524881828845, -682.6609702282348735 ) ) ;
#186 = DIRECTION ( 'NONE',  ( 0.000000000000000000, 0.7169106076504825342, 0.6971651028545647888 ) ) ;
#187 = EDGE_CURVE ( 'NONE', #314, #510, #200, .T. ) ;
#188 = AXIS2_PLACEMENT_3D ( 'NONE', #418, #33, #604 ) ;
#189 = AXIS2_PLACEMENT_3D ( 'NONE', #26, #260, #18 ) ;
#190 = DIRECTION ( 'NONE',  ( 0.000000000000000000, -0.7169106076504981884, -0.6971651028545485795 ) ) ;
#191 = ORIENTED_EDGE ( 'NONE', *, *, #465, .T. ) ;
#192 = ORIENTED_EDGE ( 'NONE', *, *, #180, .T. ) ;
#193 = CIRCLE ( 'NONE', #539, 1.099999999999966782 ) ;
#194 = DIRECTION ( 'NONE',  ( 0.000000000000000000, 0.7169106076504830893, 0.6971651028545643447 ) ) ;
#195 = CARTESIAN_POINT ( 'NONE',  ( 8.000000000000000000, -39.49949180513974767, -680.6858009294710428 ) ) ;
#196 = CARTESIAN_POINT ( 'NONE',  ( 8.000000000000000000, -39.49949180513972635, -680.6858009294710428 ) ) ;
#197 = DIRECTION ( 'NONE',  ( 0.000000000000000000, 0.7169106076504825342, 0.6971651028545647888 ) ) ;
#198 = EDGE_CURVE ( 'NONE', #94, #544, #34, .T. ) ;
#199 = CIRCLE ( 'NONE', #543, 2.999999999999969358 ) ;
#200 = CIRCLE ( 'NONE', #263, 1.100000000000016742 ) ;
#201 = DIRECTION ( 'NONE',  ( 0.000000000000000000, -0.7169106076504834224, -0.6971651028545636786 ) ) ;
#202 = VERTEX_POINT ( 'NONE', #166 ) ;
#203 = FACE_OUTER_BOUND ( 'NONE', #292, .T. ) ;
#204 = ORIENTED_EDGE ( 'NONE', *, *, #304, .T. ) ;
#205 = AXIS2_PLACEMENT_3D ( 'NONE', #99, #335, #332 ) ;
#206 = DIRECTION ( 'NONE',  ( 1.000000000000000000, 0.000000000000000000, 0.000000000000000000 ) ) ;
#207 = DIRECTION ( 'NONE',  ( 0.000000000000000000, -0.7169106076504981884, -0.6971651028545485795 ) ) ;
#208 = ORIENTED_EDGE ( 'NONE', *, *, #129, .T. ) ;
#209 = ADVANCED_FACE ( 'NONE', ( #268 ), #321, .F. ) ;
#210 = AXIS2_PLACEMENT_3D ( 'NONE', #612, #278, #232 ) ;
#211 = ORIENTED_EDGE ( 'NONE', *, *, #556, .T. ) ;
#212 = LINE ( 'NONE', #164, #337 ) ;
#213 = CARTESIAN_POINT ( 'NONE',  ( 0.000000000000000000, -35.16574526618221341, -682.4839351874609292 ) ) ;
#214 = SURFACE_SIDE_STYLE ('',( #21 ) ) ;
#215 = CIRCLE ( 'NONE', #269, 3.000000000000003997 ) ;
#216 = CARTESIAN_POINT ( 'NONE',  ( 5.000000000000000000, -35.08914916730054756, -688.4834462540092090 ) ) ;
#217 = CARTESIAN_POINT ( 'NONE',  ( 0.000000000000000000, -43.80095545104258292, -684.8687915465984588 ) ) ;
#218 = LINE ( 'NONE', #270, #9 ) ;
#219 = ORIENTED_EDGE ( 'NONE', *, *, #283, .F. ) ;
#220 = DIRECTION ( 'NONE',  ( 0.000000000000000000, 0.7169106076504310199, 0.6971651028546178575 ) ) ;
#221 = ORIENTED_EDGE ( 'NONE', *, *, #179, .T. ) ;
#222 = EDGE_CURVE ( 'NONE', #510, #8, #218, .T. ) ;
#223 = DIRECTION ( 'NONE',  ( -1.000000000000000000, 0.000000000000000000, 0.000000000000000000 ) ) ;
#224 = CARTESIAN_POINT ( 'NONE',  ( 5.000000000000000000, -35.12744721674143733, -685.4836907207351260 ) ) ;
#225 = CLOSED_SHELL ( 'NONE', ( #359, #403, #209, #558, #244, #356, #52, #482, #167, #383, #362, #58, #323, #471, #333, #14, #319, #184 ) ) ;
#226 = FACE_OUTER_BOUND ( 'NONE', #311, .T. ) ;
#227 = CARTESIAN_POINT ( 'NONE',  ( 5.000000000000000000, -26.53378739674350228, -684.7134267756438248 ) ) ;
#228 = DIRECTION ( 'NONE',  ( 1.000000000000000000, 0.000000000000000000, 0.000000000000000000 ) ) ;
#229 = AXIS2_PLACEMENT_3D ( 'NONE', #437, #60, #386 ) ;
#230 = EDGE_CURVE ( 'NONE', #108, #117, #581, .T. ) ;
#231 = FACE_OUTER_BOUND ( 'NONE', #262, .T. ) ;
#232 = DIRECTION ( 'NONE',  ( 0.000000000000000000, -0.7169106076504981884, -0.6971651028545485795 ) ) ;
#233 = DIRECTION ( 'NONE',  ( -1.000000000000000000, 0.000000000000000000, 0.000000000000000000 ) ) ;
#234 = CARTESIAN_POINT ( 'NONE',  ( 5.000000000000000000, -39.85703875930968110, -680.2831085711147807 ) ) ;
#235 = ORIENTED_EDGE ( 'NONE', *, *, #243, .F. ) ;
#236 = AXIS2_PLACEMENT_3D ( 'NONE', #405, #163, #119 ) ;
#237 = PLANE ( 'NONE',  #519 ) ;
#238 = DIRECTION ( 'NONE',  ( 1.000000000000000000, 0.000000000000000000, 0.000000000000000000 ) ) ;
#239 = PRODUCT_DEFINITION_SHAPE ( 'NONE', 'NONE',  #24 ) ;
#240 = ORIENTED_EDGE ( 'NONE', *, *, #289, .F. ) ;
#241 = CIRCLE ( 'NONE', #404, 11.93927007613882196 ) ;
#242 = CARTESIAN_POINT ( 'NONE',  ( 8.000000000000000000, -44.11235869963614675, -675.4407995600637378 ) ) ;
#243 = EDGE_CURVE ( 'NONE', #35, #68, #329, .T. ) ;
#244 = ADVANCED_FACE ( 'NONE', ( #366 ), #261, .F. ) ;
#245 = DIRECTION ( 'NONE',  ( -1.000000000000000000, 0.000000000000000000, 0.000000000000000000 ) ) ;
#246 = CARTESIAN_POINT ( 'NONE',  ( 8.000000000000000000, -39.67696239274543046, -675.9929743280112007 ) ) ;
#247 = ORIENTED_EDGE ( 'NONE', *, *, #6, .T. ) ;
#248 = VECTOR ( 'NONE', #534, 1000.000000000000000 ) ;
#249 = AXIS2_PLACEMENT_3D ( 'NONE', #348, #206, #146 ) ;
#250 = DIRECTION ( 'NONE',  ( -1.000000000000000000, -0.000000000000000000, -0.000000000000000000 ) ) ;
#251 = CARTESIAN_POINT ( 'NONE',  ( 0.000000000000000000, -40.03764022190664917, -680.0797035971730793 ) ) ;
#252 = ORIENTED_EDGE ( 'NONE', *, *, #243, .T. ) ;
#253 = EDGE_CURVE ( 'NONE', #328, #35, #315, .T. ) ;
#254 = DIRECTION ( 'NONE',  ( 1.000000000000000000, 0.000000000000000000, 0.000000000000000000 ) ) ;
#255 = VERTEX_POINT ( 'NONE', #217 ) ;
#256 = CARTESIAN_POINT ( 'NONE',  ( 5.000000000000000000, -28.72180524881828845, -682.6609702282348735 ) ) ;
#257 = DIRECTION ( 'NONE',  ( 1.000000000000000000, 0.000000000000000000, 0.000000000000000000 ) ) ;
#258 = ORIENTED_EDGE ( 'NONE', *, *, #528, .T. ) ;
#259 = CIRCLE ( 'NONE', #344, 2.999999999999971578 ) ;
#260 = DIRECTION ( 'NONE',  ( 1.000000000000000000, 0.000000000000000000, 0.000000000000000000 ) ) ;
#261 = CYLINDRICAL_SURFACE ( 'NONE', #396, 5.939270076138877918 ) ;
#262 = EDGE_LOOP ( 'NONE', ( #580, #498, #208, #449 ) ) ;
#263 = AXIS2_PLACEMENT_3D ( 'NONE', #87, #461, #220 ) ;
#264 = CARTESIAN_POINT ( 'NONE',  ( 5.000000000000000000, -44.11235869963614675, -675.4407995600637378 ) ) ;
#265 = DIRECTION ( 'NONE',  ( -1.000000000000000000, 0.000000000000000000, 0.000000000000000000 ) ) ;
#266 = ORIENTED_EDGE ( 'NONE', *, *, #55, .F. ) ;
#267 = LINE ( 'NONE', #159, #501 ) ;
#268 = FACE_OUTER_BOUND ( 'NONE', #143, .T. ) ;
#269 = AXIS2_PLACEMENT_3D ( 'NONE', #22, #79, #82 ) ;
#270 = CARTESIAN_POINT ( 'NONE',  ( 71.60594210533972159, -27.93320358040276474, -681.8940886150949154 ) ) ;
#271 = CARTESIAN_POINT ( 'NONE',  ( -15.93972795847417245, -42.18837204485814851, -682.1711989057367873 ) ) ;
#272 = CIRCLE ( 'NONE', #467, 1.099999999999966782 ) ;
#273 = ORIENTED_EDGE ( 'NONE', *, *, #430, .F. ) ;
#274 = CARTESIAN_POINT ( 'NONE',  ( 0.000000000000000000, -42.18837204485814851, -682.1711989057367873 ) ) ;
#275 = EDGE_CURVE ( 'NONE', #255, #94, #512, .T. ) ;
#276 = ORIENTED_EDGE ( 'NONE', *, *, #455, .T. ) ;
#277 = AXIS2_PLACEMENT_3D ( 'NONE', #548, #312, #127 ) ;
#278 = DIRECTION ( 'NONE',  ( -1.000000000000000000, 0.000000000000000000, 0.000000000000000000 ) ) ;
#279 = CYLINDRICAL_SURFACE ( 'NONE', #389, 3.000000000000003997 ) ;
#280 = CYLINDRICAL_SURFACE ( 'NONE', #210, 1.099999999999966782 ) ;
#281 = VECTOR ( 'NONE', #47, 1000.000000000000000 ) ;
#282 = ORIENTED_EDGE ( 'NONE', *, *, #187, .F. ) ;
#283 = EDGE_CURVE ( 'NONE', #183, #16, #212, .T. ) ;
#284 = DIRECTION ( 'NONE',  ( -1.000000000000000000, -0.000000000000000000, 0.000000000000000000 ) ) ;
#285 = VERTEX_POINT ( 'NONE', #169 ) ;
#286 = ORIENTED_EDGE ( 'NONE', *, *, #283, .T. ) ;
#287 = FACE_OUTER_BOUND ( 'NONE', #73, .T. ) ;
#288 = CARTESIAN_POINT ( 'NONE',  ( -15.93972795847417245, -35.12744721674143733, -685.4836907207351260 ) ) ;
#289 = EDGE_CURVE ( 'NONE', #494, #544, #63, .T. ) ;
#290 = ORIENTED_EDGE ( 'NONE', *, *, #365, .F. ) ;
#291 = CARTESIAN_POINT ( 'NONE',  ( 8.000000000000000000, -28.72180524881828845, -682.6609702282348735 ) ) ;
#292 = EDGE_LOOP ( 'NONE', ( #397, #191, #298, #121, #434, #587 ) ) ;
#293 = ORIENTED_EDGE ( 'NONE', *, *, #384, .T. ) ;
#294 = CIRCLE ( 'NONE', #370, 3.000000000000003997 ) ;
#295 = COLOUR_RGB ( '',0.7921568627450980005, 0.8196078431372548767, 0.9333333333333333481 ) ;
#296 = CYLINDRICAL_SURFACE ( 'NONE', #524, 2.999999999999969358 ) ;
#297 = DIRECTION ( 'NONE',  ( 1.000000000000000000, 0.000000000000000000, -0.000000000000000000 ) ) ;
#298 = ORIENTED_EDGE ( 'NONE', *, *, #426, .T. ) ;
#299 = VERTEX_POINT ( 'NONE', #77 ) ;
#300 = CARTESIAN_POINT ( 'NONE',  ( 8.000000000000007105, -44.11235869963614675, -675.4407995600637378 ) ) ;
#301 = DIRECTION ( 'NONE',  ( -1.000000000000000000, -0.000000000000000000, 0.000000000000000000 ) ) ;
#302 = VERTEX_POINT ( 'NONE', #410 ) ;
#303 = AXIS2_PLACEMENT_3D ( 'NONE', #128, #325, #489 ) ;
#304 = EDGE_CURVE ( 'NONE', #299, #552, #492, .T. ) ;
#305 = CIRCLE ( 'NONE', #368, 5.939270076138838839 ) ;
#306 = DIRECTION ( 'NONE',  ( -1.000000000000000000, -0.000000000000000000, -0.000000000000000000 ) ) ;
#307 = ORIENTED_EDGE ( 'NONE', *, *, #455, .F. ) ;
#308 = AXIS2_PLACEMENT_3D ( 'NONE', #491, #605, #456 ) ;
#309 = DIRECTION ( 'NONE',  ( 0.000000000000000000, 0.7169106076504824232, 0.6971651028545648998 ) ) ;
#310 = DIRECTION ( 'NONE',  ( 0.000000000000000000, -0.7169106076504824232, -0.6971651028545648998 ) ) ;
#311 = EDGE_LOOP ( 'NONE', ( #219, #402, #623, #89 ) ) ;
#312 = DIRECTION ( 'NONE',  ( 1.000000000000000000, 0.000000000000000000, 0.000000000000000000 ) ) ;
#313 = DIRECTION ( 'NONE',  ( 0.000000000000000000, 0.7169106076504901948, 0.6971651028545569062 ) ) ;
#314 = VERTEX_POINT ( 'NONE', #364 ) ;
#315 = LINE ( 'NONE', #70, #124 ) ;
#316 = ORIENTED_EDGE ( 'NONE', *, *, #586, .T. ) ;
#317 = AXIS2_PLACEMENT_3D ( 'NONE', #412, #594, #313 ) ;
#318 = LINE ( 'NONE', #549, #488 ) ;
#319 = ADVANCED_FACE ( 'NONE', ( #83 ), #88, .T. ) ;
#320 = FILL_AREA_STYLE ('',( #324 ) ) ;
#321 = CYLINDRICAL_SURFACE ( 'NONE', #308, 1.099999999999966782 ) ;
#322 = VERTEX_POINT ( 'NONE', #213 ) ;
#323 = ADVANCED_FACE ( 'NONE', ( #571, #421 ), #237, .F. ) ;
#324 = FILL_AREA_STYLE_COLOUR ( '', #295 ) ;
#325 = DIRECTION ( 'NONE',  ( -1.000000000000000000, 0.000000000000000000, 0.000000000000000000 ) ) ;
#326 = ORIENTED_EDGE ( 'NONE', *, *, #579, .F. ) ;
#327 = STYLED_ITEM ( 'NONE', ( #409 ), #547 ) ;
#328 = VERTEX_POINT ( 'NONE', #567 ) ;
#329 = CIRCLE ( 'NONE', #137, 11.93927007613882196 ) ;
#330 = CARTESIAN_POINT ( 'NONE',  ( -15.93972795847417245, -42.18837204485814851, -682.1711989057367873 ) ) ;
#331 = APPLICATION_PROTOCOL_DEFINITION ( 'draft international standard', 'automotive_design', 1998, #413 ) ;
#332 = DIRECTION ( 'NONE',  ( 0.000000000000000000, -0.7169106076504981884, -0.6971651028545485795 ) ) ;
#333 = ADVANCED_FACE ( 'NONE', ( #226 ), #177, .F. ) ;
#334 = CIRCLE ( 'NONE', #59, 1.099999999999966782 ) ;
#335 = DIRECTION ( 'NONE',  ( -1.000000000000000000, -0.000000000000000000, 0.000000000000000000 ) ) ;
#336 = EDGE_LOOP ( 'NONE', ( #276, #538, #485, #204 ) ) ;
#337 = VECTOR ( 'NONE', #265, 1000.000000000000000 ) ;
#338 = FACE_OUTER_BOUND ( 'NONE', #340, .T. ) ;
#339 = DIRECTION ( 'NONE',  ( 0.000000000000000000, 0.7169106076504294656, 0.6971651028546194118 ) ) ;
#340 = EDGE_LOOP ( 'NONE', ( #85, #414, #502, #66 ) ) ;
#341 = CYLINDRICAL_SURFACE ( 'NONE', #514, 1.099999999999966782 ) ;
#342 = ORIENTED_EDGE ( 'NONE', *, *, #556, .F. ) ;
#343 = AXIS2_PLACEMENT_3D ( 'NONE', #274, #408, #458 ) ;
#344 = AXIS2_PLACEMENT_3D ( 'NONE', #256, #582, #194 ) ;
#345 = ORIENTED_EDGE ( 'NONE', *, *, #23, .T. ) ;
#346 = DIRECTION ( 'NONE',  ( 0.000000000000000000, 0.7169106076504824232, 0.6971651028545648998 ) ) ;
#347 = ORIENTED_EDGE ( 'NONE', *, *, #253, .F. ) ;
#348 = CARTESIAN_POINT ( 'NONE',  ( 5.000000000000000000, -35.24156608585471417, -676.5451490959586636 ) ) ;
#349 = LINE ( 'NONE', #155, #248 ) ;
#350 = ORIENTED_EDGE ( 'NONE', *, *, #72, .F. ) ;
#351 = DIRECTION ( 'NONE',  ( 0.000000000000000000, 0.7169106076504981884, 0.6971651028545485795 ) ) ;
#352 = ORIENTED_EDGE ( 'NONE', *, *, #426, .F. ) ;
#353 = CARTESIAN_POINT ( 'NONE',  ( 0.000000000000000000, -35.24156608585471417, -676.5451490959586636 ) ) ;
#354 = CARTESIAN_POINT ( 'NONE',  ( 5.000000000000000000, -44.90096036805167046, -676.2076811732036958 ) ) ;
#355 = ORIENTED_EDGE ( 'NONE', *, *, #499, .T. ) ;
#356 = ADVANCED_FACE ( 'NONE', ( #424 ), #613, .T. ) ;
#357 = EDGE_CURVE ( 'NONE', #299, #439, #417, .T. ) ;
#358 = CARTESIAN_POINT ( 'NONE',  ( 0.000000000000000000, -559.0966298341584206, -1114.709936177272766 ) ) ;
#359 = ADVANCED_FACE ( 'NONE', ( #338 ), #279, .T. ) ;
#360 = DIRECTION ( 'NONE',  ( 0.000000000000000000, 0.7169106076504810909, 0.6971651028545662321 ) ) ;
#361 = PLANE ( 'NONE',  #391 ) ;
#362 = ADVANCED_FACE ( 'NONE', ( #287 ), #132, .F. ) ;
#363 = FACE_OUTER_BOUND ( 'NONE', #78, .T. ) ;
#364 = CARTESIAN_POINT ( 'NONE',  ( 8.000000000000007105, -29.51040691723382992, -683.4278518413749453 ) ) ;
#365 = EDGE_CURVE ( 'NONE', #133, #16, #542, .T. ) ;
#366 = FACE_OUTER_BOUND ( 'NONE', #406, .T. ) ;
#367 = DIRECTION ( 'NONE',  ( 1.000000000000000000, 0.000000000000000000, -0.000000000000000000 ) ) ;
#368 = AXIS2_PLACEMENT_3D ( 'NONE', #369, #509, #93 ) ;
#369 = CARTESIAN_POINT ( 'NONE',  ( 0.000000000000000000, -35.24156608585471417, -676.5451490959586636 ) ) ;
#370 = AXIS2_PLACEMENT_3D ( 'NONE', #415, #284, #37 ) ;
#371 = PRODUCT_DEFINITION_CONTEXT ( 'detailed design', #413, 'design' ) ;
#372 = CARTESIAN_POINT ( 'NONE',  ( 5.000000000000000000, -27.93320358040274698, -681.8940886150949154 ) ) ;
#373 = DIRECTION ( 'NONE',  ( 0.000000000000000000, -0.7169106076504981884, -0.6971651028545485795 ) ) ;
#374 = DIRECTION ( 'NONE',  ( 0.000000000000000000, 0.7169106076504830893, 0.6971651028545643447 ) ) ;
#375 = ORIENTED_EDGE ( 'NONE', *, *, #569, .F. ) ;
#376 = ORIENTED_EDGE ( 'NONE', *, *, #125, .T. ) ;
#377 = CIRCLE ( 'NONE', #188, 5.939270076138854826 ) ;
#378 = APPLICATION_CONTEXT ( 'automotive_design' ) ;
#379 = VECTOR ( 'NONE', #170, 1000.000000000000000 ) ;
#380 = DIRECTION ( 'NONE',  ( -1.000000000000000000, 0.000000000000000000, 0.000000000000000000 ) ) ;
#381 = DIRECTION ( 'NONE',  ( 0.000000000000000000, 0.7169106076504787595, 0.6971651028545686746 ) ) ;
#382 = AXIS2_PLACEMENT_3D ( 'NONE', #242, #245, #201 ) ;
#383 = ADVANCED_FACE ( 'NONE', ( #38 ), #504, .T. ) ;
#384 = EDGE_CURVE ( 'NONE', #401, #108, #305, .T. ) ;
#385 = UNCERTAINTY_MEASURE_WITH_UNIT (LENGTH_MEASURE( 1.000000000000000082E-05 ), #165, 'distance_accuracy_value', 'NONE');
#386 = DIRECTION ( 'NONE',  ( 0.000000000000000000, 0.7169106076504810909, 0.6971651028545662321 ) ) ;
#387 = CARTESIAN_POINT ( 'NONE',  ( 5.000000000000000000, -35.24156608585471417, -676.5451490959586636 ) ) ;
#388 = EDGE_LOOP ( 'NONE', ( #49, #487, #574, #375 ) ) ;
#389 = AXIS2_PLACEMENT_3D ( 'NONE', #330, #568, #617 ) ;
#390 = VECTOR ( 'NONE', #400, 1000.000000000000000 ) ;
#391 = AXIS2_PLACEMENT_3D ( 'NONE', #358, #367, #490 ) ;
#392 = ORIENTED_EDGE ( 'NONE', *, *, #465, .F. ) ;
#393 = CARTESIAN_POINT ( 'NONE',  ( 5.000000000000000000, -32.97671539379000905, -683.3921954121714180 ) ) ;
#394 = FACE_BOUND ( 'NONE', #527, .T. ) ;
#395 = PRODUCT ( 'little pod hinge arm', 'little pod hinge arm', '', ( #41 ) ) ;
#396 = AXIS2_PLACEMENT_3D ( 'NONE', #29, #173, #486 ) ;
#397 = ORIENTED_EDGE ( 'NONE', *, *, #536, .T. ) ;
#398 = DIRECTION ( 'NONE',  ( 0.000000000000000000, 0.7169106076504787595, 0.6971651028545686746 ) ) ;
#399 = ORIENTED_EDGE ( 'NONE', *, *, #275, .T. ) ;
#400 = DIRECTION ( 'NONE',  ( -1.000000000000000000, 0.000000000000000000, 0.000000000000000000 ) ) ;
#401 = VERTEX_POINT ( 'NONE', #563 ) ;
#402 = ORIENTED_EDGE ( 'NONE', *, *, #23, .F. ) ;
#403 = ADVANCED_FACE ( 'NONE', ( #64 ), #296, .T. ) ;
#404 = AXIS2_PLACEMENT_3D ( 'NONE', #353, #69, #360 ) ;
#405 = CARTESIAN_POINT ( 'NONE',  ( 5.000000000000000000, -44.11235869963614675, -675.4407995600637378 ) ) ;
#406 = EDGE_LOOP ( 'NONE', ( #376, #247, #293, #480, #541, #618 ) ) ;
#407 = SURFACE_STYLE_USAGE ( .BOTH. , #214 ) ;
#408 = DIRECTION ( 'NONE',  ( 1.000000000000000000, 0.000000000000000000, 0.000000000000000000 ) ) ;
#409 = PRESENTATION_STYLE_ASSIGNMENT (( #407 ) ) ;
#410 = CARTESIAN_POINT ( 'NONE',  ( 8.000000000000007105, -44.90096036805169177, -676.2076811732036958 ) ) ;
#411 = CARTESIAN_POINT ( 'NONE',  ( 0.000000000000000000, -35.12744721674143733, -685.4836907207351260 ) ) ;
#412 = CARTESIAN_POINT ( 'NONE',  ( 0.000000000000000000, -42.18837204485814851, -682.1711989057367873 ) ) ;
#413 = APPLICATION_CONTEXT ( 'automotive_design' ) ;
#414 = ORIENTED_EDGE ( 'NONE', *, *, #565, .T. ) ;
#415 = CARTESIAN_POINT ( 'NONE',  ( 5.000000000000000000, -42.18837204485814851, -682.1711989057367873 ) ) ;
#416 = CARTESIAN_POINT ( 'NONE',  ( -15.93972795847417245, -35.08914916730054756, -688.4834462540093227 ) ) ;
#417 = CIRCLE ( 'NONE', #553, 2.999999999999971578 ) ;
#418 = CARTESIAN_POINT ( 'NONE',  ( 0.000000000000000000, -35.24156608585471417, -676.5451490959586636 ) ) ;
#419 = DIRECTION ( 'NONE',  ( -1.000000000000000000, -0.000000000000000000, 0.000000000000000000 ) ) ;
#420 = VERTEX_POINT ( 'NONE', #196 ) ;
#421 = FACE_BOUND ( 'NONE', #452, .T. ) ;
#422 = DIRECTION ( 'NONE',  ( 0.000000000000000000, 0.7169106076504824232, 0.6971651028545648998 ) ) ;
#423 = DIRECTION ( 'NONE',  ( 1.000000000000000000, 0.000000000000000000, 0.000000000000000000 ) ) ;
#424 = FACE_OUTER_BOUND ( 'NONE', #174, .T. ) ;
#425 = CARTESIAN_POINT ( 'NONE',  ( 8.000000000000007105, -44.11235869963614675, -675.4407995600637378 ) ) ;
#426 = EDGE_CURVE ( 'NONE', #285, #299, #168, .T. ) ;
#427 = CARTESIAN_POINT ( 'NONE',  ( 5.000000000000000000, -41.13533959017001962, -675.8114169124276032 ) ) ;
#428 = DIRECTION ( 'NONE',  ( 0.000000000000000000, -0.7169106076504790925, -0.6971651028545683415 ) ) ;
#429 = ORIENTED_EDGE ( 'NONE', *, *, #179, .F. ) ;
#430 = EDGE_CURVE ( 'NONE', #84, #68, #152, .T. ) ;
#431 = ORIENTED_EDGE ( 'NONE', *, *, #602, .T. ) ;
#432 = CARTESIAN_POINT ( 'NONE',  ( 5.000000000000000000, -39.67696239274543046, -675.9929743280112007 ) ) ;
#433 = CARTESIAN_POINT ( 'NONE',  ( 5.000000000000000000, -43.32375703122060173, -674.6739179469237797 ) ) ;
#434 = ORIENTED_EDGE ( 'NONE', *, *, #10, .F. ) ;
#435 = CARTESIAN_POINT ( 'NONE',  ( 8.000000000000000000, -30.90982310089296448, -680.6085136808258085 ) ) ;
#436 = ORIENTED_EDGE ( 'NONE', *, *, #579, .T. ) ;
#437 = CARTESIAN_POINT ( 'NONE',  ( 8.000000000000000000, -35.24156608585471417, -676.5451490959586636 ) ) ;
#438 = EDGE_CURVE ( 'NONE', #183, #302, #272, .T. ) ;
#439 = VERTEX_POINT ( 'NONE', #435 ) ;
#440 = CARTESIAN_POINT ( 'NONE',  ( 8.000000000000000000, -35.24156608585471417, -676.5451490959586636 ) ) ;
#441 = ORIENTED_EDGE ( 'NONE', *, *, #586, .F. ) ;
#442 = DIRECTION ( 'NONE',  ( 0.000000000000000000, 0.7169106076504810909, 0.6971651028545662321 ) ) ;
#443 = CARTESIAN_POINT ( 'NONE',  ( -15.93972795847417245, -35.16574526618221341, -682.4839351874609292 ) ) ;
#444 = ORIENTED_EDGE ( 'NONE', *, *, #546, .F. ) ;
#445 = CARTESIAN_POINT ( 'NONE',  ( 8.000000000000000000, -35.24156608585471417, -676.5451490959586636 ) ) ;
#446 = PLANE ( 'NONE',  #447 ) ;
#447 = AXIS2_PLACEMENT_3D ( 'NONE', #246, #589, #197 ) ;
#448 = EDGE_CURVE ( 'NONE', #572, #25, #7, .T. ) ;
#449 = ORIENTED_EDGE ( 'NONE', *, *, #80, .T. ) ;
#450 = VECTOR ( 'NONE', #56, 1000.000000000000000 ) ;
#451 = CARTESIAN_POINT ( 'NONE',  ( 5.000000000000000000, -35.24156608585471417, -676.5451490959586636 ) ) ;
#452 = EDGE_LOOP ( 'NONE', ( #290, #342 ) ) ;
#453 = CARTESIAN_POINT ( 'NONE',  ( 0.000000000000000000, -35.24156608585471417, -676.5451490959586636 ) ) ;
#454 = ORIENTED_EDGE ( 'NONE', *, *, #289, .T. ) ;
#455 = EDGE_CURVE ( 'NONE', #552, #178, #259, .T. ) ;
#456 = DIRECTION ( 'NONE',  ( 0.000000000000000000, -0.7169106076504981884, -0.6971651028545485795 ) ) ;
#457 = AXIS2_PLACEMENT_3D ( 'NONE', #100, #238, #381 ) ;
#458 = DIRECTION ( 'NONE',  ( 0.000000000000000000, 0.7169106076504901948, 0.6971651028545569062 ) ) ;
#459 = DIRECTION ( 'NONE',  ( 0.000000000000000000, 0.7169106076504901948, 0.6971651028545569062 ) ) ;
#460 = ORIENTED_EDGE ( 'NONE', *, *, #304, .F. ) ;
#461 = DIRECTION ( 'NONE',  ( -1.000000000000000000, -0.000000000000000000, -0.000000000000000000 ) ) ;
#462 = ORIENTED_EDGE ( 'NONE', *, *, #198, .T. ) ;
#463 = UNCERTAINTY_MEASURE_WITH_UNIT (LENGTH_MEASURE( 1.000000000000000082E-05 ), #616, 'distance_accuracy_value', 'NONE');
#464 = DIRECTION ( 'NONE',  ( 1.000000000000000000, 0.000000000000000000, 0.000000000000000000 ) ) ;
#465 = EDGE_CURVE ( 'NONE', #328, #285, #145, .T. ) ;
#466 = AXIS2_PLACEMENT_3D ( 'NONE', #150, #257, #346 ) ;
#467 = AXIS2_PLACEMENT_3D ( 'NONE', #300, #250, #575 ) ;
#468 = CARTESIAN_POINT ( 'NONE',  ( 71.60594210533972159, -29.51040691723381215, -683.4278518413749453 ) ) ;
#469 = ORIENTED_EDGE ( 'NONE', *, *, #546, .T. ) ;
#470 = PRODUCT_DEFINITION_FORMATION_WITH_SPECIFIED_SOURCE ( 'ANY', '', #395, .NOT_KNOWN. ) ;
#471 = ADVANCED_FACE ( 'NONE', ( #142 ), #341, .F. ) ;
#472 =( NAMED_UNIT ( * ) PLANE_ANGLE_UNIT ( ) SI_UNIT ( $, .RADIAN. ) );
#473 = CARTESIAN_POINT ( 'NONE',  ( 8.000000000000000000, -35.24156608585471417, -676.5451490959586636 ) ) ;
#474 = DIRECTION ( 'NONE',  ( 1.000000000000000000, 0.000000000000000000, 0.000000000000000000 ) ) ;
#475 = EDGE_LOOP ( 'NONE', ( #469, #347, #601, #54 ) ) ;
#476 = DIRECTION ( 'NONE',  ( -1.000000000000000000, 0.000000000000000000, 0.000000000000000000 ) ) ;
#477 = DIRECTION ( 'NONE',  ( 0.000000000000000000, 0.7169106076504787595, 0.6971651028545686746 ) ) ;
#478 = AXIS2_PLACEMENT_3D ( 'NONE', #453, #76, #598 ) ;
#479 = CARTESIAN_POINT ( 'NONE',  ( 71.60594210533972159, -28.72180524881828845, -682.6609702282348735 ) ) ;
#480 = ORIENTED_EDGE ( 'NONE', *, *, #138, .T. ) ;
#481 = LINE ( 'NONE', #110, #597 ) ;
#482 = ADVANCED_FACE ( 'NONE', ( #103 ), #5, .T. ) ;
#483 = ORIENTED_EDGE ( 'NONE', *, *, #438, .T. ) ;
#484 = VECTOR ( 'NONE', #172, 1000.000000000000000 ) ;
#485 = ORIENTED_EDGE ( 'NONE', *, *, #357, .F. ) ;
#486 = DIRECTION ( 'NONE',  ( 0.000000000000000000, -0.7169106076504790925, -0.6971651028545683415 ) ) ;
#487 = ORIENTED_EDGE ( 'NONE', *, *, #222, .T. ) ;
#488 = VECTOR ( 'NONE', #496, 1000.000000000000000 ) ;
#489 = DIRECTION ( 'NONE',  ( 0.000000000000000000, -0.7169106076504810909, -0.6971651028545662321 ) ) ;
#490 = DIRECTION ( 'NONE',  ( 0.000000000000000000, 0.7169106076504825342, 0.6971651028545647888 ) ) ;
#491 = CARTESIAN_POINT ( 'NONE',  ( 71.60594210533972159, -44.11235869963614675, -675.4407995600637378 ) ) ;
#492 = LINE ( 'NONE', #115, #379 ) ;
#493 = CIRCLE ( 'NONE', #533, 1.100000000000014300 ) ;
#494 = VERTEX_POINT ( 'NONE', #393 ) ;
#495 =( NAMED_UNIT ( * ) SI_UNIT ( $, .STERADIAN. ) SOLID_ANGLE_UNIT ( ) );
#496 = DIRECTION ( 'NONE',  ( -1.000000000000000000, 0.000000000000000000, 0.000000000000000000 ) ) ;
#497 =( GEOMETRIC_REPRESENTATION_CONTEXT ( 3 ) GLOBAL_UNCERTAINTY_ASSIGNED_CONTEXT ( ( #385 ) ) GLOBAL_UNIT_ASSIGNED_CONTEXT ( ( #165, #122, #495 ) ) REPRESENTATION_CONTEXT ( 'NONE', 'WORKASPACE' ) );
#498 = ORIENTED_EDGE ( 'NONE', *, *, #511, .T. ) ;
#499 = EDGE_CURVE ( 'NONE', #599, #8, #193, .T. ) ;
#500 = ORIENTED_EDGE ( 'NONE', *, *, #508, .T. ) ;
#501 = VECTOR ( 'NONE', #75, 1000.000000000000000 ) ;
#502 = ORIENTED_EDGE ( 'NONE', *, *, #175, .T. ) ;
#503 = LINE ( 'NONE', #570, #130 ) ;
#504 = CYLINDRICAL_SURFACE ( 'NONE', #545, 2.999999999999971578 ) ;
#505 = ORIENTED_EDGE ( 'NONE', *, *, #511, .F. ) ;
#506 = ADVANCED_BREP_SHAPE_REPRESENTATION ( 'little pod hinge arm', ( #547, #95 ), #45 ) ;
#507 = VECTOR ( 'NONE', #153, 1000.000000000000000 ) ;
#508 = EDGE_CURVE ( 'NONE', #544, #552, #31, .T. ) ;
#509 = DIRECTION ( 'NONE',  ( -1.000000000000000000, -0.000000000000000000, -0.000000000000000000 ) ) ;
#510 = VERTEX_POINT ( 'NONE', #81 ) ;
#511 = EDGE_CURVE ( 'NONE', #111, #322, #620, .T. ) ;
#512 = CIRCLE ( 'NONE', #478, 11.93927007613882196 ) ;
#513 = SHAPE_DEFINITION_REPRESENTATION ( #239, #506 ) ;
#514 = AXIS2_PLACEMENT_3D ( 'NONE', #479, #522, #105 ) ;
#515 = CARTESIAN_POINT ( 'NONE',  ( 5.000000000000000000, -28.72180524881828845, -682.6609702282348735 ) ) ;
#516 = VERTEX_POINT ( 'NONE', #126 ) ;
#517 = FACE_OUTER_BOUND ( 'NONE', #388, .T. ) ;
#518 = ORIENTED_EDGE ( 'NONE', *, *, #499, .F. ) ;
#519 = AXIS2_PLACEMENT_3D ( 'NONE', #432, #611, #135 ) ;
#520 = EDGE_LOOP ( 'NONE', ( #518, #266 ) ) ;
#521 = AXIS2_PLACEMENT_3D ( 'NONE', #515, #39, #207 ) ;
#522 = DIRECTION ( 'NONE',  ( -1.000000000000000000, 0.000000000000000000, 0.000000000000000000 ) ) ;
#523 = DIRECTION ( 'NONE',  ( -1.000000000000000000, -0.000000000000000000, -0.000000000000000000 ) ) ;
#524 = AXIS2_PLACEMENT_3D ( 'NONE', #67, #254, #309 ) ;
#525 = DIRECTION ( 'NONE',  ( 1.000000000000000000, 0.000000000000000000, 0.000000000000000000 ) ) ;
#526 = CARTESIAN_POINT ( 'NONE',  ( 5.000000000000000000, -44.51970533040672251, -684.0592892403589076 ) ) ;
#527 = EDGE_LOOP ( 'NONE', ( #147, #97 ) ) ;
#528 = EDGE_CURVE ( 'NONE', #111, #494, #267, .T. ) ;
#529 = DIRECTION ( 'NONE',  ( -1.000000000000000000, -0.000000000000000000, 0.000000000000000000 ) ) ;
#530 = CARTESIAN_POINT ( 'NONE',  ( 0.000000000000000000, -35.08914916730054756, -688.4834462540092090 ) ) ;
#531 = ORIENTED_EDGE ( 'NONE', *, *, #532, .F. ) ;
#532 = EDGE_CURVE ( 'NONE', #84, #255, #241, .T. ) ;
#533 = AXIS2_PLACEMENT_3D ( 'NONE', #425, #523, #339 ) ;
#534 = DIRECTION ( 'NONE',  ( 1.000000000000000000, 0.000000000000000000, 0.000000000000000000 ) ) ;
#535 = ORIENTED_EDGE ( 'NONE', *, *, #384, .F. ) ;
#536 = EDGE_CURVE ( 'NONE', #516, #328, #562, .T. ) ;
#537 = FACE_OUTER_BOUND ( 'NONE', #157, .T. ) ;
#538 = ORIENTED_EDGE ( 'NONE', *, *, #602, .F. ) ;
#539 = AXIS2_PLACEMENT_3D ( 'NONE', #149, #529, #550 ) ;
#540 = CARTESIAN_POINT ( 'NONE',  ( 5.000000000000000000, -35.16574526618209973, -682.4839351874609292 ) ) ;
#541 = ORIENTED_EDGE ( 'NONE', *, *, #448, .F. ) ;
#542 = CIRCLE ( 'NONE', #205, 1.099999999999966782 ) ;
#543 = AXIS2_PLACEMENT_3D ( 'NONE', #592, #301, #310 ) ;
#544 = VERTEX_POINT ( 'NONE', #216 ) ;
#545 = AXIS2_PLACEMENT_3D ( 'NONE', #291, #476, #621 ) ;
#546 = EDGE_CURVE ( 'NONE', #572, #35, #53, .T. ) ;
#547 = MANIFOLD_SOLID_BREP ( 'CirPattern3[1]', #225 ) ;
#548 = CARTESIAN_POINT ( 'NONE',  ( 5.000000000000000000, -35.24156608585471417, -676.5451490959586636 ) ) ;
#549 = CARTESIAN_POINT ( 'NONE',  ( 8.000000000000000000, -43.80095545104260424, -684.8687915465984588 ) ) ;
#550 = DIRECTION ( 'NONE',  ( 0.000000000000000000, -0.7169106076504981884, -0.6971651028545485795 ) ) ;
#551 = DIRECTION ( 'NONE',  ( 1.000000000000000000, 0.000000000000000000, 0.000000000000000000 ) ) ;
#552 = VERTEX_POINT ( 'NONE', #227 ) ;
#553 = AXIS2_PLACEMENT_3D ( 'NONE', #185, #464, #374 ) ;
#554 = DIRECTION ( 'NONE',  ( 1.000000000000000000, 0.000000000000000000, 0.000000000000000000 ) ) ;
#555 = CARTESIAN_POINT ( 'NONE',  ( 8.000000000000007105, -43.32375703122060173, -674.6739179469237797 ) ) ;
#556 = EDGE_CURVE ( 'NONE', #16, #133, #28, .T. ) ;
#557 = AXIS2_PLACEMENT_3D ( 'NONE', #387, #228, #477 ) ;
#558 = ADVANCED_FACE ( 'NONE', ( #517 ), #280, .F. ) ;
#559 = LINE ( 'NONE', #468, #560 ) ;
#560 = VECTOR ( 'NONE', #223, 1000.000000000000000 ) ;
#561 = DIRECTION ( 'NONE',  ( -1.000000000000000000, 0.000000000000000000, 0.000000000000000000 ) ) ;
#562 = CIRCLE ( 'NONE', #189, 2.999999999999974687 ) ;
#563 = CARTESIAN_POINT ( 'NONE',  ( 0.000000000000000000, -39.49949180513972635, -680.6858009294710428 ) ) ;
#564 = EDGE_LOOP ( 'NONE', ( #345, #483 ) ) ;
#565 = EDGE_CURVE ( 'NONE', #117, #202, #503, .T. ) ;
#566 =( NAMED_UNIT ( * ) SI_UNIT ( $, .STERADIAN. ) SOLID_ANGLE_UNIT ( ) );
#567 = CARTESIAN_POINT ( 'NONE',  ( 8.000000000000000000, -47.08937780910227389, -675.0701822076996450 ) ) ;
#568 = DIRECTION ( 'NONE',  ( 1.000000000000000000, 0.000000000000000000, 0.000000000000000000 ) ) ;
#569 = EDGE_CURVE ( 'NONE', #314, #599, #559, .T. ) ;
#570 = CARTESIAN_POINT ( 'NONE',  ( -15.93972795847417245, -40.03764022190667049, -680.0797035971730793 ) ) ;
#571 = FACE_OUTER_BOUND ( 'NONE', #144, .T. ) ;
#572 = VERTEX_POINT ( 'NONE', #427 ) ;
#573 = DIRECTION ( 'NONE',  ( -1.000000000000000000, 0.000000000000000000, 0.000000000000000000 ) ) ;
#574 = ORIENTED_EDGE ( 'NONE', *, *, #55, .T. ) ;
#575 = DIRECTION ( 'NONE',  ( 0.000000000000000000, 0.7169106076504981884, 0.6971651028545485795 ) ) ;
#576 = PLANE ( 'NONE',  #40 ) ;
#577 = AXIS2_PLACEMENT_3D ( 'NONE', #473, #233, #428 ) ;
#578 = AXIS2_PLACEMENT_3D ( 'NONE', #288, #474, #422 ) ;
#579 = EDGE_CURVE ( 'NONE', #68, #202, #294, .T. ) ;
#580 = ORIENTED_EDGE ( 'NONE', *, *, #528, .F. ) ;
#581 = CIRCLE ( 'NONE', #317, 3.000000000000003997 ) ;
#582 = DIRECTION ( 'NONE',  ( 1.000000000000000000, 0.000000000000000000, 0.000000000000000000 ) ) ;
#583 = CARTESIAN_POINT ( 'NONE',  ( 71.60594210533972159, -44.90096036805167046, -676.2076811732036958 ) ) ;
#584 = ORIENTED_EDGE ( 'NONE', *, *, #532, .T. ) ;
#585 = LINE ( 'NONE', #583, #390 ) ;
#586 = EDGE_CURVE ( 'NONE', #322, #401, #377, .T. ) ;
#587 = ORIENTED_EDGE ( 'NONE', *, *, #125, .F. ) ;
#588 = CIRCLE ( 'NONE', #557, 5.939270076138875254 ) ;
#589 = DIRECTION ( 'NONE',  ( 1.000000000000000000, 0.000000000000000000, -0.000000000000000000 ) ) ;
#590 = EDGE_LOOP ( 'NONE', ( #12, #258, #454, #609 ) ) ;
#591 = DIRECTION ( 'NONE',  ( 0.000000000000000000, 0.7169106076504824232, 0.6971651028545648998 ) ) ;
#592 = CARTESIAN_POINT ( 'NONE',  ( 5.000000000000000000, -35.12744721674143733, -685.4836907207351260 ) ) ;
#593 = ORIENTED_EDGE ( 'NONE', *, *, #569, .T. ) ;
#594 = DIRECTION ( 'NONE',  ( 1.000000000000000000, 0.000000000000000000, 0.000000000000000000 ) ) ;
#595 = ORIENTED_EDGE ( 'NONE', *, *, #6, .F. ) ;
#596 = DIRECTION ( 'NONE',  ( 1.000000000000000000, 0.000000000000000000, 0.000000000000000000 ) ) ;
#597 = VECTOR ( 'NONE', #65, 1000.000000000000000 ) ;
#598 = DIRECTION ( 'NONE',  ( 0.000000000000000000, 0.7169106076504810909, 0.6971651028545662321 ) ) ;
#599 = VERTEX_POINT ( 'NONE', #44 ) ;
#600 = DIRECTION ( 'NONE',  ( 0.000000000000000000, 0.7169106076504810909, 0.6971651028545662321 ) ) ;
#601 = ORIENTED_EDGE ( 'NONE', *, *, #536, .F. ) ;
#602 = EDGE_CURVE ( 'NONE', #439, #178, #608, .T. ) ;
#603 = EDGE_LOOP ( 'NONE', ( #27, #282, #593, #355 ) ) ;
#604 = DIRECTION ( 'NONE',  ( 0.000000000000000000, 0.7169106076504766500, 0.6971651028545711171 ) ) ;
#605 = DIRECTION ( 'NONE',  ( -1.000000000000000000, 0.000000000000000000, 0.000000000000000000 ) ) ;
#606 = DIRECTION ( 'NONE',  ( 1.000000000000000000, 0.000000000000000000, 0.000000000000000000 ) ) ;
#607 = AXIS2_PLACEMENT_3D ( 'NONE', #445, #525, #442 ) ;
#608 = LINE ( 'NONE', #176, #484 ) ;
#609 = ORIENTED_EDGE ( 'NONE', *, *, #198, .F. ) ;
#610 = DIRECTION ( 'NONE',  ( 1.000000000000000000, 0.000000000000000000, 0.000000000000000000 ) ) ;
#611 = DIRECTION ( 'NONE',  ( 1.000000000000000000, 0.000000000000000000, -0.000000000000000000 ) ) ;
#612 = CARTESIAN_POINT ( 'NONE',  ( 71.60594210533972159, -28.72180524881828845, -682.6609702282348735 ) ) ;
#613 = CYLINDRICAL_SURFACE ( 'NONE', #116, 11.93927007613882196 ) ;
#614 = FACE_BOUND ( 'NONE', #520, .T. ) ;
#615 = CIRCLE ( 'NONE', #343, 3.000000000000003997 ) ;
#616 =( LENGTH_UNIT ( ) NAMED_UNIT ( * ) SI_UNIT ( .MILLI., .METRE. ) );
#617 = DIRECTION ( 'NONE',  ( 0.000000000000000000, 0.7169106076504901948, 0.6971651028545569062 ) ) ;
#618 = ORIENTED_EDGE ( 'NONE', *, *, #107, .F. ) ;
#619 = ORIENTED_EDGE ( 'NONE', *, *, #230, .F. ) ;
#620 = CIRCLE ( 'NONE', #161, 2.999999999999969358 ) ;
#621 = DIRECTION ( 'NONE',  ( 0.000000000000000000, -0.7169106076504830893, -0.6971651028545643447 ) ) ;
#622 = LINE ( 'NONE', #195, #281 ) ;
#623 = ORIENTED_EDGE ( 'NONE', *, *, #72, .T. ) ;
ENDSEC;
END-ISO-10303-21;
