ISO-10303-21;
HEADER;
FILE_DESCRIPTION (( 'STEP AP214' ),
    '1' );
FILE_NAME ('pod stub.STEP',
    '2026-06-12T13:34:36',
    ( '' ),
    ( '' ),
    'SwSTEP 2.0',
    'SolidWorks 2024',
    '' );
FILE_SCHEMA (( 'AUTOMOTIVE_DESIGN' ));
ENDSEC;

DATA;
#1 = DIRECTION ( 'NONE',  ( 0.000000000000000000, 0.000000000000000000, 1.000000000000000000 ) ) ;
#2 = ADVANCED_FACE ( 'NONE', ( #190 ), #139, .F. ) ;
#3 = ORIENTED_EDGE ( 'NONE', *, *, #221, .T. ) ;
#4 = AXIS2_PLACEMENT_3D ( 'NONE', #226, #197, #109 ) ;
#5 = ORIENTED_EDGE ( 'NONE', *, *, #217, .F. ) ;
#6 = AXIS2_PLACEMENT_3D ( 'NONE', #10, #153, #172 ) ;
#7 = EDGE_CURVE ( 'NONE', #64, #78, #189, .T. ) ;
#8 = VERTEX_POINT ( 'NONE', #106 ) ;
#9 = DIRECTION ( 'NONE',  ( -1.000000000000000000, 0.000000000000000000, 0.000000000000000000 ) ) ;
#10 = CARTESIAN_POINT ( 'NONE',  ( -1.268251437630920408, 8.755593160353276616, -492.8135998533546172 ) ) ;
#11 = CARTESIAN_POINT ( 'NONE',  ( -2.096472381958982112, 8.755593160353276616, -492.8135998533546172 ) ) ;
#12 = EDGE_LOOP ( 'NONE', ( #102, #60 ) ) ;
#13 = DIRECTION ( 'NONE',  ( -0.000000000000000000, -0.000000000000000000, -1.000000000000000000 ) ) ;
#14 = CARTESIAN_POINT ( 'NONE',  ( 2.096472381958982112, 8.755593160353276616, -492.8135998533546172 ) ) ;
#15 = LINE ( 'NONE', #36, #181 ) ;
#16 = AXIS2_PLACEMENT_3D ( 'NONE', #147, #21, #24 ) ;
#17 = CIRCLE ( 'NONE', #6, 0.7999999999999999334 ) ;
#18 = CARTESIAN_POINT ( 'NONE',  ( 2.096472381958982112, 8.755593160353276616, -492.8135998533546172 ) ) ;
#19 = CIRCLE ( 'NONE', #188, 2.040992098662179455 ) ;
#20 = FACE_OUTER_BOUND ( 'NONE', #187, .T. ) ;
#21 = DIRECTION ( 'NONE',  ( -0.000000000000000000, -0.000000000000000000, -1.000000000000000000 ) ) ;
#22 = ORIENTED_EDGE ( 'NONE', *, *, #177, .F. ) ;
#23 = ORIENTED_EDGE ( 'NONE', *, *, #177, .T. ) ;
#24 = DIRECTION ( 'NONE',  ( -1.000000000000000000, 0.000000000000000000, 0.000000000000000000 ) ) ;
#25 = TOROIDAL_SURFACE ( 'NONE', #89, 1.268251437630920408, 0.8000000000000000444 ) ;
#26 = ORIENTED_EDGE ( 'NONE', *, *, #207, .F. ) ;
#27 = ORIENTED_EDGE ( 'NONE', *, *, #191, .T. ) ;
#28 = VERTEX_POINT ( 'NONE', #169 ) ;
#29 = STYLED_ITEM ( 'NONE', ( #92 ), #80 ) ;
#30 = ORIENTED_EDGE ( 'NONE', *, *, #221, .F. ) ;
#31 = DIRECTION ( 'NONE',  ( 0.000000000000000000, -1.000000000000000000, 0.000000000000000000 ) ) ;
#32 = FACE_OUTER_BOUND ( 'NONE', #183, .T. ) ;
#33 = LINE ( 'NONE', #14, #37 ) ;
#34 = EDGE_CURVE ( 'NONE', #64, #28, #114, .T. ) ;
#35 = UNCERTAINTY_MEASURE_WITH_UNIT (LENGTH_MEASURE( 1.000000000000000082E-05 ), #113, 'distance_accuracy_value', 'NONE');
#36 = CARTESIAN_POINT ( 'NONE',  ( -2.096472381958982112, 8.755593160353276616, -492.8135998533546172 ) ) ;
#37 = VECTOR ( 'NONE', #164, 1000.000000000000000 ) ;
#38 = EDGE_CURVE ( 'NONE', #166, #8, #76, .T. ) ;
#39 = PRODUCT_DEFINITION_FORMATION_WITH_SPECIFIED_SOURCE ( 'ANY', '', #215, .NOT_KNOWN. ) ;
#40 = COLOUR_RGB ( '',0.7921568627450980005, 0.8196078431372548767, 0.9333333333333333481 ) ;
#41 = ORIENTED_EDGE ( 'NONE', *, *, #38, .T. ) ;
#42 = DIRECTION ( 'NONE',  ( 1.000000000000000000, 0.000000000000000000, 0.000000000000000000 ) ) ;
#43 = SHAPE_DEFINITION_REPRESENTATION ( #198, #150 ) ;
#44 = EDGE_LOOP ( 'NONE', ( #62, #99, #27, #158 ) ) ;
#45 = ORIENTED_EDGE ( 'NONE', *, *, #59, .F. ) ;
#46 = CARTESIAN_POINT ( 'NONE',  ( 0.000000000000000000, 8.755593160353276616, -493.0206550894366728 ) ) ;
#47 = DIRECTION ( 'NONE',  ( 0.000000000000000000, 0.000000000000000000, 1.000000000000000000 ) ) ;
#48 =( GEOMETRIC_REPRESENTATION_CONTEXT ( 3 ) GLOBAL_UNCERTAINTY_ASSIGNED_CONTEXT ( ( #148 ) ) GLOBAL_UNIT_ASSIGNED_CONTEXT ( ( #128, #142, #124 ) ) REPRESENTATION_CONTEXT ( 'NONE', 'WORKASPACE' ) );
#49 = ORIENTED_EDGE ( 'NONE', *, *, #77, .T. ) ;
#50 = CARTESIAN_POINT ( 'NONE',  ( 0.000000000000000000, 8.755593160353276616, -492.6065446172726183 ) ) ;
#51 = CIRCLE ( 'NONE', #199, 1.587368916339855218 ) ;
#52 = CARTESIAN_POINT ( 'NONE',  ( 0.000000000000000000, 8.755593160353276616, -492.8135998533546172 ) ) ;
#53 = DIRECTION ( 'NONE',  ( -1.000000000000000000, 0.000000000000000000, 0.000000000000000000 ) ) ;
#54 = FACE_OUTER_BOUND ( 'NONE', #133, .T. ) ;
#55 = AXIS2_PLACEMENT_3D ( 'NONE', #134, #192, #204 ) ;
#56 = CARTESIAN_POINT ( 'NONE',  ( -1.587368916339855218, 8.755593160353276616, -490.9135998533545262 ) ) ;
#57 = ADVANCED_FACE ( 'NONE', ( #161 ), #81, .T. ) ;
#58 = AXIS2_PLACEMENT_3D ( 'NONE', #75, #216, #86 ) ;
#59 = EDGE_CURVE ( 'NONE', #222, #131, #156, .T. ) ;
#60 = ORIENTED_EDGE ( 'NONE', *, *, #151, .F. ) ;
#61 = MECHANICAL_DESIGN_GEOMETRIC_PRESENTATION_REPRESENTATION (  '', ( #29 ), #48 ) ;
#62 = ORIENTED_EDGE ( 'NONE', *, *, #38, .F. ) ;
#63 = FILL_AREA_STYLE ('',( #173 ) ) ;
#64 = VERTEX_POINT ( 'NONE', #220 ) ;
#65 = VERTEX_POINT ( 'NONE', #105 ) ;
#66 =( NAMED_UNIT ( * ) SI_UNIT ( $, .STERADIAN. ) SOLID_ANGLE_UNIT ( ) );
#67 = EDGE_LOOP ( 'NONE', ( #3, #41 ) ) ;
#68 = DIRECTION ( 'NONE',  ( 1.000000000000000000, 0.000000000000000000, -0.000000000000000000 ) ) ;
#69 = CONICAL_SURFACE ( 'NONE', #140, 2.096472381958982112, 0.2617993877991374174 ) ;
#70 = AXIS2_PLACEMENT_3D ( 'NONE', #100, #47, #68 ) ;
#71 = CARTESIAN_POINT ( 'NONE',  ( 0.000000000000000000, 8.755593160353276616, -492.8135998533546172 ) ) ;
#72 = DIRECTION ( 'NONE',  ( 1.000000000000000000, 0.000000000000000000, 0.000000000000000000 ) ) ;
#73 = DIRECTION ( 'NONE',  ( -0.000000000000000000, -0.000000000000000000, -1.000000000000000000 ) ) ;
#74 = PRODUCT_DEFINITION ( 'UNKNOWN', '', #39, #96 ) ;
#75 = CARTESIAN_POINT ( 'NONE',  ( 0.000000000000000000, 8.755593160353276616, -492.8135998533546172 ) ) ;
#76 = CIRCLE ( 'NONE', #95, 1.587368916339858549 ) ;
#77 = EDGE_CURVE ( 'NONE', #28, #131, #17, .T. ) ;
#78 = VERTEX_POINT ( 'NONE', #219 ) ;
#79 =( NAMED_UNIT ( * ) PLANE_ANGLE_UNIT ( ) SI_UNIT ( $, .RADIAN. ) );
#80 = MANIFOLD_SOLID_BREP ( 'Fillet6', #195 ) ;
#81 = PLANE ( 'NONE',  #103 ) ;
#82 = ORIENTED_EDGE ( 'NONE', *, *, #34, .F. ) ;
#83 = APPLICATION_CONTEXT ( 'automotive_design' ) ;
#84 = DIRECTION ( 'NONE',  ( -0.000000000000000000, -0.000000000000000000, -1.000000000000000000 ) ) ;
#85 = CARTESIAN_POINT ( 'NONE',  ( 0.000000000000000000, 0.000000000000000000, -490.9135998533545262 ) ) ;
#86 = DIRECTION ( 'NONE',  ( -1.000000000000000000, 0.000000000000000000, 0.000000000000000000 ) ) ;
#87 = CARTESIAN_POINT ( 'NONE',  ( 0.000000000000000000, 8.755593160353276616, -493.0206550894366728 ) ) ;
#88 = EDGE_CURVE ( 'NONE', #222, #65, #179, .T. ) ;
#89 = AXIS2_PLACEMENT_3D ( 'NONE', #214, #180, #72 ) ;
#90 = AXIS2_PLACEMENT_3D ( 'NONE', #46, #121, #118 ) ;
#91 = DIRECTION ( 'NONE',  ( -1.000000000000000000, 0.000000000000000000, 0.000000000000000000 ) ) ;
#92 = PRESENTATION_STYLE_ASSIGNMENT (( #117 ) ) ;
#93 = APPLICATION_CONTEXT ( 'automotive_design' ) ;
#94 = EDGE_LOOP ( 'NONE', ( #186, #82, #138, #97 ) ) ;
#95 = AXIS2_PLACEMENT_3D ( 'NONE', #185, #84, #9 ) ;
#96 = PRODUCT_DEFINITION_CONTEXT ( 'detailed design', #83, 'design' ) ;
#97 = ORIENTED_EDGE ( 'NONE', *, *, #112, .F. ) ;
#98 = ORIENTED_EDGE ( 'NONE', *, *, #191, .F. ) ;
#99 = ORIENTED_EDGE ( 'NONE', *, *, #217, .T. ) ;
#100 = CARTESIAN_POINT ( 'NONE',  ( 0.000000000000000000, 0.000000000000000000, -494.7135998533544807 ) ) ;
#101 = APPLICATION_PROTOCOL_DEFINITION ( 'draft international standard', 'automotive_design', 1998, #93 ) ;
#102 = ORIENTED_EDGE ( 'NONE', *, *, #88, .F. ) ;
#103 = AXIS2_PLACEMENT_3D ( 'NONE', #85, #137, #171 ) ;
#104 = APPLICATION_PROTOCOL_DEFINITION ( 'draft international standard', 'automotive_design', 1998, #83 ) ;
#105 = CARTESIAN_POINT ( 'NONE',  ( 1.587368916339855218, 8.755593160353276616, -490.9135998533545262 ) ) ;
#106 = CARTESIAN_POINT ( 'NONE',  ( 1.587368916339858549, 8.755593160353276616, -494.7135998533544807 ) ) ;
#107 = AXIS2_PLACEMENT_3D ( 'NONE', #130, #202, #42 ) ;
#108 = ADVANCED_FACE ( 'NONE', ( #32 ), #129, .T. ) ;
#109 = DIRECTION ( 'NONE',  ( 1.000000000000000000, 0.000000000000000000, 0.000000000000000000 ) ) ;
#110 = DIRECTION ( 'NONE',  ( 0.2588190451025091376, 3.169619151431621960E-17, -0.9659258262890713098 ) ) ;
#111 = FACE_OUTER_BOUND ( 'NONE', #168, .T. ) ;
#112 = EDGE_CURVE ( 'NONE', #131, #78, #19, .T. ) ;
#113 =( LENGTH_UNIT ( ) NAMED_UNIT ( * ) SI_UNIT ( .MILLI., .METRE. ) );
#114 = CIRCLE ( 'NONE', #90, 2.040992098662169241 ) ;
#115 = ADVANCED_FACE ( 'NONE', ( #54 ), #154, .T. ) ;
#116 = ORIENTED_EDGE ( 'NONE', *, *, #88, .T. ) ;
#117 = SURFACE_STYLE_USAGE ( .BOTH. , #205 ) ;
#118 = DIRECTION ( 'NONE',  ( 1.000000000000000000, 0.000000000000000000, 0.000000000000000000 ) ) ;
#119 = ORIENTED_EDGE ( 'NONE', *, *, #151, .T. ) ;
#120 = TOROIDAL_SURFACE ( 'NONE', #107, 1.268251437630920408, 0.8000000000000000444 ) ;
#121 = DIRECTION ( 'NONE',  ( -0.000000000000000000, -0.000000000000000000, -1.000000000000000000 ) ) ;
#122 = AXIS2_PLACEMENT_3D ( 'NONE', #210, #227, #194 ) ;
#123 = ORIENTED_EDGE ( 'NONE', *, *, #207, .T. ) ;
#124 =( NAMED_UNIT ( * ) SI_UNIT ( $, .STERADIAN. ) SOLID_ANGLE_UNIT ( ) );
#125 = AXIS2_PLACEMENT_3D ( 'NONE', #159, #31, #141 ) ;
#126 = DIRECTION ( 'NONE',  ( 0.000000000000000000, 0.000000000000000000, 1.000000000000000000 ) ) ;
#127 = DIRECTION ( 'NONE',  ( 1.000000000000000000, 0.000000000000000000, 0.000000000000000000 ) ) ;
#128 =( LENGTH_UNIT ( ) NAMED_UNIT ( * ) SI_UNIT ( .MILLI., .METRE. ) );
#129 = CONICAL_SURFACE ( 'NONE', #58, 2.096472381958982112, 0.2617993877991374174 ) ;
#130 = CARTESIAN_POINT ( 'NONE',  ( 0.000000000000000000, 8.755593160353276616, -492.8135998533546172 ) ) ;
#131 = VERTEX_POINT ( 'NONE', #175 ) ;
#132 = ADVANCED_FACE ( 'NONE', ( #146 ), #25, .T. ) ;
#133 = EDGE_LOOP ( 'NONE', ( #5, #30, #208, #206 ) ) ;
#134 = CARTESIAN_POINT ( 'NONE',  ( 0.000000000000000000, 0.000000000000000000, 0.000000000000000000 ) ) ;
#135 = SURFACE_STYLE_FILL_AREA ( #63 ) ;
#136 = AXIS2_PLACEMENT_3D ( 'NONE', #87, #73, #127 ) ;
#137 = DIRECTION ( 'NONE',  ( 0.000000000000000000, 0.000000000000000000, 1.000000000000000000 ) ) ;
#138 = ORIENTED_EDGE ( 'NONE', *, *, #7, .T. ) ;
#139 = PLANE ( 'NONE',  #70 ) ;
#140 = AXIS2_PLACEMENT_3D ( 'NONE', #71, #211, #162 ) ;
#141 = DIRECTION ( 'NONE',  ( 0.000000000000000000, 0.000000000000000000, -1.000000000000000000 ) ) ;
#142 =( NAMED_UNIT ( * ) PLANE_ANGLE_UNIT ( ) SI_UNIT ( $, .RADIAN. ) );
#143 = DIRECTION ( 'NONE',  ( -1.000000000000000000, 0.000000000000000000, 0.000000000000000000 ) ) ;
#144 = CARTESIAN_POINT ( 'NONE',  ( 0.000000000000000000, 8.755593160353276616, -490.9135998533545262 ) ) ;
#145 =( GEOMETRIC_REPRESENTATION_CONTEXT ( 3 ) GLOBAL_UNCERTAINTY_ASSIGNED_CONTEXT ( ( #35 ) ) GLOBAL_UNIT_ASSIGNED_CONTEXT ( ( #113, #79, #66 ) ) REPRESENTATION_CONTEXT ( 'NONE', 'WORKASPACE' ) );
#146 = FACE_OUTER_BOUND ( 'NONE', #94, .T. ) ;
#147 = CARTESIAN_POINT ( 'NONE',  ( 0.000000000000000000, 8.755593160353276616, -494.7135998533544807 ) ) ;
#148 = UNCERTAINTY_MEASURE_WITH_UNIT (LENGTH_MEASURE( 1.000000000000000082E-05 ), #128, 'distance_accuracy_value', 'NONE');
#149 = ADVANCED_FACE ( 'NONE', ( #20 ), #69, .T. ) ;
#150 = ADVANCED_BREP_SHAPE_REPRESENTATION ( 'pod stub', ( #80, #55 ), #145 ) ;
#151 = EDGE_CURVE ( 'NONE', #65, #222, #51, .T. ) ;
#152 = PRESENTATION_LAYER_ASSIGNMENT (  '', '', ( #29 ) ) ;
#153 = DIRECTION ( 'NONE',  ( 1.224646799147353207E-16, 1.000000000000000000, -0.000000000000000000 ) ) ;
#154 = CONICAL_SURFACE ( 'NONE', #4, 2.096472381958982112, 0.2617993877991576235 ) ;
#155 = VECTOR ( 'NONE', #223, 1000.000000000000114 ) ;
#156 = LINE ( 'NONE', #11, #155 ) ;
#157 = EDGE_CURVE ( 'NONE', #8, #64, #33, .T. ) ;
#158 = ORIENTED_EDGE ( 'NONE', *, *, #157, .F. ) ;
#159 = CARTESIAN_POINT ( 'NONE',  ( 1.268251437630920408, 8.755593160353276616, -492.8135998533546172 ) ) ;
#160 = CIRCLE ( 'NONE', #163, 2.040992098662179455 ) ;
#161 = FACE_OUTER_BOUND ( 'NONE', #12, .T. ) ;
#162 = DIRECTION ( 'NONE',  ( -1.000000000000000000, 0.000000000000000000, 0.000000000000000000 ) ) ;
#163 = AXIS2_PLACEMENT_3D ( 'NONE', #50, #1, #53 ) ;
#164 = DIRECTION ( 'NONE',  ( 0.2588190451025286776, 0.000000000000000000, 0.9659258262890662028 ) ) ;
#165 = DIRECTION ( 'NONE',  ( -0.2588190451025286776, 3.169619151431861700E-17, 0.9659258262890662028 ) ) ;
#166 = VERTEX_POINT ( 'NONE', #212 ) ;
#167 = PRODUCT_RELATED_PRODUCT_CATEGORY ( 'part', '', ( #215 ) ) ;
#168 = EDGE_LOOP ( 'NONE', ( #98, #49, #22, #193 ) ) ;
#169 = CARTESIAN_POINT ( 'NONE',  ( -2.040992098662158583, 8.755593160353276616, -493.0206550894366728 ) ) ;
#170 = CIRCLE ( 'NONE', #136, 2.040992098662169241 ) ;
#171 = DIRECTION ( 'NONE',  ( 1.000000000000000000, 0.000000000000000000, -0.000000000000000000 ) ) ;
#172 = DIRECTION ( 'NONE',  ( -1.000000000000000000, 0.000000000000000000, 0.000000000000000000 ) ) ;
#173 = FILL_AREA_STYLE_COLOUR ( '', #40 ) ;
#174 = CIRCLE ( 'NONE', #16, 1.587368916339858549 ) ;
#175 = CARTESIAN_POINT ( 'NONE',  ( -2.040992098662177678, 8.755593160353276616, -492.6065446172726183 ) ) ;
#176 = LINE ( 'NONE', #18, #184 ) ;
#177 = EDGE_CURVE ( 'NONE', #78, #131, #160, .T. ) ;
#178 = CARTESIAN_POINT ( 'NONE',  ( 0.000000000000000000, 8.755593160353276616, -492.6065446172726183 ) ) ;
#179 = CIRCLE ( 'NONE', #122, 1.587368916339855218 ) ;
#180 = DIRECTION ( 'NONE',  ( 0.000000000000000000, 0.000000000000000000, 1.000000000000000000 ) ) ;
#181 = VECTOR ( 'NONE', #165, 1000.000000000000000 ) ;
#182 = ORIENTED_EDGE ( 'NONE', *, *, #112, .T. ) ;
#183 = EDGE_LOOP ( 'NONE', ( #26, #119, #203, #182 ) ) ;
#184 = VECTOR ( 'NONE', #110, 1000.000000000000114 ) ;
#185 = CARTESIAN_POINT ( 'NONE',  ( 0.000000000000000000, 8.755593160353276616, -494.7135998533544807 ) ) ;
#186 = ORIENTED_EDGE ( 'NONE', *, *, #77, .F. ) ;
#187 = EDGE_LOOP ( 'NONE', ( #116, #123, #23, #45 ) ) ;
#188 = AXIS2_PLACEMENT_3D ( 'NONE', #178, #225, #91 ) ;
#189 = CIRCLE ( 'NONE', #125, 0.8000000000000229150 ) ;
#190 = FACE_OUTER_BOUND ( 'NONE', #67, .T. ) ;
#191 = EDGE_CURVE ( 'NONE', #28, #64, #170, .T. ) ;
#192 = DIRECTION ( 'NONE',  ( 0.000000000000000000, 0.000000000000000000, 1.000000000000000000 ) ) ;
#193 = ORIENTED_EDGE ( 'NONE', *, *, #7, .F. ) ;
#194 = DIRECTION ( 'NONE',  ( -1.000000000000000000, 0.000000000000000000, 0.000000000000000000 ) ) ;
#195 = CLOSED_SHELL ( 'NONE', ( #218, #149, #200, #115, #108, #57, #2, #132 ) ) ;
#196 = DIRECTION ( 'NONE',  ( 1.000000000000000000, 0.000000000000000000, 0.000000000000000000 ) ) ;
#197 = DIRECTION ( 'NONE',  ( 0.000000000000000000, 0.000000000000000000, 1.000000000000000000 ) ) ;
#198 = PRODUCT_DEFINITION_SHAPE ( 'NONE', 'NONE',  #74 ) ;
#199 = AXIS2_PLACEMENT_3D ( 'NONE', #144, #13, #143 ) ;
#200 = ADVANCED_FACE ( 'NONE', ( #213 ), #201, .T. ) ;
#201 = CONICAL_SURFACE ( 'NONE', #224, 2.096472381958982112, 0.2617993877991576235 ) ;
#202 = DIRECTION ( 'NONE',  ( 0.000000000000000000, 0.000000000000000000, 1.000000000000000000 ) ) ;
#203 = ORIENTED_EDGE ( 'NONE', *, *, #59, .T. ) ;
#204 = DIRECTION ( 'NONE',  ( 1.000000000000000000, 0.000000000000000000, 0.000000000000000000 ) ) ;
#205 = SURFACE_SIDE_STYLE ('',( #135 ) ) ;
#206 = ORIENTED_EDGE ( 'NONE', *, *, #34, .T. ) ;
#207 = EDGE_CURVE ( 'NONE', #65, #78, #176, .T. ) ;
#208 = ORIENTED_EDGE ( 'NONE', *, *, #157, .T. ) ;
#209 = PRODUCT_CONTEXT ( 'NONE', #93, 'mechanical' ) ;
#210 = CARTESIAN_POINT ( 'NONE',  ( 0.000000000000000000, 8.755593160353276616, -490.9135998533545262 ) ) ;
#211 = DIRECTION ( 'NONE',  ( -0.000000000000000000, -0.000000000000000000, -1.000000000000000000 ) ) ;
#212 = CARTESIAN_POINT ( 'NONE',  ( -1.587368916339858549, 8.755593160353276616, -494.7135998533544807 ) ) ;
#213 = FACE_OUTER_BOUND ( 'NONE', #44, .T. ) ;
#214 = CARTESIAN_POINT ( 'NONE',  ( 0.000000000000000000, 8.755593160353276616, -492.8135998533546172 ) ) ;
#215 = PRODUCT ( 'pod stub', 'pod stub', '', ( #209 ) ) ;
#216 = DIRECTION ( 'NONE',  ( -0.000000000000000000, -0.000000000000000000, -1.000000000000000000 ) ) ;
#217 = EDGE_CURVE ( 'NONE', #166, #28, #15, .T. ) ;
#218 = ADVANCED_FACE ( 'NONE', ( #111 ), #120, .T. ) ;
#219 = CARTESIAN_POINT ( 'NONE',  ( 2.040992098662177678, 8.755593160353276616, -492.6065446172726183 ) ) ;
#220 = CARTESIAN_POINT ( 'NONE',  ( 2.040992098662158583, 8.755593160353276616, -493.0206550894366728 ) ) ;
#221 = EDGE_CURVE ( 'NONE', #8, #166, #174, .T. ) ;
#222 = VERTEX_POINT ( 'NONE', #56 ) ;
#223 = DIRECTION ( 'NONE',  ( -0.2588190451025091376, 0.000000000000000000, -0.9659258262890713098 ) ) ;
#224 = AXIS2_PLACEMENT_3D ( 'NONE', #52, #126, #196 ) ;
#225 = DIRECTION ( 'NONE',  ( 0.000000000000000000, 0.000000000000000000, 1.000000000000000000 ) ) ;
#226 = CARTESIAN_POINT ( 'NONE',  ( 0.000000000000000000, 8.755593160353276616, -492.8135998533546172 ) ) ;
#227 = DIRECTION ( 'NONE',  ( -0.000000000000000000, -0.000000000000000000, -1.000000000000000000 ) ) ;
ENDSEC;
END-ISO-10303-21;
