ISO-10303-21;
HEADER;
FILE_DESCRIPTION (( 'STEP AP214' ),
    '1' );
FILE_NAME ('rubber band hook.STEP',
    '2026-06-17T15:43:19',
    ( '' ),
    ( '' ),
    'SwSTEP 2.0',
    'SolidWorks 2024',
    '' );
FILE_SCHEMA (( 'AUTOMOTIVE_DESIGN' ));
ENDSEC;

DATA;
#1 = CARTESIAN_POINT ( 'NONE',  ( -0.6000000000000033085, -4.363392256215242071, -580.4853676142749919 ) ) ;
#2 = LINE ( 'NONE', #199, #328 ) ;
#3 = LINE ( 'NONE', #437, #390 ) ;
#4 = ORIENTED_EDGE ( 'NONE', *, *, #16, .F. ) ;
#5 = DIRECTION ( 'NONE',  ( -0.000000000000000000, 0.2580622926787444205, 0.9661282798352349710 ) ) ;
#6 = VECTOR ( 'NONE', #303, 1000.000000000000114 ) ;
#7 = DIRECTION ( 'NONE',  ( -0.000000000000000000, 0.2580622926787444205, 0.9661282798352349710 ) ) ;
#8 = CARTESIAN_POINT ( 'NONE',  ( 75.32448909154837224, -6.127808328319703790, -580.8421222506801769 ) ) ;
#9 = CARTESIAN_POINT ( 'NONE',  ( -1.999999999999999556, -96.26844007803697423, -918.3087571148012103 ) ) ;
#10 = DIRECTION ( 'NONE',  ( 1.000000000000000000, 0.000000000000000000, 0.000000000000000000 ) ) ;
#11 = CARTESIAN_POINT ( 'NONE',  ( -5.000000000000000888, -8.125314610071098897, -579.4805214382774921 ) ) ;
#12 = ORIENTED_EDGE ( 'NONE', *, *, #400, .F. ) ;
#13 = CARTESIAN_POINT ( 'NONE',  ( 4.999999999999999112, -2.326543078844774737, -581.0294299086140200 ) ) ;
#14 = ORIENTED_EDGE ( 'NONE', *, *, #102, .T. ) ;
#15 = CARTESIAN_POINT ( 'NONE',  ( 0.000000000000000000, 0.000000000000000000, 0.000000000000000000 ) ) ;
#16 = EDGE_CURVE ( 'NONE', #280, #52, #88, .T. ) ;
#17 = CARTESIAN_POINT ( 'NONE',  ( -0.6000000000000033085, -5.909926115169405136, -582.8861108726910061 ) ) ;
#18 = VECTOR ( 'NONE', #401, 1000.000000000000000 ) ;
#19 = CARTESIAN_POINT ( 'NONE',  ( -5.000000000000004441, -8.470163981705612244, -581.9760568975420938 ) ) ;
#20 = CARTESIAN_POINT ( 'NONE',  ( -5.007308504473361843, -3.065030501328269708, -579.6024591856207735 ) ) ;
#21 = CARTESIAN_POINT ( 'NONE',  ( -0.6000000000000033085, -6.127808328319703790, -580.8421222506801769 ) ) ;
#22 = CARTESIAN_POINT ( 'NONE',  ( -5.000000000000000888, -4.363392256215256282, -580.4853676142749919 ) ) ;
#23 = VERTEX_POINT ( 'NONE', #1 ) ;
#24 = CARTESIAN_POINT ( 'NONE',  ( -66.26098609325352129, -7.192261410037285252, -584.8271997067090524 ) ) ;
#25 = EDGE_CURVE ( 'NONE', #269, #364, #38, .T. ) ;
#26 = AXIS2_PLACEMENT_3D ( 'NONE', #13, #155, #249 ) ;
#27 = CARTESIAN_POINT ( 'NONE',  ( -1.333271812507711651, -4.022974395556937033, -584.2309382877577946 ) ) ;
#28 = ORIENTED_EDGE ( 'NONE', *, *, #204, .T. ) ;
#29 = DIRECTION ( 'NONE',  ( 1.000000000000000000, -0.000000000000000000, -0.000000000000000000 ) ) ;
#30 = AXIS2_PLACEMENT_3D ( 'NONE', #128, #256, #81 ) ;
#31 = VERTEX_POINT ( 'NONE', #335 ) ;
#32 = CARTESIAN_POINT ( 'NONE',  ( -5.000000000000004441, -6.950477909541064037, -583.7439217559285680 ) ) ;
#33 = EDGE_LOOP ( 'NONE', ( #264, #159, #292, #99 ) ) ;
#34 = CARTESIAN_POINT ( 'NONE',  ( -5.000000000000000888, -4.423501304537540868, -584.8271997067090524 ) ) ;
#35 = CARTESIAN_POINT ( 'NONE',  ( -0.5999999999999972022, -96.26844007803697423, -918.3087571148012103 ) ) ;
#36 = EDGE_LOOP ( 'NONE', ( #103, #169, #72, #73 ) ) ;
#37 = VECTOR ( 'NONE', #171, 1000.000000000000000 ) ;
#38 = LINE ( 'NONE', #399, #226 ) ;
#39 = LINE ( 'NONE', #113, #245 ) ;
#40 = CARTESIAN_POINT ( 'NONE',  ( -2.000000000000001776, -7.711531184192503829, -581.1323130963992298 ) ) ;
#41 = EDGE_CURVE ( 'NONE', #115, #222, #3, .T. ) ;
#42 = LINE ( 'NONE', #312, #135 ) ;
#43 = ORIENTED_EDGE ( 'NONE', *, *, #334, .T. ) ;
#44 = DIRECTION ( 'NONE',  ( -1.000000000000000000, -0.000000000000000000, -0.000000000000000000 ) ) ;
#45 = CARTESIAN_POINT ( 'NONE',  ( -5.000000000000000888, -5.921358494176710785, -580.0692196268120142 ) ) ;
#46 = CARTESIAN_POINT ( 'NONE',  ( -0.6000000000000033085, -7.498812821013367547, -580.4759135700713841 ) ) ;
#47 = LINE ( 'NONE', #154, #317 ) ;
#48 = EDGE_CURVE ( 'NONE', #366, #280, #71, .T. ) ;
#49 = ORIENTED_EDGE ( 'NONE', *, *, #140, .F. ) ;
#50 = VECTOR ( 'NONE', #224, 1000.000000000000000 ) ;
#51 = CARTESIAN_POINT ( 'NONE',  ( -2.000000000000000000, -9.415626073464807178, -584.3111628374537077 ) ) ;
#52 = VERTEX_POINT ( 'NONE', #338 ) ;
#53 = CARTESIAN_POINT ( 'NONE',  ( -0.5718214320104615389, -4.027297806122992263, -584.2752208315873759 ) ) ;
#54 = ORIENTED_EDGE ( 'NONE', *, *, #144, .T. ) ;
#55 = CARTESIAN_POINT ( 'NONE',  ( -5.000000000000000888, -5.921358494176710785, -580.0692196268120142 ) ) ;
#56 = ADVANCED_FACE ( 'NONE', ( #110 ), #236, .T. ) ;
#57 = CARTESIAN_POINT ( 'NONE',  ( -0.5750922645683665957, -4.490892027635523753, -586.0139801095949679 ) ) ;
#58 = CARTESIAN_POINT ( 'NONE',  ( -1.318093417365346909, -3.114559052894579683, -580.7428181638467777 ) ) ;
#59 = ORIENTED_EDGE ( 'NONE', *, *, #380, .T. ) ;
#60 = B_SPLINE_SURFACE_WITH_KNOTS ( 'NONE', 3, 3, ( 
 ( #20, #327, #92, #354 ),
 ( #427, #261, #133, #192 ),
 ( #356, #319, #123, #95 ),
 ( #395, #219, #325, #130 ),
 ( #352, #164, #252, #422 ),
 ( #58, #227, #27, #254 ),
 ( #322, #165, #53, #57 ) ),
 .UNSPECIFIED., .F., .F., .F.,
 ( 4, 3, 4 ),
 ( 4, 4 ),
 ( 0.000000000000000000, 0.01078981077066970898, 0.02157962154133941796 ),
 ( 0.2757124351863824985, 0.2811909661826688667 ),
 .UNSPECIFIED. ) ;
#61 = DIRECTION ( 'NONE',  ( -0.000000000000000000, 0.2580622926787384808, 0.9661282798352365253 ) ) ;
#62 = VERTEX_POINT ( 'NONE', #408 ) ;
#63 = ADVANCED_FACE ( 'NONE', ( #111 ), #298, .F. ) ;
#64 = PLANE ( 'NONE',  #167 ) ;
#65 = B_SPLINE_CURVE_WITH_KNOTS ( 'NONE', 3,
 ( #368, #201, #439, #141, #378, #241 ),
 .UNSPECIFIED., .F., .F.,
 ( 4, 2, 4 ),
 ( 0.0005948291620999802010, 0.002798106059535140563, 0.005001382956970300275 ),
 .UNSPECIFIED. ) ;
#66 = DIRECTION ( 'NONE',  ( 0.000000000000000000, -0.2580622926787384253, -0.9661282798352365253 ) ) ;
#67 = VERTEX_POINT ( 'NONE', #436 ) ;
#68 = CARTESIAN_POINT ( 'NONE',  ( -0.6000000000000031974, -4.175847668773647214, -584.8271997067090524 ) ) ;
#69 = VERTEX_POINT ( 'NONE', #200 ) ;
#70 = AXIS2_PLACEMENT_3D ( 'NONE', #177, #302, #272 ) ;
#71 = LINE ( 'NONE', #405, #37 ) ;
#72 = ORIENTED_EDGE ( 'NONE', *, *, #388, .F. ) ;
#73 = ORIENTED_EDGE ( 'NONE', *, *, #367, .T. ) ;
#74 = ORIENTED_EDGE ( 'NONE', *, *, #126, .F. ) ;
#75 = CARTESIAN_POINT ( 'NONE',  ( -5.000000000000004441, -4.938298075996824466, -582.9981556782981897 ) ) ;
#76 = LINE ( 'NONE', #419, #357 ) ;
#77 = EDGE_CURVE ( 'NONE', #220, #366, #333, .T. ) ;
#78 =( LENGTH_UNIT ( ) NAMED_UNIT ( * ) SI_UNIT ( .MILLI., .METRE. ) );
#79 = PRODUCT_DEFINITION_CONTEXT ( 'detailed design', #251, 'design' ) ;
#80 = CARTESIAN_POINT ( 'NONE',  ( -5.000000000000000888, -7.498812821013367547, -580.4759135700713841 ) ) ;
#81 = DIRECTION ( 'NONE',  ( 0.000000000000000000, -0.9661282798352349710, 0.2580622926787444205 ) ) ;
#82 = DIRECTION ( 'NONE',  ( -1.000000000000000000, -0.000000000000000000, -0.000000000000000000 ) ) ;
#83 = PLANE ( 'NONE',  #434 ) ;
#84 = VERTEX_POINT ( 'NONE', #108 ) ;
#85 = CARTESIAN_POINT ( 'NONE',  ( -0.5999999999999972022, -6.720117467366060637, -583.0595969684994770 ) ) ;
#86 = EDGE_CURVE ( 'NONE', #52, #67, #65, .T. ) ;
#87 = ORIENTED_EDGE ( 'NONE', *, *, #41, .T. ) ;
#88 = B_SPLINE_CURVE_WITH_KNOTS ( 'NONE', 3,
 ( #174, #196, #336, #205 ),
 .UNSPECIFIED., .F., .F.,
 ( 4, 4 ),
 ( 0.001226483567182020534, 0.005372905952504732942 ),
 .UNSPECIFIED. ) ;
#89 = VECTOR ( 'NONE', #406, 1000.000000000000000 ) ;
#90 = CARTESIAN_POINT ( 'NONE',  ( 5.000000000000000888, -9.415626073464828494, -584.3111628374537077 ) ) ;
#91 = CARTESIAN_POINT ( 'NONE',  ( -5.000000000000004441, -7.498812821013367547, -580.4759135700713841 ) ) ;
#92 = CARTESIAN_POINT ( 'NONE',  ( -5.064120136453322374, -3.968731897214563542, -583.0803435678153619 ) ) ;
#93 = EDGE_LOOP ( 'NONE', ( #300, #255, #229, #396 ) ) ;
#94 = EDGE_CURVE ( 'NONE', #364, #115, #153, .T. ) ;
#95 = CARTESIAN_POINT ( 'NONE',  ( -3.608800847565790004, -4.457799821988229105, -585.4537166295106090 ) ) ;
#96 = ORIENTED_EDGE ( 'NONE', *, *, #94, .T. ) ;
#97 = PRESENTATION_LAYER_ASSIGNMENT (  '', '', ( #271 ) ) ;
#98 = CARTESIAN_POINT ( 'NONE',  ( -66.26098609325352129, -3.557374397385013154, -584.8271997067090524 ) ) ;
#99 = ORIENTED_EDGE ( 'NONE', *, *, #293, .F. ) ;
#100 = ORIENTED_EDGE ( 'NONE', *, *, #77, .T. ) ;
#101 = CARTESIAN_POINT ( 'NONE',  ( -0.6000000000000031974, -4.175847668773647214, -584.8271997067090524 ) ) ;
#102 = EDGE_CURVE ( 'NONE', #267, #69, #384, .T. ) ;
#103 = ORIENTED_EDGE ( 'NONE', *, *, #339, .F. ) ;
#104 = CARTESIAN_POINT ( 'NONE',  ( -0.6000000000000033085, -4.938298075996824466, -582.9981556782981897 ) ) ;
#105 = ORIENTED_EDGE ( 'NONE', *, *, #388, .T. ) ;
#106 = DIRECTION ( 'NONE',  ( 0.000000000000000000, -0.9661282798352349710, 0.2580622926787444205 ) ) ;
#107 = ORIENTED_EDGE ( 'NONE', *, *, #210, .T. ) ;
#108 = CARTESIAN_POINT ( 'NONE',  ( -5.000000000000000888, -4.423501304537540868, -584.8271997067090524 ) ) ;
#109 = ADVANCED_FACE ( 'NONE', ( #207 ), #279, .T. ) ;
#110 = FACE_OUTER_BOUND ( 'NONE', #33, .T. ) ;
#111 = FACE_OUTER_BOUND ( 'NONE', #420, .T. ) ;
#112 = ADVANCED_FACE ( 'NONE', ( #114 ), #342, .T. ) ;
#113 = CARTESIAN_POINT ( 'NONE',  ( -5.000000000000000888, -2.326543078844774737, -581.0294299086140200 ) ) ;
#114 = FACE_OUTER_BOUND ( 'NONE', #355, .T. ) ;
#115 = VERTEX_POINT ( 'NONE', #11 ) ;
#116 = FILL_AREA_STYLE ('',( #134 ) ) ;
#117 = CARTESIAN_POINT ( 'NONE',  ( -2.000000000000001776, -7.836975727211703102, -582.6898629574222923 ) ) ;
#118 = EDGE_LOOP ( 'NONE', ( #287, #96, #87, #107 ) ) ;
#119 =( NAMED_UNIT ( * ) SI_UNIT ( $, .STERADIAN. ) SOLID_ANGLE_UNIT ( ) );
#120 = CARTESIAN_POINT ( 'NONE',  ( -1.999999999999999112, -7.483697903525383666, -584.8271997067090524 ) ) ;
#121 =( NAMED_UNIT ( * ) PLANE_ANGLE_UNIT ( ) SI_UNIT ( $, .RADIAN. ) );
#122 = DIRECTION ( 'NONE',  ( 0.000000000000000000, 0.000000000000000000, 1.000000000000000000 ) ) ;
#123 = CARTESIAN_POINT ( 'NONE',  ( -3.588437197769799525, -3.995401665423356175, -583.7174054793679261 ) ) ;
#124 = EDGE_LOOP ( 'NONE', ( #28, #228, #382, #127, #232, #49, #416 ) ) ;
#125 = LINE ( 'NONE', #288, #407 ) ;
#126 = EDGE_CURVE ( 'NONE', #220, #233, #47, .T. ) ;
#127 = ORIENTED_EDGE ( 'NONE', *, *, #216, .T. ) ;
#128 = CARTESIAN_POINT ( 'NONE',  ( 4.999999999999999112, -2.326543078844774737, -581.0294299086140200 ) ) ;
#129 = ORIENTED_EDGE ( 'NONE', *, *, #404, .F. ) ;
#130 = CARTESIAN_POINT ( 'NONE',  ( -2.855420047928252547, -4.468257093221074783, -585.6540062105419793 ) ) ;
#131 = EDGE_CURVE ( 'NONE', #67, #267, #42, .T. ) ;
#132 = COLOUR_RGB ( '',0.7921568627450980005, 0.8196078431372548767, 0.9333333333333333481 ) ;
#133 = CARTESIAN_POINT ( 'NONE',  ( -4.331401291061494518, -3.982891859281897151, -583.4351616258978765 ) ) ;
#134 = FILL_AREA_STYLE_COLOUR ( '', #132 ) ;
#135 = VECTOR ( 'NONE', #415, 1000.000000000000114 ) ;
#136 = VERTEX_POINT ( 'NONE', #120 ) ;
#137 = CARTESIAN_POINT ( 'NONE',  ( -2.000000000000000000, -3.616854542238503445, -585.8600713077902356 ) ) ;
#138 = ORIENTED_EDGE ( 'NONE', *, *, #48, .T. ) ;
#139 = ORIENTED_EDGE ( 'NONE', *, *, #176, .T. ) ;
#140 = EDGE_CURVE ( 'NONE', #175, #364, #412, .T. ) ;
#141 = CARTESIAN_POINT ( 'NONE',  ( -3.535915607601014088, -3.231209149866046904, -580.7877847717629720 ) ) ;
#142 = UNCERTAINTY_MEASURE_WITH_UNIT (LENGTH_MEASURE( 1.000000000000000082E-05 ), #78, 'distance_accuracy_value', 'NONE');
#143 = CARTESIAN_POINT ( 'NONE',  ( -5.000000000000004441, -4.363392256215242071, -580.4853676142749919 ) ) ;
#144 = EDGE_CURVE ( 'NONE', #220, #23, #318, .T. ) ;
#145 = DIRECTION ( 'NONE',  ( -0.000000000000000000, -0.2580622926787435323, -0.9661282798352351930 ) ) ;
#146 =( GEOMETRIC_REPRESENTATION_CONTEXT ( 3 ) GLOBAL_UNCERTAINTY_ASSIGNED_CONTEXT ( ( #147 ) ) GLOBAL_UNIT_ASSIGNED_CONTEXT ( ( #383, #121, #119 ) ) REPRESENTATION_CONTEXT ( 'NONE', 'WORKASPACE' ) );
#147 = UNCERTAINTY_MEASURE_WITH_UNIT (LENGTH_MEASURE( 1.000000000000000082E-05 ), #383, 'distance_accuracy_value', 'NONE');
#148 = CARTESIAN_POINT ( 'NONE',  ( -5.000000000000000888, -7.872827977720930903, -583.6461632127427492 ) ) ;
#149 = CARTESIAN_POINT ( 'NONE',  ( -5.000000000000000888, -3.616854542238503445, -585.8600713077902356 ) ) ;
#150 = CARTESIAN_POINT ( 'NONE',  ( -1.999999999999999556, -6.127808328319661157, -580.8421222506801769 ) ) ;
#151 = ORIENTED_EDGE ( 'NONE', *, *, #367, .F. ) ;
#152 = CARTESIAN_POINT ( 'NONE',  ( -5.000000000000004441, -6.127808328319703790, -580.8421222506801769 ) ) ;
#153 = LINE ( 'NONE', #375, #402 ) ;
#154 = CARTESIAN_POINT ( 'NONE',  ( 0.000000000000000000, -6.720117465881470409, -583.0595969629417823 ) ) ;
#155 = DIRECTION ( 'NONE',  ( 0.000000000000000000, 0.2580622926787444205, 0.9661282798352349710 ) ) ;
#156 = CARTESIAN_POINT ( 'NONE',  ( -0.6000000000000033085, -8.470163981705612244, -581.9760568975420938 ) ) ;
#157 = ADVANCED_FACE ( 'NONE', ( #282 ), #83, .T. ) ;
#158 = FACE_OUTER_BOUND ( 'NONE', #93, .T. ) ;
#159 = ORIENTED_EDGE ( 'NONE', *, *, #126, .T. ) ;
#160 = FACE_OUTER_BOUND ( 'NONE', #348, .T. ) ;
#161 = VECTOR ( 'NONE', #61, 1000.000000000000227 ) ;
#162 = PRODUCT_DEFINITION_SHAPE ( 'NONE', 'NONE',  #301 ) ;
#163 = CARTESIAN_POINT ( 'NONE',  ( 75.32448909154837224, -4.363392256215242071, -580.4853676142749919 ) ) ;
#164 = CARTESIAN_POINT ( 'NONE',  ( -2.078222937301857254, -3.558425367113978943, -582.3744594659160612 ) ) ;
#165 = CARTESIAN_POINT ( 'NONE',  ( -0.5685594272869551880, -3.569870592440239410, -582.5327567696186861 ) ) ;
#166 = ADVANCED_FACE ( 'NONE', ( #185 ), #349, .F. ) ;
#167 = AXIS2_PLACEMENT_3D ( 'NONE', #295, #206, #344 ) ;
#168 = LINE ( 'NONE', #163, #423 ) ;
#169 = ORIENTED_EDGE ( 'NONE', *, *, #210, .F. ) ;
#170 = LINE ( 'NONE', #149, #191 ) ;
#171 = DIRECTION ( 'NONE',  ( -1.262833020325978675E-16, 1.000000000000000000, 0.000000000000000000 ) ) ;
#172 = EDGE_LOOP ( 'NONE', ( #4, #43, #129, #260 ) ) ;
#173 = CARTESIAN_POINT ( 'NONE',  ( -5.000000000000000888, -4.423501304537540868, -584.8271997067090524 ) ) ;
#174 = CARTESIAN_POINT ( 'NONE',  ( -0.6000000000000031974, -4.175847668773647214, -584.8271997067090524 ) ) ;
#175 = VERTEX_POINT ( 'NONE', #51 ) ;
#176 = EDGE_CURVE ( 'NONE', #84, #253, #76, .T. ) ;
#177 = CARTESIAN_POINT ( 'NONE',  ( -1.999999999999999556, -96.26844007803697423, -918.3087571148012103 ) ) ;
#178 = CARTESIAN_POINT ( 'NONE',  ( -1.999999999999999556, -96.26844007803697423, -918.3087571148012103 ) ) ;
#179 = CARTESIAN_POINT ( 'NONE',  ( -2.000000000000001776, -7.958730040757724389, -581.9743785034908115 ) ) ;
#180 = CARTESIAN_POINT ( 'NONE',  ( -0.6000000000000000888, -7.192261410037287028, -584.8271997067090524 ) ) ;
#181 = CARTESIAN_POINT ( 'NONE',  ( -1.999999999999999556, -98.47239619393138810, -917.7200589262665744 ) ) ;
#182 = CARTESIAN_POINT ( 'NONE',  ( -5.000000000000000888, -3.359991378988003596, -580.7533857814869407 ) ) ;
#183 = LINE ( 'NONE', #310, #313 ) ;
#184 = EDGE_CURVE ( 'NONE', #62, #233, #296, .T. ) ;
#185 = FACE_OUTER_BOUND ( 'NONE', #124, .T. ) ;
#186 = CARTESIAN_POINT ( 'NONE',  ( -0.6000000000000033085, -4.363392256215242071, -580.4853676142749919 ) ) ;
#187 = CARTESIAN_POINT ( 'NONE',  ( -0.5999999999999972022, -6.720117467366060637, -583.0595969684994770 ) ) ;
#188 = ORIENTED_EDGE ( 'NONE', *, *, #293, .T. ) ;
#189 = LINE ( 'NONE', #90, #431 ) ;
#190 = VERTEX_POINT ( 'NONE', #45 ) ;
#191 = VECTOR ( 'NONE', #409, 1000.000000000000114 ) ;
#192 = CARTESIAN_POINT ( 'NONE',  ( -4.355907379598066065, -4.444723766219230932, -585.1702435634153971 ) ) ;
#193 = DIRECTION ( 'NONE',  ( -1.000000000000000000, -0.000000000000000000, -0.000000000000000000 ) ) ;
#194 = ORIENTED_EDGE ( 'NONE', *, *, #216, .F. ) ;
#195 = CARTESIAN_POINT ( 'NONE',  ( -5.000000000000000888, -9.415626073464828494, -584.3111628374537077 ) ) ;
#196 = CARTESIAN_POINT ( 'NONE',  ( -0.5999999999998454348, -3.822131341288236506, -583.4910835468344885 ) ) ;
#197 = ORIENTED_EDGE ( 'NONE', *, *, #380, .F. ) ;
#198 = PRODUCT_RELATED_PRODUCT_CATEGORY ( 'part', '', ( #426 ) ) ;
#199 = CARTESIAN_POINT ( 'NONE',  ( -0.5999999999999975353, -2.309278450159907514, -581.0340414594338654 ) ) ;
#200 = CARTESIAN_POINT ( 'NONE',  ( -5.000000000000000888, -6.127808328319703790, -580.8421222506801769 ) ) ;
#201 = CARTESIAN_POINT ( 'NONE',  ( -1.334948693405486164, -3.133547969020843205, -580.8138710263123130 ) ) ;
#202 = AXIS2_PLACEMENT_3D ( 'NONE', #278, #351, #391 ) ;
#203 = ORIENTED_EDGE ( 'NONE', *, *, #131, .F. ) ;
#204 = EDGE_CURVE ( 'NONE', #136, #31, #183, .T. ) ;
#205 = CARTESIAN_POINT ( 'NONE',  ( -0.5999999999999974243, -3.126509573585120716, -580.8157510504256607 ) ) ;
#206 = DIRECTION ( 'NONE',  ( 0.000000000000000000, -0.9661282798352351930, 0.2580622926787435323 ) ) ;
#207 = FACE_OUTER_BOUND ( 'NONE', #36, .T. ) ;
#208 = DIRECTION ( 'NONE',  ( 0.000000000000000000, -0.2580622926787444205, -0.9661282798352349710 ) ) ;
#209 = CARTESIAN_POINT ( 'NONE',  ( -0.6000000000000033085, -4.363392256215242071, -580.4853676142749919 ) ) ;
#210 = EDGE_CURVE ( 'NONE', #222, #175, #189, .T. ) ;
#211 = CARTESIAN_POINT ( 'NONE',  ( -0.6000000000000033085, -5.438082150047254260, -582.5688481229408353 ) ) ;
#212 = AXIS2_PLACEMENT_3D ( 'NONE', #315, #208, #214 ) ;
#213 = APPLICATION_PROTOCOL_DEFINITION ( 'draft international standard', 'automotive_design', 1998, #316 ) ;
#214 = DIRECTION ( 'NONE',  ( 0.000000000000000000, 0.9661282798352349710, -0.2580622926787444205 ) ) ;
#215 = DIRECTION ( 'NONE',  ( -1.000000000000000000, 0.000000000000000000, 0.000000000000000000 ) ) ;
#216 = EDGE_CURVE ( 'NONE', #62, #269, #125, .T. ) ;
#217 = DIRECTION ( 'NONE',  ( 1.000000000000000000, 0.000000000000000000, 0.000000000000000000 ) ) ;
#218 = AXIS2_PLACEMENT_3D ( 'NONE', #330, #363, #66 ) ;
#219 = CARTESIAN_POINT ( 'NONE',  ( -2.823177336913256230, -3.548796565735940600, -582.1759318197052835 ) ) ;
#220 = VERTEX_POINT ( 'NONE', #187 ) ;
#221 = DIRECTION ( 'NONE',  ( -0.000000000000000000, 0.2580622926787444205, 0.9661282798352349710 ) ) ;
#222 = VERTEX_POINT ( 'NONE', #195 ) ;
#223 = PRODUCT_DEFINITION_FORMATION_WITH_SPECIFIED_SOURCE ( 'ANY', '', #426, .NOT_KNOWN. ) ;
#224 = DIRECTION ( 'NONE',  ( -1.000000000000000000, -0.000000000000000000, -0.000000000000000000 ) ) ;
#225 = EDGE_LOOP ( 'NONE', ( #197, #239, #74, #54, #371, #14 ) ) ;
#226 = VECTOR ( 'NONE', #231, 1000.000000000000114 ) ;
#227 = CARTESIAN_POINT ( 'NONE',  ( -1.325671197947031033, -3.565650818860592874, -582.4886400209044268 ) ) ;
#228 = ORIENTED_EDGE ( 'NONE', *, *, #353, .T. ) ;
#229 = ORIENTED_EDGE ( 'NONE', *, *, #370, .T. ) ;
#230 = LINE ( 'NONE', #137, #6 ) ;
#231 = DIRECTION ( 'NONE',  ( 0.000000000000000000, -0.9661282798352376355, 0.2580622926787340954 ) ) ;
#232 = ORIENTED_EDGE ( 'NONE', *, *, #25, .T. ) ;
#233 = VERTEX_POINT ( 'NONE', #359 ) ;
#234 = AXIS2_PLACEMENT_3D ( 'NONE', #98, #389, #217 ) ;
#235 = ADVANCED_FACE ( 'NONE', ( #285 ), #393, .T. ) ;
#236 = PLANE ( 'NONE',  #70 ) ;
#237 = CARTESIAN_POINT ( 'NONE',  ( -5.000000000000000888, -8.470163981705612244, -581.9760568975420938 ) ) ;
#238 = AXIS2_PLACEMENT_3D ( 'NONE', #9, #417, #122 ) ;
#239 = ORIENTED_EDGE ( 'NONE', *, *, #184, .T. ) ;
#240 = FACE_OUTER_BOUND ( 'NONE', #225, .T. ) ;
#241 = CARTESIAN_POINT ( 'NONE',  ( -5.000000000000000888, -3.359991378988003596, -580.7533857814869407 ) ) ;
#242 = ORIENTED_EDGE ( 'NONE', *, *, #131, .T. ) ;
#243 = CARTESIAN_POINT ( 'NONE',  ( -4.999999999999966249, -3.710422326722453423, -582.1123861310437633 ) ) ;
#244 = CARTESIAN_POINT ( 'NONE',  ( -2.000000000000001776, -7.374924883113949114, -583.0891928349469708 ) ) ;
#245 = VECTOR ( 'NONE', #106, 1000.000000000000114 ) ;
#246 = PRODUCT_CONTEXT ( 'NONE', #316, 'mechanical' ) ;
#247 = CARTESIAN_POINT ( 'NONE',  ( -0.6000000000000033085, -6.346413034936357889, -583.0427063354553638 ) ) ;
#248 = CARTESIAN_POINT ( 'NONE',  ( -5.000000000000004441, -7.872827977720930903, -583.6461632127427492 ) ) ;
#249 = DIRECTION ( 'NONE',  ( 0.000000000000000000, -0.9661282798352349710, 0.2580622926787444205 ) ) ;
#250 = PLANE ( 'NONE',  #202 ) ;
#251 = APPLICATION_CONTEXT ( 'automotive_design' ) ;
#252 = CARTESIAN_POINT ( 'NONE',  ( -2.090114497266926996, -4.015486591996325849, -584.1162279508133679 ) ) ;
#253 = VERTEX_POINT ( 'NONE', #291 ) ;
#254 = CARTESIAN_POINT ( 'NONE',  ( -1.340893186013228711, -4.486465054373555361, -585.9695332977688622 ) ) ;
#255 = ORIENTED_EDGE ( 'NONE', *, *, #275, .T. ) ;
#256 = DIRECTION ( 'NONE',  ( 0.000000000000000000, 0.2580622926787444205, 0.9661282798352349710 ) ) ;
#257 = ADVANCED_BREP_SHAPE_REPRESENTATION ( 'rubber band hook', ( #346, #387 ), #146 ) ;
#258 = EDGE_CURVE ( 'NONE', #23, #267, #168, .T. ) ;
#259 = CARTESIAN_POINT ( 'NONE',  ( 75.32448909154837224, -5.921358494176710785, -580.0692196268120142 ) ) ;
#260 = ORIENTED_EDGE ( 'NONE', *, *, #86, .F. ) ;
#261 = CARTESIAN_POINT ( 'NONE',  ( -4.306965717064199062, -3.527222442170161898, -581.6963972438076098 ) ) ;
#262 = FACE_OUTER_BOUND ( 'NONE', #118, .T. ) ;
#263 = ADVANCED_FACE ( 'NONE', ( #294 ), #60, .F. ) ;
#264 = ORIENTED_EDGE ( 'NONE', *, *, #77, .F. ) ;
#265 = PRESENTATION_STYLE_ASSIGNMENT (( #397 ) ) ;
#266 =( GEOMETRIC_REPRESENTATION_CONTEXT ( 3 ) GLOBAL_UNCERTAINTY_ASSIGNED_CONTEXT ( ( #142 ) ) GLOBAL_UNIT_ASSIGNED_CONTEXT ( ( #78, #365, #398 ) ) REPRESENTATION_CONTEXT ( 'NONE', 'WORKASPACE' ) );
#267 = VERTEX_POINT ( 'NONE', #22 ) ;
#268 = ORIENTED_EDGE ( 'NONE', *, *, #16, .T. ) ;
#269 = VERTEX_POINT ( 'NONE', #392 ) ;
#270 = LINE ( 'NONE', #340, #89 ) ;
#271 = STYLED_ITEM ( 'NONE', ( #265 ), #346 ) ;
#272 = DIRECTION ( 'NONE',  ( 0.000000000000000000, -0.2580622926787444205, -0.9661282798352349710 ) ) ;
#273 = CARTESIAN_POINT ( 'NONE',  ( -1.999999999999999556, -8.125314610071153965, -579.4805214382777194 ) ) ;
#274 = CARTESIAN_POINT ( 'NONE',  ( -5.000000000000000888, -6.127808328319703790, -580.8421222506801769 ) ) ;
#275 = EDGE_CURVE ( 'NONE', #269, #190, #360, .T. ) ;
#276 = LINE ( 'NONE', #8, #414 ) ;
#277 = CARTESIAN_POINT ( 'NONE',  ( -2.000000000000001776, -7.000665467490101435, -580.6089735899726065 ) ) ;
#278 = CARTESIAN_POINT ( 'NONE',  ( -0.5999999999999975353, -92.65636003402013898, -919.2735789474227204 ) ) ;
#279 = PLANE ( 'NONE',  #212 ) ;
#280 = VERTEX_POINT ( 'NONE', #101 ) ;
#281 = APPLICATION_PROTOCOL_DEFINITION ( 'draft international standard', 'automotive_design', 1998, #251 ) ;
#282 = FACE_OUTER_BOUND ( 'NONE', #358, .T. ) ;
#283 = DIRECTION ( 'NONE',  ( 0.000000000000000000, 0.000000000000000000, 1.000000000000000000 ) ) ;
#284 = ORIENTED_EDGE ( 'NONE', *, *, #289, .T. ) ;
#285 = FACE_OUTER_BOUND ( 'NONE', #361, .T. ) ;
#286 = MECHANICAL_DESIGN_GEOMETRIC_PRESENTATION_REPRESENTATION (  '', ( #271 ), #266 ) ;
#287 = ORIENTED_EDGE ( 'NONE', *, *, #140, .T. ) ;
#288 = CARTESIAN_POINT ( 'NONE',  ( -1.999999999999999556, -96.26844007803697423, -918.3087571148012103 ) ) ;
#289 = EDGE_CURVE ( 'NONE', #69, #190, #425, .T. ) ;
#290 = DIRECTION ( 'NONE',  ( -1.000000000000000000, 0.000000000000000000, 0.000000000000000000 ) ) ;
#291 = CARTESIAN_POINT ( 'NONE',  ( -5.000000000000000888, -7.483697903525382777, -584.8271997067090524 ) ) ;
#292 = ORIENTED_EDGE ( 'NONE', *, *, #353, .F. ) ;
#293 = EDGE_CURVE ( 'NONE', #366, #31, #323, .T. ) ;
#294 = FACE_OUTER_BOUND ( 'NONE', #172, .T. ) ;
#295 = CARTESIAN_POINT ( 'NONE',  ( 0.000000000000000000, 136.8926247472628290, -36.56535610272605652 ) ) ;
#296 = B_SPLINE_CURVE_WITH_KNOTS ( 'NONE', 6,
 ( #150, #277, #40, #179, #117, #244, #345 ),
 .UNSPECIFIED., .F., .F.,
 ( 7, 7 ),
 ( 0.000000000000000000, 0.6366551997619369629 ),
 .UNSPECIFIED. ) ;
#297 = LINE ( 'NONE', #178, #305 ) ;
#298 = PLANE ( 'NONE',  #218 ) ;
#299 = ORIENTED_EDGE ( 'NONE', *, *, #41, .F. ) ;
#300 = ORIENTED_EDGE ( 'NONE', *, *, #25, .F. ) ;
#301 = PRODUCT_DEFINITION ( 'UNKNOWN', '', #223, #79 ) ;
#302 = DIRECTION ( 'NONE',  ( 0.000000000000000000, -0.9661282798352349710, 0.2580622926787444205 ) ) ;
#303 = DIRECTION ( 'NONE',  ( 0.000000000000000000, 0.9661282798352349710, -0.2580622926787444205 ) ) ;
#304 = ADVANCED_FACE ( 'NONE', ( #158 ), #429, .T. ) ;
#305 = VECTOR ( 'NONE', #5, 1000.000000000000000 ) ;
#306 = CARTESIAN_POINT ( 'NONE',  ( -5.000000000000000888, -3.616854542238503445, -585.8600713077902356 ) ) ;
#307 = CARTESIAN_POINT ( 'NONE',  ( -1.338993749922725129, -4.183353422567261504, -584.8271997067088250 ) ) ;
#308 = DIRECTION ( 'NONE',  ( -1.000000000000000000, 0.000000000000000000, 0.000000000000000000 ) ) ;
#309 = ORIENTED_EDGE ( 'NONE', *, *, #289, .F. ) ;
#310 = CARTESIAN_POINT ( 'NONE',  ( -2.000000000000001776, -3.557374397385013154, -584.8271997067090524 ) ) ;
#311 = ORIENTED_EDGE ( 'NONE', *, *, #404, .T. ) ;
#312 = CARTESIAN_POINT ( 'NONE',  ( -5.000000000000000888, -2.326543078844774737, -581.0294299086140200 ) ) ;
#313 = VECTOR ( 'NONE', #386, 1000.000000000000000 ) ;
#314 = ADVANCED_FACE ( 'NONE', ( #262 ), #64, .T. ) ;
#315 = CARTESIAN_POINT ( 'NONE',  ( 5.000000000000000888, -3.616854542238503445, -585.8600713077902356 ) ) ;
#316 = APPLICATION_CONTEXT ( 'automotive_design' ) ;
#317 = VECTOR ( 'NONE', #82, 1000.000000000000000 ) ;
#318 = B_SPLINE_CURVE_WITH_KNOTS ( 'NONE', 6,
 ( #85, #247, #17, #211, #381, #347, #186 ),
 .UNSPECIFIED., .F., .F.,
 ( 7, 7 ),
 ( 0.6366551994812402748, 1.000000000000000000 ),
 .UNSPECIFIED. ) ;
#319 = CARTESIAN_POINT ( 'NONE',  ( -3.568131736524654762, -3.539167764357902257, -581.9774041734945058 ) ) ;
#320 = ORIENTED_EDGE ( 'NONE', *, *, #204, .F. ) ;
#321 = CARTESIAN_POINT ( 'NONE',  ( -0.6000000000000033085, -7.872827977720930903, -583.6461632127427492 ) ) ;
#322 = CARTESIAN_POINT ( 'NONE',  ( -0.5653071452854199208, -3.118675162184691096, -580.7867675577372211 ) ) ;
#323 = LINE ( 'NONE', #24, #350 ) ;
#324 = ORIENTED_EDGE ( 'NONE', *, *, #258, .F. ) ;
#325 = CARTESIAN_POINT ( 'NONE',  ( -2.839275847518363260, -4.005444128709840790, -583.9168167150907038 ) ) ;
#326 = ORIENTED_EDGE ( 'NONE', *, *, #334, .F. ) ;
#327 = CARTESIAN_POINT ( 'NONE',  ( -5.035669223372194914, -3.513769255304945549, -581.3431478655429601 ) ) ;
#328 = VECTOR ( 'NONE', #411, 1000.000000000000114 ) ;
#329 = SURFACE_STYLE_FILL_AREA ( #116 ) ;
#330 = CARTESIAN_POINT ( 'NONE',  ( 75.32448909154837224, -5.921358494176710785, -580.0692196268120142 ) ) ;
#331 = ORIENTED_EDGE ( 'NONE', *, *, #176, .F. ) ;
#332 = CARTESIAN_POINT ( 'NONE',  ( -3.542328993514989754, -4.287282291018207125, -584.8271997067088250 ) ) ;
#333 = LINE ( 'NONE', #35, #18 ) ;
#334 = EDGE_CURVE ( 'NONE', #280, #84, #403, .T. ) ;
#335 = CARTESIAN_POINT ( 'NONE',  ( -1.999999999999999556, -7.192261410037287028, -584.8271997067090524 ) ) ;
#336 = CARTESIAN_POINT ( 'NONE',  ( -0.6000000000000299538, -3.472355838756045365, -582.1539329808847469 ) ) ;
#337 = CLOSED_SHELL ( 'NONE', ( #157, #413, #63, #112, #109, #314, #235, #263, #304, #418, #56, #166 ) ) ;
#338 = CARTESIAN_POINT ( 'NONE',  ( -0.5999999999999974243, -3.126509573585120716, -580.8157510504256607 ) ) ;
#339 = EDGE_CURVE ( 'NONE', #175, #136, #230, .T. ) ;
#340 = CARTESIAN_POINT ( 'NONE',  ( 5.000000000000000888, -7.483697903525383666, -584.8271997067090524 ) ) ;
#341 = DIRECTION ( 'NONE',  ( 0.000000000000000000, -1.000000000000000000, 0.000000000000000000 ) ) ;
#342 = PLANE ( 'NONE',  #26 ) ;
#343 = ORIENTED_EDGE ( 'NONE', *, *, #144, .F. ) ;
#344 = DIRECTION ( 'NONE',  ( 0.000000000000000000, -0.2580622926787435323, -0.9661282798352351930 ) ) ;
#345 = CARTESIAN_POINT ( 'NONE',  ( -1.999999999999999556, -6.720117465881525476, -583.0595969629417823 ) ) ;
#346 = MANIFOLD_SOLID_BREP ( 'Cut-Extrude23[1]', #337 ) ;
#347 = CARTESIAN_POINT ( 'NONE',  ( -0.6000000000000033085, -4.572281296620855251, -581.3983760921433941 ) ) ;
#348 = EDGE_LOOP ( 'NONE', ( #268, #428, #343, #100, #138 ) ) ;
#349 = PLANE ( 'NONE',  #238 ) ;
#350 = VECTOR ( 'NONE', #290, 1000.000000000000000 ) ;
#351 = DIRECTION ( 'NONE',  ( -1.000000000000000000, -1.262833020325978675E-16, 3.373150246169413693E-17 ) ) ;
#352 = CARTESIAN_POINT ( 'NONE',  ( -2.066367812041603802, -3.107595312477394067, -580.6291700235301505 ) ) ;
#353 = EDGE_CURVE ( 'NONE', #31, #233, #297, .T. ) ;
#354 = CARTESIAN_POINT ( 'NONE',  ( -5.092653524379659125, -4.429854610476639643, -584.8138664277337284 ) ) ;
#355 = EDGE_LOOP ( 'NONE', ( #12, #369, #242, #324 ) ) ;
#356 = CARTESIAN_POINT ( 'NONE',  ( -3.547889996896670617, -3.089162420208907189, -580.2338924741039818 ) ) ;
#357 = VECTOR ( 'NONE', #341, 1000.000000000000000 ) ;
#358 = EDGE_LOOP ( 'NONE', ( #309, #394, #203, #311, #139, #105, #299, #376 ) ) ;
#359 = CARTESIAN_POINT ( 'NONE',  ( -1.999999999999999556, -6.720117465881525476, -583.0595969629417823 ) ) ;
#360 = LINE ( 'NONE', #259, #50 ) ;
#361 = EDGE_LOOP ( 'NONE', ( #320, #151, #331, #326, #432, #188 ) ) ;
#362 = CARTESIAN_POINT ( 'NONE',  ( -0.6000000000000033085, -6.950477909541064037, -583.7439217559285680 ) ) ;
#363 = DIRECTION ( 'NONE',  ( 0.000000000000000000, -0.9661282798352366363, 0.2580622926787384808 ) ) ;
#364 = VERTEX_POINT ( 'NONE', #273 ) ;
#365 =( NAMED_UNIT ( * ) PLANE_ANGLE_UNIT ( ) SI_UNIT ( $, .RADIAN. ) );
#366 = VERTEX_POINT ( 'NONE', #180 ) ;
#367 = EDGE_CURVE ( 'NONE', #253, #136, #270, .T. ) ;
#368 = CARTESIAN_POINT ( 'NONE',  ( -0.5999999999999974243, -3.126509573585120716, -580.8157510504256607 ) ) ;
#369 = ORIENTED_EDGE ( 'NONE', *, *, #86, .T. ) ;
#370 = EDGE_CURVE ( 'NONE', #190, #115, #39, .T. ) ;
#371 = ORIENTED_EDGE ( 'NONE', *, *, #258, .T. ) ;
#372 = VECTOR ( 'NONE', #7, 1000.000000000000000 ) ;
#373 = CARTESIAN_POINT ( 'NONE',  ( -5.000000000000000888, -6.950477909541064037, -583.7439217559285680 ) ) ;
#374 = SURFACE_SIDE_STYLE ('',( #329 ) ) ;
#375 = CARTESIAN_POINT ( 'NONE',  ( 4.999999999999999112, -8.125314610071098897, -579.4805214382774921 ) ) ;
#376 = ORIENTED_EDGE ( 'NONE', *, *, #370, .F. ) ;
#377 = CARTESIAN_POINT ( 'NONE',  ( -4.999999999999984013, -4.064921513794715224, -583.4703251812967437 ) ) ;
#378 = CARTESIAN_POINT ( 'NONE',  ( -4.268381473691782446, -3.287240159957271146, -580.7728183421205586 ) ) ;
#379 = SHAPE_DEFINITION_REPRESENTATION ( #162, #257 ) ;
#380 = EDGE_CURVE ( 'NONE', #62, #69, #276, .T. ) ;
#381 = CARTESIAN_POINT ( 'NONE',  ( -0.6000000000000033085, -4.970918453291072403, -582.0781033097192676 ) ) ;
#382 = ORIENTED_EDGE ( 'NONE', *, *, #184, .F. ) ;
#383 =( LENGTH_UNIT ( ) NAMED_UNIT ( * ) SI_UNIT ( .MILLI., .METRE. ) );
#384 = B_SPLINE_CURVE_WITH_KNOTS ( 'NONE', 6,
 ( #385, #410, #373, #148, #237, #80, #274 ),
 .UNSPECIFIED., .F., .F.,
 ( 7, 7 ),
 ( 0.000000000000000000, 1.000000000000000000 ),
 .UNSPECIFIED. ) ;
#385 = CARTESIAN_POINT ( 'NONE',  ( -5.000000000000000888, -4.363392256215256282, -580.4853676142749919 ) ) ;
#386 = DIRECTION ( 'NONE',  ( 0.000000000000000000, 1.000000000000000000, 0.000000000000000000 ) ) ;
#387 = AXIS2_PLACEMENT_3D ( 'NONE', #15, #421, #10 ) ;
#388 = EDGE_CURVE ( 'NONE', #253, #222, #170, .T. ) ;
#389 = DIRECTION ( 'NONE',  ( 0.000000000000000000, 0.000000000000000000, -1.000000000000000000 ) ) ;
#390 = VECTOR ( 'NONE', #145, 1000.000000000000000 ) ;
#391 = DIRECTION ( 'NONE',  ( 1.262833020325978675E-16, -1.000000000000000000, 0.000000000000000000 ) ) ;
#392 = CARTESIAN_POINT ( 'NONE',  ( -1.999999999999999556, -5.921358494176742759, -580.0692196268123553 ) ) ;
#393 = PLANE ( 'NONE',  #234 ) ;
#394 = ORIENTED_EDGE ( 'NONE', *, *, #102, .F. ) ;
#395 = CARTESIAN_POINT ( 'NONE',  ( -2.807128904469136987, -3.098378866343150406, -580.4315312488171230 ) ) ;
#396 = ORIENTED_EDGE ( 'NONE', *, *, #94, .F. ) ;
#397 = SURFACE_STYLE_USAGE ( .BOTH. , #374 ) ;
#398 =( NAMED_UNIT ( * ) SI_UNIT ( $, .STERADIAN. ) SOLID_ANGLE_UNIT ( ) );
#399 = CARTESIAN_POINT ( 'NONE',  ( -1.999999999999999556, -5.921358494176742759, -580.0692196268123553 ) ) ;
#400 = EDGE_CURVE ( 'NONE', #52, #23, #2, .T. ) ;
#401 = DIRECTION ( 'NONE',  ( 0.000000000000000000, -0.2580622926787444205, -0.9661282798352349710 ) ) ;
#402 = VECTOR ( 'NONE', #215, 1000.000000000000000 ) ;
#403 = B_SPLINE_CURVE_WITH_KNOTS ( 'NONE', 3,
 ( #68, #307, #435, #332, #433, #173 ),
 .UNSPECIFIED., .F., .F.,
 ( 4, 2, 4 ),
 ( 0.0005921917156023916292, 0.002782392856913758986, 0.004972593998225125801 ),
 .UNSPECIFIED. ) ;
#404 = EDGE_CURVE ( 'NONE', #67, #84, #438, .T. ) ;
#405 = CARTESIAN_POINT ( 'NONE',  ( -0.6000000000000033085, -3.557374397385005160, -584.8271997067090524 ) ) ;
#406 = DIRECTION ( 'NONE',  ( 1.000000000000000000, 0.000000000000000000, 0.000000000000000000 ) ) ;
#407 = VECTOR ( 'NONE', #221, 1000.000000000000000 ) ;
#408 = CARTESIAN_POINT ( 'NONE',  ( -1.999999999999999556, -6.127808328319661157, -580.8421222506801769 ) ) ;
#409 = DIRECTION ( 'NONE',  ( 0.000000000000000000, -0.9661282798352349710, 0.2580622926787444205 ) ) ;
#410 = CARTESIAN_POINT ( 'NONE',  ( -5.000000000000000888, -4.938298075996824466, -582.9981556782981897 ) ) ;
#411 = DIRECTION ( 'NONE',  ( 1.307106982254307008E-16, -0.9661282798352378576, 0.2580622926787334293 ) ) ;
#412 = LINE ( 'NONE', #181, #372 ) ;
#413 = ADVANCED_FACE ( 'NONE', ( #240 ), #430, .F. ) ;
#414 = VECTOR ( 'NONE', #44, 1000.000000000000000 ) ;
#415 = DIRECTION ( 'NONE',  ( 0.000000000000000000, -0.9661282798352349710, 0.2580622926787444205 ) ) ;
#416 = ORIENTED_EDGE ( 'NONE', *, *, #339, .T. ) ;
#417 = DIRECTION ( 'NONE',  ( -1.000000000000000000, -0.000000000000000000, 0.000000000000000000 ) ) ;
#418 = ADVANCED_FACE ( 'NONE', ( #160 ), #250, .F. ) ;
#419 = CARTESIAN_POINT ( 'NONE',  ( -5.000000000000000888, -3.616854542238503445, -584.8271997067090524 ) ) ;
#420 = EDGE_LOOP ( 'NONE', ( #424, #194, #59, #284 ) ) ;
#421 = DIRECTION ( 'NONE',  ( 0.000000000000000000, 0.000000000000000000, 1.000000000000000000 ) ) ;
#422 = CARTESIAN_POINT ( 'NONE',  ( -2.102039248290715090, -4.478714364453920460, -585.8542957915733496 ) ) ;
#423 = VECTOR ( 'NONE', #193, 1000.000000000000000 ) ;
#424 = ORIENTED_EDGE ( 'NONE', *, *, #275, .F. ) ;
#425 = LINE ( 'NONE', #55, #161 ) ;
#426 = PRODUCT ( 'rubber band hook', 'rubber band hook', '', ( #246 ) ) ;
#427 = CARTESIAN_POINT ( 'NONE',  ( -4.282607303105212537, -3.077779600218840006, -579.9541302314329414 ) ) ;
#428 = ORIENTED_EDGE ( 'NONE', *, *, #400, .T. ) ;
#429 = PLANE ( 'NONE',  #30 ) ;
#430 = B_SPLINE_SURFACE_WITH_KNOTS ( 'NONE', 6, 1, ( 
 ( #209, #143 ),
 ( #104, #75 ),
 ( #362, #32 ),
 ( #321, #248 ),
 ( #156, #19 ),
 ( #46, #91 ),
 ( #21, #152 ) ),
 .UNSPECIFIED., .F., .F., .F.,
 ( 7, 7 ),
 ( 2, 2 ),
 ( 0.000000000000000000, 1.000000000000000000 ),
 ( 0.000000000000000000, 1.000000000000000000 ),
 .UNSPECIFIED. ) ;
#431 = VECTOR ( 'NONE', #29, 1000.000000000000000 ) ;
#432 = ORIENTED_EDGE ( 'NONE', *, *, #48, .F. ) ;
#433 = CARTESIAN_POINT ( 'NONE',  ( -4.272618612676425620, -4.346716591838617916, -584.8271997067090524 ) ) ;
#434 = AXIS2_PLACEMENT_3D ( 'NONE', #306, #308, #283 ) ;
#435 = CARTESIAN_POINT ( 'NONE',  ( -2.075550748110963184, -4.205396754035528595, -584.8271997067090524 ) ) ;
#436 = CARTESIAN_POINT ( 'NONE',  ( -5.000000000000000888, -3.359991378988003596, -580.7533857814869407 ) ) ;
#437 = CARTESIAN_POINT ( 'NONE',  ( -5.000000000000000888, -9.415626073464828494, -584.3111628374537077 ) ) ;
#438 = B_SPLINE_CURVE_WITH_KNOTS ( 'NONE', 3,
 ( #182, #243, #377, #34 ),
 .UNSPECIFIED., .F., .F.,
 ( 4, 4 ),
 ( 0.001353684832002103678, 0.005564030746942500230 ),
 .UNSPECIFIED. ) ;
#439 = CARTESIAN_POINT ( 'NONE',  ( -2.069209774661004975, -3.154154733431250079, -580.8083667584218119 ) ) ;
ENDSEC;
END-ISO-10303-21;
